<svg width="14" height="18" viewBox="0 0 14 18" fill="none" xmlns="http://www.w3.org/2000/svg">
<path d="M11.6846 9.14956C11.7004 7.80616 12.4037 6.5734 13.5496 5.8701C12.8226 4.8349 11.653 4.20271 10.3965 4.1632C9.06896 4.02096 7.78088 4.95343 7.10919 4.95343C6.43749 4.95343 5.37858 4.1711 4.25645 4.19481C2.77872 4.24222 1.44323 5.06406 0.724123 6.35214C-0.801023 8.99941 0.33691 12.8873 1.79884 15.0289C2.53375 16.0799 3.3872 17.2494 4.50933 17.202C5.60775 17.1546 6.01867 16.5066 7.33835 16.5066C8.65804 16.5066 9.02945 17.202 10.1753 17.1783C11.3527 17.1625 12.0955 16.1273 12.7988 15.0684C13.3283 14.3256 13.7313 13.4958 14 12.6266C12.6013 12.0339 11.6925 10.6668 11.6925 9.14956H11.6846Z" fill="white"/>
<path d="M9.52736 2.75791C10.1674 1.99138 10.4835 0.995691 10.4045 0C9.42463 0.10273 8.51586 0.568966 7.86787 1.31178C7.22779 2.0388 6.90379 2.99497 6.96701 3.96696C7.9627 3.97486 8.90308 3.53233 9.52736 2.75791Z" fill="white"/>
</svg>
