<svg width="10" height="7" viewBox="0 0 10 7" fill="none" xmlns="http://www.w3.org/2000/svg">
<path d="M5.00016 6.55256C4.82609 6.55279 4.65372 6.51844 4.49303 6.45149C4.33235 6.38454 4.18657 6.28633 4.06416 6.16256L0.554179 2.64656C0.357587 2.417 0.254855 2.12171 0.26652 1.8197C0.278185 1.51769 0.40338 1.2312 0.617094 1.01748C0.830807 0.803771 1.1173 0.678576 1.41932 0.666911C1.72133 0.655245 2.01658 0.757968 2.24615 0.95456L5.00016 3.70256L7.75418 0.95456C7.98374 0.757968 8.279 0.655245 8.58101 0.666911C8.88302 0.678576 9.16952 0.803771 9.38323 1.01748C9.59694 1.2312 9.72214 1.51769 9.73381 1.8197C9.74547 2.12171 9.64274 2.417 9.44615 2.64656L5.93616 6.16256C5.81376 6.28633 5.66797 6.38454 5.50729 6.45149C5.34661 6.51844 5.17423 6.55279 5.00016 6.55256Z" fill="white"/>
</svg>
