<?xml version="1.0" encoding="utf-8"?>
<!-- Generator: Adobe Illustrator 27.2.0, SVG Export Plug-In . SVG Version: 6.00 Build 0)  -->
<svg version="1.1"  xmlns="http://www.w3.org/2000/svg" x="0px"
	 y="0px" viewBox="0 0 212 61" style="enable-background:new 0 0 212 61;" xml:space="preserve">
<style type="text/css">
	.st0{fill:#E84D38;}
	.st1{fill:#FDD946;}
	.st2{fill:#59361C;}
	.st3{fill:#398A54;}
	.st4{fill:#1A94D3;}
	.st5{fill:#EF886A;}
	.st6{fill:#FFFBD5;}
	.st7{fill:#A01319;}
</style>
<path class="st0" d="M81.4,35.8c0.3-3.8,3.2-16,24.9-16c21.7,0,23.9,9.4,25.1,15.1l-7.2,8.2l-17.8,3.4l-19.6-2.7L81.4,35.8z"/>
<path class="st1" d="M106.6,16.9c2,0.1,4-0.2,5.8-0.9c1.9-0.7,3.5-1.8,4.9-3.2c2.4-2.9,4.2-8.2,3.4-10.8c0,0,1.1-0.8,2.9,1.6
	c1.8,2.4,3.2,6.9-0.2,9.3c0,0,3.3-2.4,4.2-0.6c1,1.8-2.9,5.8-8,7c-4.1,0.8-8.2,0.9-12.3,0.5L106.6,16.9z"/>
<path class="st1" d="M106.1,16.9c-2,0.1-4-0.2-5.8-0.9c-1.9-0.7-3.5-1.8-4.9-3.2c-1.3-1.5-2.2-3.2-2.8-5.1S91.8,3.9,92,2
	c0,0-1.1-0.8-2.9,1.6c-1.8,2.4-3.2,6.9,0.1,9.3c0,0-3.2-2.4-4.2-0.6s2.9,5.8,8,7c4.1,0.8,8.2,0.9,12.4,0.5L106.1,16.9z"/>
<path class="st1" d="M99.2,6.1c0,0-2.8-2.9-0.2-4.6c0.3-0.2,0.7-0.4,1.1-0.5c0.4-0.1,0.8-0.1,1.2,0c0.4,0.1,0.7,0.3,1,0.6
	s0.5,0.6,0.7,1c1-0.3,2.1-0.5,3.2-0.6c1.1,0,2.1,0.2,3.1,0.6c0.1-0.4,0.4-0.8,0.7-1c0.3-0.3,0.7-0.5,1.1-0.6
	c0.4-0.1,0.8-0.1,1.3-0.1c0.4,0.1,0.8,0.3,1.1,0.5c2.9,1.8,1.1,4.2,0,4.4c0.6,1,0.9,2,0.9,3.2c0,1.1-0.3,2.2-0.9,3.2
	c-2,2.9-3.9,3.7-8.6,3.4C100.1,15.4,96.1,10.8,99.2,6.1z"/>
<path class="st2" d="M106.5,47.4l-19.6-2.7c-0.1,0-0.2-0.1-0.3-0.1c-0.1-0.1-0.2-0.2-0.3-0.3l-5.4-8c0-0.2,0-0.4,0-0.6
	c0.2-2.9,2.5-16.8,25.8-16.8c22.4,0,24.8,10.2,26,15.7c0,0.1,0,0.3,0,0.4c0,0.1-0.1,0.3-0.2,0.4l-7.2,8.2c-0.1,0.1-0.3,0.2-0.5,0.3
	l-17.8,3.4H106.5z M87.3,43l19.1,2.6l17.3-3.3l6.7-7.7c-1.3-5.4-3.7-14-24.2-14c-20.5,0-23.6,11-24,14.9L87.3,43z"/>
<path class="st2" d="M112.6,21c-2.9,0-5.1-0.3-5.2-0.3c-0.2,0-0.3-0.1-0.5-0.2c-0.1-0.1-0.2-0.3-0.3-0.4l-0.8-2.9
	c0-0.1-0.1-0.3,0-0.4c0-0.1,0.1-0.3,0.2-0.4c0.1-0.1,0.2-0.2,0.3-0.3s0.3-0.1,0.4-0.1c1.8,0.1,3.7-0.2,5.4-0.8
	c1.7-0.7,3.3-1.7,4.6-3c2.3-2.8,3.5-6.4,3.2-10c-0.1-0.2-0.1-0.4,0-0.5c0.1-0.2,0.2-0.3,0.3-0.4c0.4-0.3,0.9-0.4,1.4-0.3
	c1.2,0.3,2.1,1.1,2.8,2.1c0.9,1.1,1.5,2.3,1.8,3.6c0.3,1.3,0.3,2.7,0,4.1c0.3-0.1,0.6-0.1,0.9,0c0.3,0.1,0.6,0.2,0.8,0.4
	c0.2,0.2,0.4,0.4,0.6,0.7c0.2,0.4,0.3,0.8,0.3,1.2c0,0.4-0.1,0.8-0.3,1.2c-0.9,1.5-2.2,2.8-3.6,3.8c-1.5,1-3.1,1.8-4.9,2.1
	C117.6,20.8,115.1,21.1,112.6,21z M108.1,19.1c3.8,0.4,7.7,0.2,11.5-0.5c3-0.7,5.6-2.5,7.3-5c0.1-0.1,0.1-0.3,0.1-0.4
	c0-0.1,0-0.3-0.1-0.4c0,0,0-0.2-0.2-0.2c-0.6-0.2-1.9,0.5-2.6,1c-0.1,0.1-0.2,0.1-0.3,0.2s-0.2,0-0.3,0c-0.1,0-0.2-0.1-0.3-0.1
	c-0.1-0.1-0.2-0.1-0.3-0.2c-0.1-0.1-0.1-0.2-0.1-0.3c0-0.1,0-0.2,0-0.3c0-0.1,0.1-0.2,0.1-0.3c0.1-0.1,0.1-0.2,0.2-0.3
	c2.9-2.2,1.2-6.2,0-8c-0.3-0.5-0.7-0.9-1.2-1.2c-0.1,3.8-1.4,7.5-3.8,10.4c-2.7,2.8-6.4,4.4-10.3,4.4L108.1,19.1z"/>
<path class="st2" d="M100.2,21c-2.5,0-5-0.2-7.5-0.8c-1.7-0.4-3.4-1.1-4.9-2.1c-1.5-1-2.7-2.3-3.6-3.8c-0.2-0.4-0.3-0.8-0.3-1.2
	c0-0.4,0.1-0.8,0.3-1.2c0.1-0.3,0.3-0.5,0.6-0.7c0.2-0.2,0.5-0.3,0.8-0.4c0.3-0.1,0.6-0.1,0.9,0c-0.3-1.3-0.3-2.7,0-4.1
	c0.3-1.3,0.9-2.6,1.8-3.6c0.6-1,1.5-1.7,2.7-2.1c0.5-0.1,1,0,1.5,0.2c0.1,0.1,0.3,0.3,0.3,0.4s0.1,0.4,0,0.5
	c-0.3,3.6,0.9,7.2,3.2,10c1.3,1.3,2.9,2.3,4.6,2.9c1.7,0.7,3.6,0.9,5.4,0.8c0.1,0,0.3,0,0.4,0.1c0.1,0.1,0.2,0.2,0.3,0.3
	c0.1,0.1,0.1,0.2,0.2,0.4c0,0.1,0,0.3,0,0.4l-0.8,2.9c0,0.2-0.1,0.3-0.3,0.4c-0.1,0.1-0.3,0.2-0.5,0.2C105.5,20.7,103,21,100.2,21z
	 M86.2,12.5H86c0,0,0,0-0.2,0.2c-0.2,0.2,0,0.4,0,0.8c1.7,2.5,4.3,4.3,7.3,5c3.8,0.7,7.6,0.9,11.5,0.5l0.3-1.3
	c-3.9-0.1-7.5-1.7-10.2-4.4c-2.4-3-3.7-6.6-3.8-10.4c-0.5,0.3-0.9,0.7-1.2,1.2c-1.3,1.8-2.9,5.8,0,8c0.2,0.1,0.3,0.3,0.3,0.6
	c0,0.2,0,0.5-0.2,0.6c-0.1,0.2-0.3,0.3-0.6,0.3c-0.2,0-0.5,0-0.7-0.2C87.9,13,87,12.7,86.2,12.5z"/>
<path class="st1" d="M87.9,42.9c0.3,0.2,0.7,0,1.2-1.5c0.4-1.5,1.7-5.2,1.7-5.2l5.9,5.1c1.6-1.6,3-3.4,4.4-5.2
	c1.3-1.6,2.3-3.5,2.9-5.6c-1-4.8-2.3-9.5-3.9-14.1c1.8-1,3.8-1.5,5.9-1.5c2.2,0.3,4.4,0.8,6.5,1.7c0,0-4,12.3-4,13.8
	c-0.1,1.5,3.7,7,7,10.4l6.1-5l2.3,5.3l7.8-8.7c0.1-1.2-0.1-2.3-0.6-3.4c-2-3.3-4.6-6.2-7.7-8.5c-2.2,1.2-4.8,1.6-7.3,1.4
	c-3-0.3-6-1-8.8-2.2l-0.6-1.8c2.7,0.8,5.6,0.9,8.4,0.2c2.7-0.7,5.2-2.2,7.2-4.3c0,0,11.1,6.5,14,12c1.6,2.7,2.6,5.6,2.9,8.7
	c-3.2,2.6-6,5.7-8,9.2c-2,4.6-2.9,9.6-2.6,14.5L85.3,59c-0.5-3.7-1.3-7.3-2.5-10.8c-2-6.5-10-13.1-10-13.1s-0.2-4.2,5.9-11.6
	c3.2-4.3,7.6-7.5,12.7-9.2c1.5,1.5,3.3,2.6,5.3,3.2c3,1,6.3,1.2,9.4,0.3c0,0.3-0.8,2.1-0.8,2.1c-3,1.2-6.3,1.9-9.6,2
	c-2.7,0.1-5.5-0.6-7.8-2.1c-2.4,1.8-4.4,4.1-5.9,6.7c-1.6,3.6-2.4,5.8-2.4,5.8L87.9,42.9z"/>
<path class="st2" d="M106.4,16.6h-1.5c-1.4-0.1-2.8-0.5-4.1-1.3c-1.2-0.8-2.2-1.8-2.9-3.1c-0.5-0.9-0.7-2-0.6-3c0-1,0.4-2.1,0.9-3
	c-0.7-0.8-1.1-1.8-1.1-2.9c0.1-0.5,0.2-0.9,0.5-1.3c0.3-0.4,0.6-0.8,1-1c0.4-0.3,0.8-0.5,1.2-0.6c0.4-0.1,0.9-0.2,1.4-0.1
	c0.5,0.1,0.9,0.2,1.3,0.5c0.4,0.3,0.7,0.6,1,1c0.9-0.3,1.8-0.4,2.8-0.4c0.9,0,1.8,0.2,2.7,0.5c0.4-0.7,1.1-1.2,1.8-1.5
	c0.5-0.1,1.1-0.2,1.7-0.1c0.6,0.1,1.1,0.3,1.5,0.6c0.6,0.3,1.2,0.8,1.5,1.4c0.3,0.6,0.5,1.3,0.4,2c-0.2,0.8-0.6,1.5-1.2,2.1
	c0.5,1,0.8,2.1,0.7,3.3c-0.1,1.1-0.4,2.2-1,3.2c-0.8,1.3-2,2.3-3.4,3C109.5,16.5,107.9,16.7,106.4,16.6z M100.7,1.9
	c-0.4,0-0.8,0.2-1.1,0.4c-0.2,0.1-0.4,0.3-0.5,0.5c-0.1,0.2-0.2,0.4-0.3,0.6c0.1,0.8,0.4,1.6,1,2.2c0.1,0.2,0.2,0.4,0.2,0.6
	c0,0.2-0.1,0.4-0.2,0.6C99.3,7.3,99,8.1,98.9,9c-0.1,0.8,0.1,1.7,0.4,2.5c0.5,1,1.3,1.8,2.3,2.4c1,0.6,2.1,0.9,3.2,1
	c4.7,0.2,6.1-0.6,7.9-2.9c0.5-0.8,0.7-1.8,0.6-2.7c0-0.9-0.3-1.9-0.8-2.6c-0.1-0.1-0.1-0.3-0.1-0.4s0-0.3,0.1-0.4
	c0-0.1,0.1-0.2,0.2-0.3c0.1-0.1,0.2-0.2,0.4-0.2c0.2-0.1,0.4-0.3,0.6-0.5c0.2-0.2,0.3-0.4,0.3-0.7c0-0.6-0.3-1.2-1.1-1.7
	c-0.2-0.2-0.5-0.3-0.8-0.4s-0.6-0.1-0.9,0c-0.5,0.2-0.9,0.7-1.2,1.2c0,0.1-0.1,0.2-0.2,0.3c-0.1,0.1-0.2,0.2-0.3,0.2
	c-0.2,0.1-0.5,0.1-0.7,0c-0.9-0.4-1.8-0.6-2.8-0.6c-1,0-2,0.2-2.9,0.5c-0.2,0.1-0.4,0.1-0.6,0c-0.2-0.1-0.4-0.2-0.5-0.4
	c-0.1-0.3-0.3-0.5-0.5-0.7c-0.2-0.2-0.4-0.3-0.7-0.4L100.7,1.9z"/>
<path class="st2" d="M84.6,58.6c0-0.9,7.9-2.3,21.2-2.3c13.3,0,23.6,1,23.4,2S116.4,60,105.7,60C95.1,60,84.5,59.8,84.6,58.6z"/>
<path class="st2" d="M88.2,43.8c-0.3,0-0.6-0.1-0.8-0.3L79.2,33c-0.1-0.1-0.1-0.3-0.1-0.4c0-0.1,0-0.3,0.1-0.4c0,0,0.8-2.4,2.4-6
	c1.4-2.8,3.4-5.2,5.9-7.1c0.2-0.1,0.3-0.2,0.5-0.2c0.2,0,0.4,0.1,0.5,0.2c2.2,1.3,4.7,2,7.2,1.9c1.6,0,3.1-0.2,4.7-0.5
	c-0.4-1.3-0.8-2.5-1.2-3.8c-0.1-0.2-0.1-0.4,0-0.6c0.1-0.2,0.2-0.3,0.4-0.4c2-1.1,4.2-1.7,6.5-1.7c2.3,0.3,4.6,0.8,6.8,1.7
	c0.2,0.1,0.4,0.2,0.5,0.4c0.1,0.2,0.1,0.4,0.1,0.6l-1.1,3.5c1.3,0.3,2.6,0.5,3.9,0.6c2.3,0.2,4.7-0.3,6.8-1.3
	c0.1-0.1,0.3-0.2,0.5-0.2c0.2,0,0.4,0.1,0.5,0.2c3.2,2.4,5.9,5.3,8,8.7c0.5,1.2,0.7,2.6,0.6,3.9c0,0.2-0.1,0.3-0.2,0.5l-7.8,8.7
	c-0.1,0.1-0.2,0.2-0.4,0.2c-0.1,0.1-0.3,0.1-0.4,0c-0.1,0-0.3-0.1-0.4-0.2c-0.1-0.1-0.2-0.2-0.3-0.3l-1.8-4.2l-5.2,4.2
	c-0.2,0.2-0.4,0.2-0.6,0.2c-0.2,0-0.4-0.1-0.6-0.2c-2.9-3.2-7.3-9.1-7.2-11.1c0-1.4,2.9-10,3.8-13.2c-1.8-0.6-3.6-1.1-5.5-1.3
	c-1.7,0-3.3,0.4-4.9,1.1c1.6,4.5,2.8,9.1,3.7,13.7c-0.6,2.2-1.7,4.2-3.1,6c-1.4,1.9-2.9,3.6-4.5,5.3c-0.2,0.2-0.4,0.2-0.6,0.2
	c-0.2,0-0.4-0.1-0.6-0.2L91,37.4c-0.4,1.2-1,2.9-1.3,3.9c-0.3,1-0.8,2-1.4,2.2L88.2,43.8z M80.9,32.2l7.2,9.4l0.2-0.5
	c0.4-1.5,1.7-5.1,1.7-5.2c0.1-0.1,0.1-0.3,0.2-0.4c0.1-0.1,0.2-0.2,0.4-0.2c0.1,0,0.3,0,0.4,0c0.1,0,0.3,0.1,0.4,0.2l5.2,4.5
	c1.3-1.4,2.6-2.9,3.7-4.5c1.3-1.5,2.3-3.3,2.9-5.2c-0.5-2.8-1.2-5.6-2.2-8.3h-0.2c-1.7,0.4-3.3,0.6-5,0.6c-2.7,0.1-5.3-0.6-7.7-1.9
	c-2.1,1.6-3.8,3.7-5,6C81.9,29.5,81.2,31.4,80.9,32.2L80.9,32.2z M111.8,22c-1.3,4.1-2.3,7.7-2.3,8.3c1.5,3.4,3.6,6.5,6.2,9.2
	l5.4-4.5c0.1-0.1,0.2-0.1,0.4-0.2c0.1,0,0.3,0,0.4,0c0.1,0,0.3,0.1,0.4,0.2c0.1,0.1,0.2,0.2,0.2,0.3l1.7,4.1l6.7-7.5
	c0-1-0.1-2-0.5-2.9c-1.8-3-4.2-5.6-7-7.8c-2.3,1-4.8,1.4-7.2,1.3C114.7,22.5,113.2,22.3,111.8,22L111.8,22z"/>
<path class="st2" d="M85.4,60.1c-0.2,0-0.4-0.1-0.6-0.2c-0.2-0.1-0.3-0.3-0.3-0.6c-0.5-3.6-1.3-7.2-2.5-10.6
	c-1.9-6.2-9.7-12.6-9.7-12.7c-0.1-0.1-0.2-0.2-0.2-0.3C72,35.5,72,35.4,72,35.3c0-0.2,0-4.6,6.1-12.3c3.3-4.4,7.9-7.8,13.2-9.5
	c0.2,0,0.4,0,0.5,0c0.2,0.1,0.3,0.2,0.4,0.3c1.4,1.3,3.1,2.3,4.9,2.9c1,0.4,2,0.7,3.1,0.8c0.2,0,0.4,0.1,0.6,0.3
	c0.1,0.2,0.2,0.4,0.2,0.6c0,0.2-0.1,0.4-0.3,0.6c-0.2,0.1-0.4,0.2-0.6,0.2c-1.2-0.1-2.4-0.4-3.5-0.9c-1.9-0.7-3.7-1.7-5.2-2.9
	c-4.7,1.7-8.7,4.8-11.7,8.7c-2.8,3-4.8,6.8-5.6,10.8c1.6,1.4,8.1,7.2,9.9,13.2c1.1,3.3,1.9,6.7,2.4,10.2l41.5-0.6
	c-0.3-4.9,0.6-9.7,2.7-14.2c2.1-3.5,4.7-6.6,7.9-9.2c-0.4-2.8-1.3-5.5-2.7-8c-2.3-4.6-10.7-9.9-13.1-11.3c-2.6,2.6-6.1,4.1-9.7,4.5
	c-0.2,0-0.5-0.1-0.6-0.2c-0.2-0.2-0.3-0.4-0.3-0.6c0-0.1,0-0.2,0-0.3c0-0.1,0.1-0.2,0.2-0.3c0.1-0.1,0.2-0.2,0.3-0.2
	c0.1-0.1,0.2-0.1,0.3-0.1c3.5-0.3,6.7-1.9,9-4.4c0.1-0.2,0.3-0.3,0.5-0.3c0.2,0,0.4,0,0.6,0.1c0.4,0.3,11.4,6.7,14.4,12.4
	c1.7,2.8,2.7,6,2.9,9.2c0,0.1,0,0.3-0.1,0.4c-0.1,0.1-0.1,0.2-0.3,0.3c-3.1,2.5-5.8,5.5-7.8,9c-2,4.4-2.8,9.3-2.5,14.1
	c0,0.1,0,0.2,0,0.3c0,0.1-0.1,0.2-0.2,0.3c-0.1,0.1-0.2,0.2-0.3,0.2c-0.1,0.1-0.2,0.1-0.3,0.1l-43.2,0.6L85.4,60.1z"/>
<path class="st2" d="M85.4,42.4c1.3,0,3.2,1.6,4.9,2.7c1.7,1.1,2.3,1.8,2.3,2.2c0,0.4-1.4,3.1-1.9,4.4c-0.5,1.3-0.9,2.6-1.6,2.6
	c-0.1,0-0.2,0-0.3,0c-1.9-0.7-3.8-1.6-5.6-2.5c-1.6-1.1-1.2-1.4-0.8-2.6c0.4-1.2,1.9-6.5,2.7-6.7L85.4,42.4 M85.4,40.7h-0.6
	c-1.5,0.3-2.2,1.8-3.8,7l-0.3,0.9v0.3c-0.2,0.4-0.3,0.8-0.3,1.2c0,0.4,0,0.9,0.2,1.3s0.4,0.8,0.7,1.1c0.3,0.3,0.7,0.6,1,0.7
	c1.4,0.8,2.8,1.5,4.3,2c0.5,0.2,1,0.4,1.5,0.6c0.4,0.2,0.7,0.3,1.1,0.3c1.8,0,2.6-1.9,3.1-3.3l0.1-0.4l0.8-1.8c0.6-1,1-2.1,1.2-3.2
	c0-1.4-1.2-2.4-3.2-3.7l-1.2-0.8c-1.3-1.2-3-1.9-4.7-2.2L85.4,40.7z"/>
<path class="st2" d="M106.3,36.1c1,0,1.9,0.3,2.7,0.9c2.2,1.7,0,4.5,0,4.5c0.6-0.4,1.4-0.7,2.1-0.8c0.2,0,0.4,0,0.6,0
	c1,0,1.5,0.7,2,1.9c0.5,1.2,0.3,3.8-1.8,4h-0.4c-0.5,0-0.9-0.1-1.3-0.3c-0.4-0.2-0.8-0.5-1.1-0.8c1.5,2.3,0.7,4.8-2.9,4.8
	c-3.6,0-2.4-4.3-2.4-4.3c-0.2,0.3-0.5,0.6-0.8,0.8c-0.3,0.2-0.7,0.3-1.1,0.3c-0.5,0-0.9-0.1-1.3-0.3c-0.4-0.2-0.8-0.5-1-0.8
	c-0.3-0.4-0.5-0.8-0.6-1.2c-0.1-0.4-0.1-0.9,0-1.3c0-0.3,0-0.6,0.2-0.9c0.1-0.3,0.3-0.5,0.5-0.8c0.2-0.2,0.5-0.4,0.8-0.5
	c0.3-0.1,0.6-0.1,0.9-0.1c0.6,0,1.2,0.1,1.8,0.3c-0.3-0.3-0.5-0.6-0.7-1c-0.2-0.4-0.2-0.8-0.2-1.2c0-0.4,0.1-0.8,0.2-1.2
	c0.2-0.4,0.4-0.7,0.7-1c0.4-0.4,0.8-0.7,1.3-0.9c0.5-0.2,1-0.3,1.6-0.3 M106,34.4c-0.8,0-1.6,0.1-2.3,0.4c-0.7,0.3-1.4,0.7-1.9,1.3
	c-0.5,0.5-0.8,1-1.1,1.6c-0.2,0.6-0.4,1.2-0.4,1.9c-0.9,0.1-1.7,0.6-2.3,1.3c-0.6,0.7-0.9,1.6-1,2.5c-0.1,0.7,0,1.5,0.2,2.2
	c0.2,0.7,0.6,1.4,1.1,1.9c0.4,0.5,0.9,0.8,1.5,1.1c0.6,0.3,1.2,0.4,1.8,0.4c0.1,0.6,0.4,1.2,0.8,1.7c0.4,0.5,0.9,0.9,1.5,1.2
	c0.6,0.3,1.2,0.4,1.9,0.4c1,0.1,1.9-0.1,2.8-0.5c0.9-0.4,1.6-1.1,2.1-1.9c0.2-0.4,0.4-0.9,0.5-1.4h0.6c0.6,0,1.2-0.2,1.7-0.5
	c0.5-0.3,0.9-0.7,1.3-1.2c0.4-0.7,0.6-1.5,0.7-2.3c0.1-0.8-0.1-1.6-0.3-2.3c-1.3-0.7-2.4-1.6-3.3-2.7c-0.9-1.1-1.6-2.4-2-3.7
	C108.6,34.9,107.3,34.5,106,34.4L106,34.4z"/>
<path class="st3" d="M85.2,42.4c-0.8,0.2-2.3,5.4-2.7,6.7c-0.4,1.3-0.7,1.5,0.8,2.6c1.8,1,3.7,1.8,5.6,2.5c0.9,0.5,1.5-1.3,1.9-2.5
	c0.5-1.2,1.9-4,1.9-4.4c0-0.4-0.6-1-2.3-2.2C88.6,43.9,86.5,42.2,85.2,42.4z"/>
<path class="st4" d="M103.3,41.5c0.1,0.2-3.9-1.5-4.2,2c-0.3,3.5,3.4,4.9,4.8,2.7c0,0-1.2,4.3,2.4,4.3c3.6,0,4.4-2.5,2.9-4.8
	c0.3,0.4,0.8,0.8,1.3,0.9c0.5,0.2,1.1,0.2,1.6,0.1c2-0.2,2.3-2.6,1.8-4c-0.5-1.4-1.2-2.2-2.6-1.9c-0.8,0.1-1.5,0.4-2.1,0.8
	c0,0,2.1-2.9,0-4.5c-0.8-0.6-1.8-1-2.8-0.9c-1,0-2,0.4-2.8,1.1c-0.3,0.3-0.6,0.6-0.8,0.9c-0.2,0.4-0.3,0.7-0.3,1.1
	c0,0.4,0,0.8,0.2,1.2C102.8,40.9,103,41.2,103.3,41.5z"/>
<path class="st5" d="M93.2,24.9c-3.2,1.6-2.5,4.6,1.8,3.5c4.4-1.1,5.6-2.3,4.5-3.8C98.4,23,93.2,24.9,93.2,24.9z"/>
<path class="st6" d="M85,43.2c0,0,0.6,5.2,2.4,4.8l1.8-0.3l2.8-0.5C91.9,47.2,86,41.9,85,43.2z"/>
<path class="st6" d="M103.4,37.2c-1.5,1.2-0.8,3.3,0.5,4.5c0.9-1.8,2-3.5,3.3-4.9c-0.6-0.2-1.3-0.3-2-0.2
	C104.6,36.7,103.9,36.9,103.4,37.2z"/>
<path class="st2" d="M125,41.7c0.3,0,0.7,0,1.1,0c0.4,0.1,0.8,0.2,1.1,0.5c0.3,0.2,0.6,0.5,0.9,0.9c0.2,0.3,0.4,0.7,0.4,1.1
	c0.1,0.4,0,0.8-0.1,1.2c0.4-0.1,0.9-0.2,1.3-0.2c0.3,0,0.6,0,0.9,0.2c0.3,0.1,0.5,0.3,0.6,0.6c0.3,0.8,0.4,1.7,0.2,2.5
	c-0.2,0.8-0.7,1.6-1.4,2.1c-1.4,1.2-3.2,2.1-5,2.4c-0.2,0-0.5,0-0.6-0.2c-1.8-2.1-2.9-4.7-3.3-7.5c0.1-1,0.5-1.9,1.2-2.6
	c0.7-0.7,1.7-1.1,2.7-1.1 M125,39.8c-1.4,0-2.8,0.6-3.8,1.6c-1,1-1.7,2.3-1.8,3.7c0.3,3.3,1.7,6.5,3.9,9c0.5,0.4,1.1,0.6,1.8,0.6
	c2.3-0.4,4.5-1.4,6.3-2.9c0.9-0.8,1.6-1.9,1.9-3.1c0.3-1.2,0.1-2.5-0.4-3.6c-0.3-0.5-0.7-0.9-1.1-1.2c-0.5-0.3-1-0.5-1.6-0.5
	c-0.1-0.5-0.3-1-0.6-1.5c-0.3-0.5-0.8-1-1.3-1.3c-0.5-0.3-1.1-0.6-1.7-0.7c-0.5-0.1-0.9-0.1-1.4,0V39.8z"/>
<path class="st7" d="M128.4,45.5c0.1-0.4,0.1-0.8,0.1-1.2c-0.1-0.4-0.2-0.8-0.4-1.1c-0.2-0.3-0.5-0.6-0.9-0.9
	c-0.3-0.2-0.7-0.4-1.1-0.5c-0.6-0.2-1.2-0.2-1.7-0.1c-0.6,0.1-1.1,0.3-1.6,0.7c-0.5,0.3-0.9,0.8-1.2,1.3c-0.3,0.5-0.4,1.1-0.5,1.7
	c0.4,2.8,1.5,5.4,3.3,7.5c1,0.8,4.7-1.4,5.7-2.2c0.7-0.5,1.1-1.3,1.4-2.1c0.2-0.8,0.1-1.7-0.2-2.5C130.6,44.7,128.4,45.5,128.4,45.5
	z"/>
<path class="st6" d="M121.1,45.5c-0.4,1,1.7,5.6,2.7,4.8c1-0.8,2.9-4.3,1.8-4.8C124.3,45,121.6,43.9,121.1,45.5z"/>
</svg>
