<svg width="14" height="16" viewBox="0 0 14 16" fill="none" xmlns="http://www.w3.org/2000/svg">
<path d="M6.53865 7.46875L0.0615234 14.3412C0.262223 15.0893 0.943387 15.6427 1.75227 15.6427C2.0746 15.6427 2.37869 15.5576 2.64021 15.3994L2.65846 15.3873L9.94447 11.1847L6.53257 7.46875H6.53865Z" fill="#EA4335"/>
<path d="M13.0877 6.29938H13.0816L9.9373 4.46875L6.3916 7.62521L9.94946 11.1831L13.0816 9.37677C13.629 9.07876 14 8.50099 14 7.83807C14 7.17516 13.635 6.59738 13.0877 6.30546V6.29938Z" fill="#FBBC04"/>
<path d="M0.0608178 1.30078C0.0243269 1.44674 0 1.59271 0 1.75084V13.8901C0 14.0483 0.0182451 14.1942 0.0608178 14.3402L6.75689 7.64411L0.0608178 1.30078Z" fill="#4285F4"/>
<path d="M6.58731 7.82121L9.93839 4.47013L2.65846 0.249355C2.39694 0.0912274 2.08677 0 1.75227 0C0.943387 0 0.262223 0.553445 0.0615234 1.29543L6.58731 7.82121Z" fill="#34A853"/>
</svg>
