<svg width="48" height="48" viewBox="0 0 48 48" fill="none" xmlns="http://www.w3.org/2000/svg">
<rect width="48" height="48" fill="white"/>
<path fill-rule="evenodd" clip-rule="evenodd" d="M25.0527 19.8496H22.0628L20.9898 23.2324C20.9595 23.3196 20.9332 23.4812 20.9069 23.643C20.883 23.7901 20.8591 23.9374 20.832 24.0293C20.8059 23.9343 20.7795 23.7906 20.7532 23.6469C20.7222 23.4781 20.6912 23.3092 20.6606 23.2187L19.5297 19.8496H16.5537L19.3866 27.411L19.029 28.4009C18.8428 29.0186 18.6997 29.1082 18.3988 29.1082H17.512V30.291C17.512 30.7158 17.8413 30.9983 18.3136 30.9983H18.7428C19.1584 30.9983 19.5728 30.934 19.9736 30.8054C20.3891 30.6768 20.6606 30.5355 20.8183 30.3679C21.0613 30.1234 21.2328 29.9304 21.3044 29.8145C21.3759 29.6985 21.4474 29.5309 21.519 29.3127L25.0527 19.8496Z" fill="#F70035"/>
<path fill-rule="evenodd" clip-rule="evenodd" d="M40.8846 22.2349L44.7053 17.0137H41.4432L38.1232 21.8617V17.0137H35.2188V28.1508H36.9787C37.5941 28.1508 38.1232 27.7776 38.1232 27.2505V22.6597L41.8145 28.1508H44.9914L40.8846 22.2349Z" fill="#F70035"/>
<path fill-rule="evenodd" clip-rule="evenodd" d="M15.4406 17.0158V27.2526C15.4406 27.7797 14.9114 28.1529 14.296 28.1529H12.5361V22.9064C12.5361 22.8674 12.5361 22.7651 12.5508 22.6102C12.5656 22.4425 12.5656 22.3403 12.5656 22.2886L12.5088 22.5585C12.494 22.6998 12.4656 22.8031 12.452 22.841L11.0644 26.4673C10.9066 26.8921 10.549 27.1356 10.0482 27.1356H8.6607L7.02911 22.763C7.01016 22.712 6.99121 22.609 6.97109 22.4996C6.94544 22.3601 6.91789 22.2103 6.88605 22.1453C6.90077 22.2222 6.90077 22.3508 6.90077 22.5184V27.2505C6.90077 27.7776 6.37164 28.1508 5.75624 28.1508H3.99316V17.0137H7.21215L9.71581 23.4176L12.2058 17.0137H15.4395L15.4406 17.0158Z" fill="#F70035"/>
<path fill-rule="evenodd" clip-rule="evenodd" d="M33.0974 17.0001V18.2092C33.0974 18.711 32.826 18.9165 32.2674 18.9165H28.7476L28.5614 20.9995C28.8044 20.8066 29.2483 20.6264 29.8921 20.6264C32.1096 20.6264 33.3835 22.002 33.3835 24.3812C33.3835 26.9017 31.9813 28.2521 29.5344 28.2521C28.4614 28.2521 27.5746 27.9696 26.8593 27.3908C26.1587 26.8248 25.7863 26.0152 25.7432 24.96H28.533C28.6329 25.7959 29.1768 26.3356 29.5344 26.3356C30.1635 26.3356 30.579 25.68 30.579 24.3812C30.579 23.8278 30.4643 23.365 30.2361 22.9919C30.0215 22.6187 29.7921 22.4384 29.5775 22.4384C29.1768 22.4384 28.7339 22.7083 28.5761 23.3387H25.8999L26.3154 16.999H33.0974V17.0001Z" fill="#F70035"/>
</svg>
