<svg width="28" height="22" viewBox="0 0 28 22" fill="none" xmlns="http://www.w3.org/2000/svg">
<path d="M25.1335 5.47684C25.1505 5.71553 25.1505 5.95421 25.1505 6.1951C25.1505 13.5349 19.3719 22 8.80552 22V21.9956C5.68418 22 2.62767 21.1355 0 19.5054C0.45387 19.5582 0.910014 19.5846 1.3673 19.5857C3.95401 19.5879 6.46679 18.7486 8.50181 17.2032C6.04363 17.1581 3.88804 15.6083 3.135 13.3457C3.9961 13.5063 4.88336 13.4733 5.72854 13.2501C3.04855 12.7265 1.12046 10.4496 1.12046 7.8054C1.12046 7.7812 1.12046 7.7581 1.12046 7.735C1.91899 8.16507 2.81308 8.40376 3.72765 8.43016C1.20349 6.79896 0.425432 3.55196 1.94971 1.01332C4.8663 4.48361 9.16953 6.59327 13.789 6.81656C13.326 4.88728 13.9585 2.86561 15.4509 1.50939C17.7646 -0.593674 21.4035 -0.485881 23.5785 1.75028C24.865 1.50499 26.0981 1.04852 27.2265 0.401763C26.7976 1.68758 25.9001 2.77981 24.7012 3.47387C25.8399 3.34408 26.9523 3.0493 28 2.59942C27.2288 3.71695 26.2573 4.69039 25.1335 5.47684Z" fill="white"/>
</svg>
