<svg width="40" height="6" viewBox="0 0 40 6" fill="none" xmlns="http://www.w3.org/2000/svg">
<path d="M0.333333 3C0.333333 4.47276 1.52724 5.66667 3 5.66667C4.47276 5.66667 5.66667 4.47276 5.66667 3C5.66667 1.52724 4.47276 0.333333 3 0.333333C1.52724 0.333333 0.333333 1.52724 0.333333 3ZM34.3333 3C34.3333 4.47276 35.5272 5.66667 37 5.66667C38.4728 5.66667 39.6667 4.47276 39.6667 3C39.6667 1.52724 38.4728 0.333333 37 0.333333C35.5272 0.333333 34.3333 1.52724 34.3333 3ZM3 3.5H3.94444V2.5H3V3.5ZM5.83333 3.5H7.72222V2.5H5.83333V3.5ZM9.61111 3.5H11.5V2.5H9.61111V3.5ZM13.3889 3.5H15.2778V2.5H13.3889V3.5ZM17.1667 3.5H19.0556V2.5H17.1667V3.5ZM20.9444 3.5H22.8333V2.5H20.9444V3.5ZM24.7222 3.5H26.6111V2.5H24.7222V3.5ZM28.5 3.5H30.3889V2.5H28.5V3.5ZM32.2778 3.5H34.1667V2.5H32.2778V3.5ZM36.0556 3.5H37V2.5H36.0556V3.5Z" fill="#F70035"/>
</svg>
