<svg width="24" height="24" viewBox="0 0 24 24" fill="none" xmlns="http://www.w3.org/2000/svg">
<path d="M18.3453 3H5.6534C4.19403 3 3 4.19403 3 5.6534V18.3466C3 19.806 4.19403 21 5.6534 21H18.3466C19.806 21 21 19.806 21 18.3466V5.6534C20.9987 4.19403 19.806 3 18.3453 3Z" fill="white"/>
<path d="M7.85938 18V6.6875H12.5312C15.0625 6.6875 16.375 7.84375 16.375 9.5625C16.375 10.8594 15.5 11.75 14.2656 12V12.1094C15.625 12.1719 16.8125 13.2031 16.8125 14.8438C16.8125 16.6719 15.3906 18 12.8906 18H7.85938ZM12.2656 15.8438C13.4844 15.8438 14.0312 15.3594 14.0312 14.5469C14.0312 13.6562 13.375 13.0938 12.3125 13.0938H10.5156V15.8438H12.2656ZM12.0938 11.3594C13 11.3594 13.6562 10.875 13.6562 10.0625C13.6562 9.29688 13.0781 8.8125 12.125 8.8125H10.5156V11.3594H12.0938Z" fill="#F70035"/>
</svg>
