<svg width="24" height="24" viewBox="0 0 24 24" fill="none" xmlns="http://www.w3.org/2000/svg">
<path d="M18.3453 3H5.6534C4.19403 3 3 4.19403 3 5.6534V18.3466C3 19.806 4.19403 21 5.6534 21H18.3466C19.806 21 21 19.806 21 18.3466V5.6534C20.9987 4.19403 19.806 3 18.3453 3ZM18.1748 12.6073H16.0388V20.3353H12.8428V12.6073H11.2441V9.94328H12.8428V8.34461C12.8428 6.17148 13.7449 4.87861 16.3121 4.87861H18.4461V7.54196H17.1114C16.1138 7.54196 16.0474 7.91542 16.0474 8.60995L16.0388 9.94328H18.4567L18.1748 12.6073Z" fill="white"/>
</svg>
