<svg width="32" height="32" viewBox="0 0 32 32" fill="none" xmlns="http://www.w3.org/2000/svg">
<g id="Frame">
<path id="Vector" d="M16 2.66663C23.3637 2.66663 29.3333 8.63616 29.3333 16C29.3333 23.3637 23.3637 29.3333 16 29.3333C8.63619 29.3333 2.66666 23.3637 2.66666 16C2.66666 8.63616 8.63619 2.66663 16 2.66663ZM16.2129 21.3333C13.4991 21.3333 11.0557 22.4916 9.35034 24.3408C11.1738 25.7965 13.4853 26.6666 16 26.6666C18.626 26.6666 21.0303 25.7177 22.8888 24.1441C21.1941 22.4098 18.8292 21.3333 16.2129 21.3333ZM16 5.33329C10.1089 5.33329 5.33332 10.1089 5.33332 16C5.33332 18.4141 6.13532 20.6409 7.48742 22.4285C9.67518 20.1121 12.7752 18.6666 16.2129 18.6666C19.5255 18.6666 22.5244 20.0088 24.6957 22.1789C25.9368 20.4356 26.6667 18.303 26.6667 16C26.6667 10.1089 21.8911 5.33329 16 5.33329ZM16 6.66663C18.9455 6.66663 21.3333 9.05444 21.3333 12C21.3333 14.9454 18.9455 17.3333 16 17.3333C13.0545 17.3333 10.6667 14.9454 10.6667 12C10.6667 9.05444 13.0545 6.66663 16 6.66663ZM16 9.33329C14.5272 9.33329 13.3333 10.5272 13.3333 12C13.3333 13.4728 14.5272 14.6666 16 14.6666C17.4728 14.6666 18.6667 13.4728 18.6667 12C18.6667 10.5272 17.4728 9.33329 16 9.33329Z" fill="white"/>
</g>
</svg>
