<svg width="24" height="24" viewBox="0 0 24 24" fill="none" xmlns="http://www.w3.org/2000/svg">
<path d="M16.4444 4H7.55556C6.61256 4 5.70819 4.3746 5.0414 5.0414C4.3746 5.70819 4 6.61256 4 7.55556V16.4444C4 17.3874 4.3746 18.2918 5.0414 18.9586C5.70819 19.6254 6.61256 20 7.55556 20H16.4444C17.3874 20 18.2918 19.6254 18.9586 18.9586C19.6254 18.2918 20 17.3874 20 16.4444V7.55556C20 6.61256 19.6254 5.70819 18.9586 5.0414C18.2918 4.3746 17.3874 4 16.4444 4Z" stroke="white" stroke-width="2" stroke-linejoin="round"/>
<path d="M12 15.5554C12.943 15.5554 13.8474 15.1808 14.5142 14.514C15.181 13.8473 15.5556 12.9429 15.5556 11.9999C15.5556 11.0569 15.181 10.1525 14.5142 9.48573C13.8474 8.81894 12.943 8.44434 12 8.44434C11.057 8.44434 10.1527 8.81894 9.48586 9.48573C8.81906 10.1525 8.44446 11.0569 8.44446 11.9999C8.44446 12.9429 8.81906 13.8473 9.48586 14.514C10.1527 15.1808 11.057 15.5554 12 15.5554Z" stroke="white" stroke-width="2" stroke-linejoin="round"/>
<path d="M16.8889 8.00043C17.1246 8.00043 17.3507 7.90678 17.5174 7.74008C17.6841 7.57339 17.7778 7.34729 17.7778 7.11155C17.7778 6.8758 17.6841 6.6497 17.5174 6.48301C17.3507 6.31631 17.1246 6.22266 16.8889 6.22266C16.6531 6.22266 16.427 6.31631 16.2603 6.48301C16.0936 6.6497 16 6.8758 16 7.11155C16 7.34729 16.0936 7.57339 16.2603 7.74008C16.427 7.90678 16.6531 8.00043 16.8889 8.00043Z" fill="white"/>
</svg>
