<svg width="24" height="24" viewBox="0 0 24 24" fill="none" xmlns="http://www.w3.org/2000/svg">
<g clip-path="url(#clip0_18_38)">
<path fill-rule="evenodd" clip-rule="evenodd" d="M12 3C12.9405 3 13.9052 3.02475 14.8402 3.06525L15.9446 3.11925L17.0017 3.18338L17.9917 3.252L18.8959 3.324C19.8773 3.40038 20.8009 3.82849 21.504 4.53293C22.207 5.23737 22.6445 6.17294 22.7393 7.17487L22.7833 7.653L22.8658 8.67675C22.9428 9.73762 23 10.8941 23 12C23 13.1059 22.9428 14.2624 22.8658 15.3233L22.7833 16.347L22.7393 16.8251C22.6445 17.8272 22.2068 18.763 21.5035 19.4674C20.8002 20.1719 19.8764 20.5999 18.8948 20.676L17.9928 20.7469L17.0028 20.8166L15.9446 20.8807L14.8402 20.9347C13.894 20.9767 12.9471 20.9984 12 21C11.0529 20.9984 10.106 20.9767 9.1598 20.9347L8.0554 20.8807L6.9983 20.8166L6.0083 20.7469L5.1041 20.676C4.12269 20.5996 3.19912 20.1715 2.49605 19.4671C1.79298 18.7626 1.35551 17.8271 1.2607 16.8251L1.2167 16.347L1.1342 15.3233C1.05042 14.2175 1.00565 13.109 1 12C1 10.8941 1.0572 9.73762 1.1342 8.67675L1.2167 7.653L1.2607 7.17487C1.35547 6.17312 1.79278 5.23768 2.49563 4.53327C3.19848 3.82885 4.12179 3.40063 5.103 3.324L6.0061 3.252L6.9961 3.18338L8.0543 3.11925L9.1587 3.06525C10.1053 3.02332 11.0526 3.00156 12 3ZM9.8 9.27187V14.7281C9.8 15.2479 10.35 15.5719 10.79 15.3131L15.41 12.585C15.5105 12.5258 15.594 12.4406 15.6521 12.3379C15.7102 12.2352 15.7407 12.1186 15.7407 12C15.7407 11.8814 15.7102 11.7648 15.6521 11.6621C15.594 11.5594 15.5105 11.4742 15.41 11.415L10.79 8.688C10.6896 8.62874 10.5758 8.59755 10.4599 8.59757C10.344 8.59759 10.2302 8.62881 10.1298 8.68811C10.0295 8.7474 9.94616 8.83268 9.88826 8.93535C9.83037 9.03802 9.79993 9.15448 9.8 9.273V9.27187Z" fill="white"/>
</g>
<defs>
<clipPath id="clip0_18_38">
<rect width="24" height="24" fill="white"/>
</clipPath>
</defs>
</svg>
