<svg width="62" height="120" viewBox="0 0 62 120" fill="none" xmlns="http://www.w3.org/2000/svg">
<rect x="39.5405" y="44" width="4" height="52" fill="#68041A"/>
<path fill-rule="evenodd" clip-rule="evenodd" d="M61.7479 23L41.5406 0L21.3334 23H35.3906L21.3334 39H34.2195L21.3334 53.667H31.8763L21.3334 65.667H61.7479L51.205 53.667H61.7479L48.8618 39H61.7479L47.6907 23H61.7479Z" fill="#5C7500"/>
<rect x="18.2073" y="68" width="4" height="52" fill="#68041A"/>
<path fill-rule="evenodd" clip-rule="evenodd" d="M40.4145 47L20.2073 24L1.83582e-05 47H14.0572L1.83582e-05 63H12.8861L0 77.667H10.5429L0 89.667H40.4145L29.8716 77.667H40.4145L27.5284 63H40.4145L26.3573 47H40.4145Z" fill="#A6B66C"/>
</svg>
