<svg width="138" height="47" viewBox="0 0 138 47" fill="none" xmlns="http://www.w3.org/2000/svg">
<path fill-rule="evenodd" clip-rule="evenodd" d="M97.8763 4.06356V0.00354314V0H75.056L73.6578 21.2877H82.6627C83.1937 19.1709 84.6839 18.2648 86.0325 18.2648C86.7546 18.2648 87.5263 18.8701 88.2484 20.1231C89.0165 21.3762 89.4023 22.9301 89.4023 24.7884C89.4023 29.1493 88.0041 31.351 85.8874 31.351C84.6839 31.351 82.8539 29.5387 82.5176 26.7317H73.1304C73.2755 30.2749 74.5285 32.9934 76.886 34.8942C79.293 36.8375 82.2769 37.7861 85.8874 37.7861C94.1207 37.7861 98.8391 33.2518 98.8391 24.7884C98.8391 16.7993 94.5525 12.1801 87.0909 12.1801C84.9246 12.1801 83.4309 12.7853 82.6132 13.4331L83.2397 6.43869H95.0835C96.9631 6.43869 97.8763 5.74845 97.8763 4.06356Z" fill="white"/>
<path fill-rule="evenodd" clip-rule="evenodd" d="M38.5188 34.4229V0.0490677L38.5153 0.0419922H27.6343L19.2559 21.5456L10.8314 0.0419922H0V37.4388H5.93251C8.00323 37.4388 9.78369 36.1857 9.78369 34.4159V18.5262C9.78369 17.9634 9.78369 17.5316 9.73413 17.2732C9.84128 17.4914 9.93397 17.9944 10.0203 18.4629C10.088 18.8302 10.1518 19.1763 10.2155 19.3474L15.7056 34.03H20.3744C22.0593 34.03 23.2628 33.2124 23.7938 31.7859L28.4626 19.6094C28.5086 19.4819 28.6042 19.135 28.6537 18.6607L28.8449 17.7546C28.8449 17.928 28.8449 18.2714 28.7953 18.8342C28.7458 19.3545 28.7458 19.6979 28.7458 19.8288V37.4458H34.6677C36.7384 37.4458 38.5188 36.1928 38.5188 34.4229Z" fill="white"/>
<path fill-rule="evenodd" clip-rule="evenodd" d="M70.8202 9.55371H60.7595L57.149 20.9126C57.047 21.2055 56.9587 21.748 56.8702 22.2913C56.7897 22.7854 56.7091 23.2801 56.6181 23.5886C56.5301 23.2694 56.4415 22.7871 56.3527 22.3044C56.2486 21.7376 56.1443 21.1705 56.0411 20.8665L52.2359 9.55371H42.2222L51.7545 34.9439L50.551 38.2676C49.9245 40.3419 49.4431 40.6428 48.4308 40.6428H45.4468V44.6143C45.4468 46.0408 46.5547 46.9894 48.1441 46.9894H49.5883C50.9864 46.9894 52.3811 46.7735 53.7297 46.3417C55.1279 45.9098 56.0411 45.4355 56.5721 44.8727C57.3897 44.0515 57.9667 43.4037 58.2074 43.0143C58.4481 42.625 58.6888 42.0622 58.9295 41.3295L70.8202 9.55371Z" fill="white"/>
<path fill-rule="evenodd" clip-rule="evenodd" d="M124.115 17.5809L136.971 0.0488281H125.994L114.823 16.3278V0.0488281H105.05V37.4456H110.972C113.043 37.4456 114.823 36.1925 114.823 34.4227V19.0074L127.244 37.4456H137.934L124.115 17.5809Z" fill="white"/>
<path d="M38.5151 0.410156H31.2588V29.3471H38.5151V0.410156Z" fill="white"/>
<path d="M74.9391 2.12005L73.8303 20.6738L81.0738 21.1067L82.1826 2.55292L74.9391 2.12005Z" fill="white"/>
</svg>
