<svg width="35" height="24" viewBox="0 0 35 24" fill="none" xmlns="http://www.w3.org/2000/svg">
<path fill-rule="evenodd" clip-rule="evenodd" d="M31.1738 0.716839C32.6806 1.11195 33.8649 2.27188 34.2682 3.74789C34.9971 6.4205 35 12 35 12C35 12 35 17.5795 34.2682 20.2522C33.8649 21.7282 32.6806 22.8881 31.1738 23.2831C28.4455 24 17.4999 24 17.4999 24C17.4999 24 6.55457 24 3.82613 23.2831C2.31931 22.8881 1.13517 21.7282 0.731807 20.2522C2.19057e-07 17.5795 0 12 0 12C0 12 2.19057e-07 6.4205 0.731807 3.74789C1.13517 2.27188 2.31931 1.11195 3.82613 0.716839C6.55457 2.14577e-07 17.4999 0 17.4999 0C17.4999 0 28.4455 2.14577e-07 31.1738 0.716839ZM23.0895 12.0005L13.9966 17.1425V6.8584L23.0895 12.0005Z" fill="white"/>
</svg>
