<svg width="24" height="24" viewBox="0 0 24 24" fill="none" xmlns="http://www.w3.org/2000/svg">
<rect width="24" height="24" rx="2" fill="white"/>
<path d="M19.6348 19.631H16.4722V14.6695C16.4722 13.4864 16.4511 11.9634 14.8274 11.9634C13.1802 11.9634 12.9281 13.2524 12.9281 14.5834V19.6306H9.76562V9.42789H12.8016V10.8222H12.8442C13.4624 9.76339 14.616 9.12865 15.8398 9.17417C19.0451 9.17417 19.6362 11.2862 19.6362 14.0339L19.6348 19.631Z" fill="#FF5F00"/>
<path d="M6.19896 8.03631C6.19877 8.03631 6.19868 8.03631 6.19858 8.03631C5.19176 8.03631 4.36328 7.20647 4.36328 6.19789C4.36328 5.18931 5.19176 4.35938 6.19858 4.35938C7.2053 4.35938 8.03369 5.18912 8.03388 6.19751C8.03388 6.1976 8.03388 6.1977 8.03388 6.19789C8.03388 7.20628 7.20559 8.03622 6.19896 8.03631Z" fill="#FF5F00"/>
<path d="M7.78109 19.6328H4.61523V9.42969H7.78109V19.6328Z" fill="#FF5F00"/>
</svg>
