<svg width="24" height="24" viewBox="0 0 24 24" fill="none" xmlns="http://www.w3.org/2000/svg">
<g id="remix-icons/line/media/skip-forward-mini-line" clip-path="url(#clip0_1206_5197)">
<g id="Group">
<path id="Vector" d="M13.032 11.5353L10 9.39527V13.6753L13.032 11.5353ZM8.5 17.0703C8.36739 17.0703 8.24021 17.0176 8.14645 16.9238C8.05268 16.8301 8 16.7029 8 16.5703V6.50028C7.99995 6.40866 8.02507 6.31878 8.07263 6.24047C8.12018 6.16216 8.18834 6.09842 8.26966 6.05622C8.35098 6.01401 8.44233 5.99496 8.53374 6.00114C8.62515 6.00732 8.71311 6.0385 8.788 6.09128L15.921 11.1273C15.9862 11.1735 16.0394 11.2346 16.0761 11.3056C16.1128 11.3766 16.132 11.4554 16.132 11.5353C16.132 11.6152 16.1128 11.6939 16.0761 11.7649C16.0394 11.8359 15.9862 11.8971 15.921 11.9433L8.788 16.9793C8.70368 17.0386 8.60309 17.0704 8.5 17.0703Z" fill="#171717"/>
</g>
</g>
<defs>
<clipPath id="clip0_1206_5197">
<rect width="24" height="24" fill="white"/>
</clipPath>
</defs>
</svg>
