<svg width="24" height="24" viewBox="0 0 24 24" fill="none" xmlns="http://www.w3.org/2000/svg">
<g clip-path="url(#clip0_1206_5182)">
<path d="M14.132 13.6753V9.39527L11.1 11.5353L14.132 13.6753ZM8.21097 11.9433C8.14576 11.8971 8.09257 11.8359 8.05586 11.7649C8.01916 11.6939 8 11.6152 8 11.5353C8 11.4554 8.01916 11.3766 8.05586 11.3056C8.09257 11.2346 8.14576 11.1735 8.21097 11.1273L15.344 6.09128C15.4189 6.0385 15.5068 6.00732 15.5982 6.00114C15.6896 5.99496 15.781 6.01401 15.8623 6.05622C15.9436 6.09842 16.0118 6.16216 16.0593 6.24047C16.1069 6.31878 16.132 6.40866 16.132 6.50028V16.5703C16.132 16.6619 16.1069 16.7518 16.0593 16.8301C16.0118 16.9084 15.9436 16.9721 15.8623 17.0143C15.781 17.0565 15.6896 17.0756 15.5982 17.0694C15.5068 17.0632 15.4189 17.032 15.344 16.9793L8.21097 11.9433Z" fill="#171717"/>
</g>
<defs>
<clipPath id="clip0_1206_5182">
<rect width="24" height="24" fill="white"/>
</clipPath>
</defs>
</svg>
