<svg width="192" height="108" viewBox="0 0 192 108" fill="none" xmlns="http://www.w3.org/2000/svg">
<path d="M7.82578 2.80745V0.0537109H15.5658V2.80745H22.194V6.47504C22.194 7.96563 21.4655 8.57486 19.9706 8.57486H2.84406C1.34912 8.57486 0.620605 7.96563 0.620605 6.47504V2.80745H7.82578ZM1.38702 14.2326C1.38702 11.5195 3.07146 9.4156 6.63825 9.4156H16.6775C20.2401 9.4156 21.8908 11.5195 21.8908 14.2326V17.6362C21.8908 20.2722 20.2443 22.4898 16.6775 22.4898H6.63825C3.07567 22.4898 1.38702 20.2722 1.38702 17.6362V14.2326ZM2.88196 23.4808H30.6667V35.1009C30.6667 36.628 29.7487 37.5094 28.178 37.5094H5.37072C3.79998 37.5094 2.87775 36.6321 2.87775 35.1009V23.4808H2.88196ZM12.8075 15.3414H10.7399C9.93554 15.3414 9.16912 15.378 9.16912 16.105C9.16912 16.832 9.93554 16.9823 10.7399 16.9823H12.8075C13.6118 16.9823 14.1087 16.8279 14.1087 16.105C14.1087 15.382 13.6118 15.3414 12.8075 15.3414ZM22.8846 31.547V29.4472H10.6219V31.547H22.8846ZM30.6667 8.69265H35.7243V13.0507C35.7243 14.6185 34.7262 15.3049 33.0418 15.3049H30.6667V19.8132C30.6667 21.381 29.5171 22.4126 27.7148 22.4126H22.8846V2.38505H30.6625V8.69265H30.6667Z" fill="#F70035"/>
<path d="M63.2396 33.6466C63.2396 35.9007 61.6689 37.4685 59.2559 37.4685H56.843V20.5359H55.4617C55.0406 25.2351 53.352 28.9839 50.4421 31.697C47.0311 34.9828 42.8916 36.8552 38.1036 37.3548V31.165C41.0556 30.5923 43.6623 29.2926 45.8436 27.2659C48.0292 25.2392 49.1409 21.3807 49.1409 15.6864V8.38775H48.1429V14.8091C48.1429 20.2759 47.187 24.0207 45.2667 26.0474C43.3507 28.0741 40.9377 29.451 38.0615 30.1739V23.6755C39.1733 23.253 40.0534 22.4529 40.7061 21.2669C41.3588 20.081 41.6662 18.0583 41.6662 15.1909V8.38775H40.2092C38.9838 8.38775 38.0994 7.50639 38.0994 6.01986V2.46194H55.6133V14.2323H56.8388V2.38477H63.2396V33.6466ZM64.1197 2.38477H70.6722V32.9967C70.6722 34.1827 70.2511 35.2143 69.4089 36.0916C68.5667 37.0095 67.4928 37.4685 66.1495 37.4685H64.1197V2.38477Z" fill="#F70035"/>
<path d="M116.619 16.8317C116.619 18.3995 115.469 19.4311 113.667 19.4311H108.837V13.9643H105.236C104.929 13.9643 104.659 13.9277 104.394 13.8505C103.741 14.7319 102.937 15.4955 102.057 16.1453C98.9535 18.3995 94.0097 19.5083 87.2256 19.5083V13.5825C94.3929 13.5825 98.5703 12.0919 98.5703 8.69237V8.38775H89.6048C88.3794 8.38775 87.2298 7.50639 87.2298 6.01986V2.46194H106.698V6.12952C106.698 6.81593 106.66 7.46578 106.584 8.07907H108.845V2.38477H116.623V16.8317H116.619ZM114.471 31.3152H96.6121V32.3469H116.922V35.3646C116.922 36.8552 116.156 37.5051 114.661 37.5051H91.0914C89.5964 37.5051 88.83 36.8552 88.83 35.3646V26.4211H108.795V25.426H90.8977C89.4027 25.426 88.75 24.8899 88.75 23.3993V20.3044H116.611V29.2845C116.611 30.7751 115.958 31.3112 114.463 31.3112L114.471 31.3152Z" fill="#F70035"/>
<path d="M153.137 32.5423C153.137 33.9557 152.641 35.1011 151.68 36.0596C150.72 37.0141 149.571 37.5136 148.156 37.5136H145.36V21.9579H142.947V31.3604C142.947 34.9142 140.685 37.3593 137.123 37.3593H129.88C126.317 37.3593 124.056 34.9142 124.056 31.3604V8.27041C124.056 4.63937 126.317 2.27148 129.88 2.27148H137.123C140.685 2.27148 142.947 4.63937 142.947 8.27041V15.8005H145.36V2.38521H153.137V32.5423ZM133.211 31.3929H133.788C134.592 31.3929 135.169 31.0476 135.169 29.4799V10.1428C135.169 8.49785 134.592 8.22979 133.788 8.22979H133.211C132.406 8.22979 131.829 8.49785 131.829 10.1428V29.4839C131.829 31.0517 132.402 31.3969 133.211 31.3969V31.3929Z" fill="#F70035"/>
<path d="M165.282 31.4698V24.8942H172.946V31.4698H176.93V24.8942H184.594V31.4698H191.378V34.5648C191.378 36.2828 190.153 37.3916 188.351 37.3916H161.753C160.027 37.3916 158.726 36.2828 158.726 34.5648V31.4698H165.278H165.282ZM187.664 22.0308C186.363 23.2939 184.75 23.9032 182.872 23.9032H167.009C165.131 23.9032 163.522 23.2939 162.179 22.0308C160.877 20.7676 160.225 19.2039 160.225 17.3316V8.92414C160.225 7.05176 160.877 5.484 162.179 4.22492C163.522 2.96177 165.131 2.35254 167.009 2.35254H182.872C184.75 2.35254 186.359 2.96583 187.664 4.22492C189.003 5.48806 189.656 7.05176 189.656 8.92414V17.3316C189.656 19.2039 189.003 20.7717 187.664 22.0308ZM170.382 17.9042H179.503C181.225 17.9042 181.764 17.1001 181.764 15.841V10.4147C181.764 9.07848 181.23 8.35146 179.503 8.35146H170.382C168.66 8.35146 168.121 9.07848 168.121 10.4147V15.841C168.121 17.1041 168.655 17.9042 170.382 17.9042Z" fill="#F70035"/>
<path fill-rule="evenodd" clip-rule="evenodd" d="M98.3481 64.2588H86.3792L82.0838 77.2923C81.9625 77.6284 81.8574 78.2509 81.7521 78.8744C81.6564 79.4413 81.5605 80.0089 81.4522 80.3629C81.3476 79.9967 81.2421 79.4432 81.1365 78.8893C81.0126 78.2391 80.8886 77.5883 80.7658 77.2395L76.2389 64.2588H64.3257L75.6662 93.3923L74.2344 97.2061C73.489 99.5862 72.9163 99.9314 71.7119 99.9314H68.162V104.489C68.162 106.125 69.4801 107.214 71.3708 107.214H73.089C74.7523 107.214 76.4115 106.966 78.0159 106.471C79.6793 105.975 80.7658 105.431 81.3974 104.785C82.3702 103.843 83.0566 103.099 83.343 102.653C83.6293 102.206 83.9157 101.56 84.202 100.719L98.3481 64.2588Z" fill="#F70035"/>
<path fill-rule="evenodd" clip-rule="evenodd" d="M161.753 73.4694L177.048 53.3525H163.989L150.699 72.0316V53.3525H139.072V96.2629H146.117C148.581 96.2629 150.699 94.8251 150.699 92.7943V75.1062L165.476 96.2629H178.193L161.753 73.4694Z" fill="#F70035"/>
<path fill-rule="evenodd" clip-rule="evenodd" d="M59.9218 53.3519V92.7937C59.9218 94.8244 57.8036 96.2622 55.3401 96.2622H48.2949V76.0479C48.2949 75.8976 48.2949 75.5036 48.3539 74.9066C48.4129 74.2608 48.4129 73.8668 48.4129 73.6678L48.1855 74.7075C48.1265 75.2518 48.0128 75.6498 47.9581 75.796L42.4036 89.7678C41.772 91.4046 40.3402 92.3428 38.3357 92.3428H32.7813L26.2499 75.4955C26.174 75.2992 26.0981 74.902 26.0176 74.4806C25.9149 73.943 25.8046 73.3659 25.6772 73.1154C25.7361 73.4119 25.7361 73.9074 25.7361 74.5532V92.7855C25.7361 94.8163 23.618 96.2541 21.1545 96.2541H14.0967V53.3438H26.9826L37.005 78.0177L46.9727 53.3438H59.9176L59.9218 53.3519Z" fill="#F70035"/>
<path fill-rule="evenodd" clip-rule="evenodd" d="M130.537 53.3029V57.9615C130.537 59.8948 129.45 60.6868 127.214 60.6868H113.124L112.379 68.7124C113.351 67.9692 115.129 67.2747 117.706 67.2747C126.583 67.2747 131.682 72.575 131.682 81.7419C131.682 91.4531 126.069 96.656 116.274 96.656C111.979 96.656 108.429 95.5675 105.565 93.3377C102.761 91.1566 101.27 88.0373 101.097 83.9717H112.265C112.665 87.1925 114.842 89.2721 116.274 89.2721C118.792 89.2721 120.456 86.7458 120.456 81.7419C120.456 79.6096 119.997 77.8266 119.083 76.3888C118.224 74.951 117.306 74.2565 116.447 74.2565C114.842 74.2565 113.069 75.2962 112.438 77.725H101.725L103.388 53.2988H130.537V53.3029Z" fill="#F70035"/>
</svg>
