<svg width="162" height="29" viewBox="0 0 162 29" fill="none" xmlns="http://www.w3.org/2000/svg">
<path d="M2.60622 5.0022V4H5.40589V5.0022H7.80343V6.33698C7.80343 6.87947 7.53992 7.1012 6.99917 7.1012H0.804258C0.263516 7.1012 0 6.87947 0 6.33698V5.0022H2.60622ZM0.277225 9.16029C0.277225 8.17287 0.886511 7.40718 2.17667 7.40718H5.80802C7.09666 7.40718 7.69376 8.17287 7.69376 9.16029V10.399C7.69376 11.3583 7.09818 12.1654 5.80802 12.1654H2.17667C0.888034 12.1654 0.277225 11.3583 0.277225 10.399V9.16029ZM0.817967 12.5261H10.8681V16.7551C10.8681 17.3109 10.5361 17.6317 9.96792 17.6317H1.71819C1.15003 17.6317 0.816443 17.3124 0.816443 16.7551V12.5261H0.817967ZM4.40819 9.56383H3.66029C3.36935 9.56383 3.09213 9.57713 3.09213 9.84172C3.09213 10.1063 3.36935 10.161 3.66029 10.161H4.40819C4.69912 10.161 4.87886 10.1048 4.87886 9.84172C4.87886 9.57861 4.69912 9.56383 4.40819 9.56383ZM8.05324 15.4617V14.6975H3.61764V15.4617H8.05324ZM10.8681 7.14406H12.6975V8.73014C12.6975 9.30071 12.3365 9.55052 11.7272 9.55052H10.8681V11.1913C10.8681 11.7619 10.4523 12.1373 9.80037 12.1373H8.05324V4.84847H10.8666V7.14406H10.8681Z" fill="#F70035"/>
<path d="M22.6503 16.2261C22.6503 17.0465 22.0821 17.6171 21.2093 17.6171H20.3365V11.4546H19.8369C19.6846 13.1648 19.0738 14.5292 18.0212 15.5166C16.7874 16.7124 15.2901 17.3938 13.5582 17.5757V15.3229C14.626 15.1145 15.5688 14.6415 16.3579 13.9039C17.1484 13.1663 17.5505 11.762 17.5505 9.68963V7.03337H17.1895V9.37035C17.1895 11.36 16.8438 12.7228 16.1492 13.4604C15.4561 14.198 14.5833 14.6991 13.543 14.9623V12.5972C13.9451 12.4435 14.2634 12.1523 14.4995 11.7206C14.7356 11.289 14.8468 10.5529 14.8468 9.5093V7.03337H14.3198C13.8766 7.03337 13.5567 6.7126 13.5567 6.17159V4.87672H19.8917V9.16045H20.335V4.84863H22.6503V16.2261ZM22.9686 4.84863H25.3387V15.9896C25.3387 16.4212 25.1864 16.7967 24.8818 17.116C24.5771 17.45 24.1887 17.6171 23.7028 17.6171H22.9686V4.84863Z" fill="#F70035"/>
<path d="M41.9582 10.1065C41.9582 10.6771 41.5424 11.0525 40.8904 11.0525H39.1433V9.06289H37.841C37.7298 9.06289 37.6323 9.04959 37.5363 9.0215C37.3002 9.34227 37.0093 9.62016 36.6909 9.85667C35.5683 10.6771 33.7801 11.0806 31.3262 11.0806V8.92394C33.9187 8.92394 35.4297 8.38146 35.4297 7.14423V7.03337H32.1868C31.7435 7.03337 31.3277 6.7126 31.3277 6.17159V4.87672H38.3695V6.2115C38.3695 6.46131 38.3558 6.69782 38.3284 6.92103H39.1464V4.84863H41.9597V10.1065H41.9582ZM41.1814 15.3776H34.7214V15.7531H42.0679V16.8514C42.0679 17.3938 41.7907 17.6304 41.2499 17.6304H32.7245C32.1837 17.6304 31.9065 17.3938 31.9065 16.8514V13.5964H39.1281V13.2343H32.6544C32.1137 13.2343 31.8776 13.0392 31.8776 12.4967V11.3703H41.9552V14.6385C41.9552 15.181 41.7191 15.3761 41.1783 15.3761L41.1814 15.3776Z" fill="#F70035"/>
<path d="M55.1678 15.8234C55.1678 16.3378 54.988 16.7547 54.6407 17.1035C54.2934 17.4509 53.8776 17.6327 53.3658 17.6327H52.3544V11.9713H51.4816V15.3933C51.4816 16.6867 50.6636 17.5765 49.375 17.5765H46.755C45.4664 17.5765 44.6484 16.6867 44.6484 15.3933V6.9899C44.6484 5.66841 45.4664 4.80664 46.755 4.80664H49.375C50.6636 4.80664 51.4816 5.66841 51.4816 6.9899V9.73042H52.3544V4.84803H55.1678V15.8234ZM47.9599 15.4051H48.1686C48.4595 15.4051 48.6682 15.2795 48.6682 14.7089V7.67133C48.6682 7.07267 48.4595 6.97511 48.1686 6.97511H47.9599C47.669 6.97511 47.4603 7.07267 47.4603 7.67133V14.7104C47.4603 15.2809 47.6674 15.4066 47.9599 15.4066V15.4051Z" fill="#F70035"/>
<path d="M59.5611 15.4339V13.0407H62.3333V15.4339H63.7743V13.0407H66.5466V15.4339H69.0005V16.5603C69.0005 17.1855 68.5572 17.5891 67.9053 17.5891H58.2846C57.6601 17.5891 57.1895 17.1855 57.1895 16.5603V15.4339H59.5596H59.5611ZM67.657 11.9986C67.1863 12.4584 66.6029 12.6801 65.9236 12.6801H60.1856C59.5063 12.6801 58.9244 12.4584 58.4385 11.9986C57.9678 11.5389 57.7317 10.9698 57.7317 10.2884V7.22859C57.7317 6.54716 57.9678 5.97658 58.4385 5.51835C58.9244 5.05864 59.5063 4.83691 60.1856 4.83691H65.9236C66.6029 4.83691 67.1848 5.06012 67.657 5.51835C68.1414 5.97806 68.3775 6.54716 68.3775 7.22859V10.2884C68.3775 10.9698 68.1414 11.5404 67.657 11.9986ZM61.4057 10.4968H64.705C65.328 10.4968 65.523 10.2041 65.523 9.74591V7.77108C65.523 7.28476 65.3295 7.02017 64.705 7.02017H61.4057C60.7827 7.02017 60.5877 7.28476 60.5877 7.77108V9.74591C60.5877 10.2056 60.7812 10.4968 61.4057 10.4968Z" fill="#F70035"/>
<path fill-rule="evenodd" clip-rule="evenodd" d="M120.641 5.71489H114.441L112.216 12.5076C112.153 12.6828 112.099 13.0073 112.044 13.3322C111.995 13.6276 111.945 13.9235 111.889 14.1079C111.835 13.9171 111.78 13.6286 111.726 13.34C111.661 13.0011 111.597 12.6619 111.534 12.4801L109.189 5.71489H103.018L108.892 20.8986L108.15 22.8862C107.764 24.1267 107.468 24.3066 106.844 24.3066H105.005V26.6816C105.005 27.5347 105.688 28.102 106.667 28.102H107.557C108.419 28.102 109.278 27.9729 110.109 27.7146C110.971 27.4564 111.534 27.1727 111.861 26.8362C112.365 26.3451 112.72 25.9577 112.868 25.7248C113.017 25.492 113.165 25.1554 113.313 24.7173L120.641 5.71489Z" fill="#F70035"/>
<path fill-rule="evenodd" clip-rule="evenodd" d="M153.483 10.5137L161.405 0.0292969H154.641L147.757 9.76439V0.0292969H141.734V22.3931H145.384C146.66 22.3931 147.757 21.6438 147.757 20.5854V11.3668L155.411 22.3931H161.999L153.483 10.5137Z" fill="#F70035"/>
<path fill-rule="evenodd" clip-rule="evenodd" d="M100.736 0.0281569V20.5842C100.736 21.6426 99.6391 22.392 98.3631 22.392H94.7138V11.8567C94.7138 11.7784 94.7138 11.5731 94.7443 11.2619C94.7749 10.9254 94.7749 10.7201 94.7749 10.6163L94.6571 11.1582C94.6265 11.4419 94.5676 11.6493 94.5393 11.7255L91.6622 19.0072C91.335 19.8603 90.5933 20.3493 89.555 20.3493H86.6779L83.2947 11.5689C83.2554 11.4665 83.2161 11.2596 83.1744 11.0399L83.1744 11.0399C83.1212 10.7597 83.0641 10.459 82.9981 10.3284C83.0286 10.483 83.0286 10.7412 83.0286 11.0778V11.0778V20.58C83.0286 21.6384 81.9314 22.3877 80.6554 22.3877H76.9995V0.0239258H83.6743L88.8657 12.8834L94.0289 0.0239258H100.734L100.736 0.0281569Z" fill="#F70035"/>
<path fill-rule="evenodd" clip-rule="evenodd" d="M137.314 0.00211888V2.43007C137.314 3.43766 136.751 3.85043 135.593 3.85043H128.294L127.908 8.0332C128.412 7.64582 129.333 7.28385 130.667 7.28385C135.266 7.28385 137.907 10.0463 137.907 14.8238C137.907 19.8851 135 22.5967 129.926 22.5967C127.701 22.5967 125.862 22.0294 124.379 20.8673C122.926 19.7305 122.154 18.1049 122.064 15.986H127.849C128.056 17.6646 129.184 18.7484 129.926 18.7484C131.23 18.7484 132.092 17.4317 132.092 14.8238C132.092 13.7125 131.854 12.7833 131.381 12.0339C130.936 11.2846 130.46 10.9226 130.015 10.9226C129.184 10.9226 128.266 11.4645 127.939 12.7303H122.389L123.251 0H137.314V0.00211888Z" fill="#F70035"/>
</svg>
