<svg width="88" height="70" viewBox="0 0 88 70" fill="none" xmlns="http://www.w3.org/2000/svg">
<g clip-path="url(#clip0_6108_53496)">
<path d="M59 64H58C55.79 64 54 62.21 54 60V54H36V60C36 62.21 34.21 64 32 64H31C30.45 64 30 64.45 30 65V69C30 69.55 30.45 70 31 70H59C59.55 70 60 69.55 60 69V65C60 64.45 59.55 64 59 64Z" fill="#FFD500"/>
<path d="M59 64H31C30.4477 64 30 64.4477 30 65V69C30 69.5523 30.4477 70 31 70H59C59.5523 70 60 69.5523 60 69V65C60 64.4477 59.5523 64 59 64Z" fill="#FF5F00"/>
<path d="M84 2H4C2.89543 2 2 2.89543 2 4V50C2 51.1046 2.89543 52 4 52H84C85.1046 52 86 51.1046 86 50V4C86 2.89543 85.1046 2 84 2Z" fill="#FF8200"/>
<path d="M84 4V50H4V4H84ZM84 0H4C1.79 0 0 1.79 0 4V50C0 52.21 1.79 54 4 54H84C86.21 54 88 52.21 88 50V4C88 1.79 86.21 0 84 0Z" fill="#FF5F00"/>
<path d="M17 43L39 23L49 33L73 9" fill="#FF8200"/>
<path d="M17 42.9992L39 22.9992L49 32.9992L67.05 14.9492" stroke="#FFD500" stroke-width="8" stroke-miterlimit="10"/>
<path d="M59.2598 9L72.9998 22.74V9H59.2598Z" fill="#FFD500"/>
</g>
<defs>
<clipPath id="clip0_6108_53496">
<rect width="88" height="70" fill="white"/>
</clipPath>
</defs>
</svg>
