<svg width="84" height="76" viewBox="0 0 84 76" fill="none" xmlns="http://www.w3.org/2000/svg">
<g clip-path="url(#clip0_6108_53533)">
<path d="M80 6H4V60H80V6Z" fill="#FF5F00"/>
<path d="M39 0H45C45.55 0 46 0.45 46 1V6H38V1C38 0.45 38.45 0 39 0Z" fill="#FFD500"/>
<path d="M25.2203 76H19.2803C18.6303 76 18.1503 75.39 18.3103 74.76L22.0003 60H30.0003L26.1903 75.24C26.0803 75.69 25.6803 76 25.2203 76Z" fill="#FFD500"/>
<path d="M62 60H54L57.81 75.24C57.92 75.69 58.32 76 58.78 76H64.72C65.37 76 65.85 75.39 65.69 74.76L62 60Z" fill="#FFD500"/>
<path d="M83 6H1C0.447715 6 0 6.44772 0 7V11C0 11.5523 0.447715 12 1 12H83C83.5523 12 84 11.5523 84 11V7C84 6.44772 83.5523 6 83 6Z" fill="#FF8200"/>
<path d="M83 54H1C0.447715 54 0 54.4477 0 55V59C0 59.5523 0.447715 60 1 60H83C83.5523 60 84 59.5523 84 59V55C84 54.4477 83.5523 54 83 54Z" fill="#FF8200"/>
<path d="M68 18H58V50H68V18Z" fill="#FFD500"/>
<path d="M54 26H44V50H54V26Z" fill="#FFD500"/>
<path d="M40 34H30V50H40V34Z" fill="#FFD500"/>
<path d="M26 42H16V50H26V42Z" fill="#FFD500"/>
</g>
<defs>
<clipPath id="clip0_6108_53533">
<rect width="84" height="76" fill="white"/>
</clipPath>
</defs>
</svg>
