<svg width="88" height="64" viewBox="0 0 88 64" fill="none" xmlns="http://www.w3.org/2000/svg">
<g clip-path="url(#clip0_6108_53515)">
<path d="M16.2695 44C21.7924 44 26.2695 39.5228 26.2695 34C26.2695 28.4772 21.7924 24 16.2695 24C10.7467 24 6.26953 28.4772 6.26953 34C6.26953 39.5228 10.7467 44 16.2695 44Z" fill="#FFD500"/>
<path d="M3.35966 64.0001C1.24966 64.0001 -0.410342 62.0501 0.0896577 60.0001C1.87966 52.7301 8.44966 47.3301 16.2697 47.3301C24.0897 47.3301 30.6597 52.7201 32.4497 60.0001C32.9497 62.0501 31.2897 64.0001 29.1797 64.0001H3.35966Z" fill="#FFD500"/>
<path d="M71.7295 44C77.2523 44 81.7295 39.5228 81.7295 34C81.7295 28.4772 77.2523 24 71.7295 24C66.2066 24 61.7295 28.4772 61.7295 34C61.7295 39.5228 66.2066 44 71.7295 44Z" fill="#FF8200"/>
<path d="M58.8099 64.0001C56.6999 64.0001 55.0399 62.0501 55.5399 60.0001C57.3299 52.7301 63.8999 47.3301 71.7199 47.3301C79.5399 47.3301 86.1099 52.7201 87.8999 60.0001C88.3999 62.0501 86.7398 64.0001 84.6298 64.0001H58.7999H58.8099Z" fill="#FF8200"/>
<path d="M44 32C52.8366 32 60 24.8366 60 16C60 7.16344 52.8366 0 44 0C35.1634 0 28 7.16344 28 16C28 24.8366 35.1634 32 44 32Z" fill="#FF5F00"/>
<path d="M23.3297 63.9998C19.9497 63.9998 17.2997 60.8698 18.0997 57.5998C20.9697 45.9598 31.4697 37.3398 43.9897 37.3398C56.5097 37.3398 67.0197 45.9698 69.8797 57.5998C70.6897 60.8798 68.0297 63.9998 64.6497 63.9998H23.3297Z" fill="#FF5F00"/>
</g>
<defs>
<clipPath id="clip0_6108_53515">
<rect width="88" height="64" fill="white"/>
</clipPath>
</defs>
</svg>
