<svg width="453" height="277" viewBox="0 0 453 277" fill="none" xmlns="http://www.w3.org/2000/svg">
<g clip-path="url(#clip0_3_209)">
<path d="M17.11 6.78V0H35.49V6.78H51.23V15.81C51.23 19.48 49.5 20.98 45.95 20.98H5.28C1.73 20.98 0 19.48 0 15.81V6.78H17.11ZM1.82 34.91C1.82 28.23 5.82 23.05 14.29 23.05H38.13C46.59 23.05 50.51 28.23 50.51 34.91V43.29C50.51 49.78 46.6 55.24 38.13 55.24H14.29C5.83 55.24 1.82 49.78 1.82 43.29V34.91ZM5.37 57.68H71.35V86.29C71.35 90.05 69.17 92.22 65.44 92.22H11.28C7.55 92.22 5.36 90.06 5.36 86.29V57.68H5.37ZM28.94 37.64H24.03C22.12 37.64 20.3 37.73 20.3 39.52C20.3 41.31 22.12 41.68 24.03 41.68H28.94C30.85 41.68 32.03 41.3 32.03 39.52C32.03 37.74 30.85 37.64 28.94 37.64ZM52.87 77.54V72.37H23.75V77.54H52.87ZM71.35 21.27H83.36V32C83.36 35.86 80.99 37.55 76.99 37.55H71.35V48.65C71.35 52.51 68.62 55.05 64.34 55.05H52.87V5.74H71.34V21.27H71.35Z" fill="#CD123A"/>
<path d="M148.7 82.71C148.7 88.26 144.97 92.12 139.24 92.12H133.51V50.43H130.23C129.23 62 125.22 71.23 118.31 77.91C110.21 86 100.38 90.61 89.01 91.84V76.6C96.02 75.19 102.21 71.99 107.39 67C112.58 62.01 115.22 52.51 115.22 38.49V20.52H112.85V36.33C112.85 49.79 110.58 59.01 106.02 64C101.47 68.99 95.74 72.38 88.91 74.16V58.16C91.55 57.12 93.64 55.15 95.19 52.23C96.74 49.31 97.47 44.33 97.47 37.27V20.52H94.01C91.1 20.52 89 18.35 89 14.69V5.92999H130.59V34.91H133.5V5.73999H148.7V82.71ZM150.79 5.73999H166.35V81.11C166.35 84.03 165.35 86.57 163.35 88.73C161.35 90.99 158.8 92.12 155.61 92.12H150.79V5.73999Z" fill="#CD123A"/>
<path d="M275.46 41.31C275.46 45.17 272.73 47.71 268.45 47.71H256.98V34.25H248.43C247.7 34.25 247.06 34.16 246.43 33.97C244.88 36.14 242.97 38.02 240.88 39.62C233.51 45.17 221.77 47.9 205.66 47.9V33.31C222.68 33.31 232.6 29.64 232.6 21.27V20.52H211.31C208.4 20.52 205.67 18.35 205.67 14.69V5.92999H251.9V14.96C251.9 16.65 251.81 18.25 251.63 19.76H257V5.73999H275.47V41.31H275.46ZM270.36 76.97H227.95V79.51H276.18V86.94C276.18 90.61 274.36 92.21 270.81 92.21H214.84C211.29 92.21 209.47 90.61 209.47 86.94V64.92H256.88V62.47H214.38C210.83 62.47 209.28 61.15 209.28 57.48V49.86H275.44V71.97C275.44 75.64 273.89 76.96 270.34 76.96L270.36 76.97Z" fill="#CD123A"/>
<path d="M362.18 79.99C362.18 83.47 361 86.29 358.72 88.65C356.44 91 353.71 92.23 350.35 92.23H343.71V53.93H337.98V77.08C337.98 85.83 332.61 91.85 324.15 91.85H306.95C298.49 91.85 293.12 85.83 293.12 77.08V20.23C293.12 11.29 298.49 5.45996 306.95 5.45996H324.15C332.61 5.45996 337.98 11.29 337.98 20.23V38.77H343.71V5.73996H362.18V79.99ZM314.86 77.16H316.23C318.14 77.16 319.51 76.31 319.51 72.45V24.84C319.51 20.79 318.14 20.13 316.23 20.13H314.86C312.95 20.13 311.58 20.79 311.58 24.84V72.46C311.58 76.32 312.94 77.17 314.86 77.17V77.16Z" fill="#CD123A"/>
<path d="M391.02 77.35V61.16H409.22V77.35H418.68V61.16H436.88V77.35H452.99V84.97C452.99 89.2 450.08 91.93 445.8 91.93H382.64C378.54 91.93 375.45 89.2 375.45 84.97V77.35H391.01H391.02ZM444.17 54.11C441.08 57.22 437.25 58.72 432.79 58.72H395.12C390.66 58.72 386.84 57.22 383.65 54.11C380.56 51 379.01 47.15 379.01 42.54V21.84C379.01 17.23 380.56 13.37 383.65 10.27C386.84 7.16003 390.66 5.66003 395.12 5.66003H432.79C437.25 5.66003 441.07 7.17003 444.17 10.27C447.35 13.38 448.9 17.23 448.9 21.84V42.54C448.9 47.15 447.35 51.01 444.17 54.11ZM403.13 43.95H424.79C428.88 43.95 430.16 41.97 430.16 38.87V25.51C430.16 22.22 428.89 20.43 424.79 20.43H403.13C399.04 20.43 397.76 22.22 397.76 25.51V38.87C397.76 41.98 399.03 43.95 403.13 43.95Z" fill="#CD123A"/>
<path d="M257.4 244.35C245.72 244.35 235.79 241.11 227.88 234.73C219.73 228.16 215.35 218.79 214.86 206.88C214.79 205.11 215.44 203.39 216.67 202.11C217.9 200.83 219.59 200.11 221.36 200.11H247.88C251.17 200.11 253.94 202.57 254.33 205.83C254.82 209.88 256.8 212.3 257.8 213.06C259.14 212.41 260.83 208.57 260.83 201.12C260.83 197.12 260.06 193.83 258.53 191.35C258.5 191.3 258.47 191.24 258.44 191.19C257.87 190.21 257.41 189.63 257.12 189.31C255.99 189.67 255.07 190.93 254.6 192.82C253.88 195.71 251.28 197.74 248.29 197.74H222.85C221.05 197.74 219.33 197 218.11 195.68C216.89 194.36 216.25 192.6 216.37 190.81L220.32 130.67C220.54 127.25 223.38 124.6 226.81 124.6H291.28C294.87 124.6 297.78 127.51 297.78 131.1V142.57C297.78 150.84 292.4 155.78 283.39 155.78H255.87L255.55 159.38C257.23 159.13 258.99 159 260.81 159C273 159 283.12 162.95 290.07 170.42C296.89 177.75 300.5 188.37 300.5 201.12C300.5 228.18 284.39 244.34 257.41 244.34L257.4 244.35Z" fill="white"/>
<path d="M291.26 131.1V142.57C291.26 147.33 288.68 149.28 283.37 149.28H249.91L248.14 169.04C250.45 167.21 254.67 165.5 260.79 165.5C281.87 165.5 293.98 178.55 293.98 201.12C293.98 225.03 280.65 237.84 257.39 237.84C247.19 237.84 238.76 235.16 231.96 229.67C225.3 224.3 221.76 216.62 221.35 206.61H247.87C248.82 214.54 253.99 219.66 257.39 219.66C263.37 219.66 267.32 213.44 267.32 201.12C267.32 195.87 266.23 191.48 264.06 187.94C262.02 184.4 259.84 182.69 257.8 182.69C253.99 182.69 249.78 185.25 248.28 191.23H222.84L226.79 131.09H291.26M291.26 118.1H226.79C219.94 118.1 214.27 123.41 213.82 130.25L209.87 190.39C209.7 193.05 210.34 195.67 211.69 197.91C209.42 200.43 208.22 203.74 208.36 207.14C208.92 220.81 214.26 232.1 223.8 239.79C232.88 247.12 244.19 250.84 257.39 250.84C272.37 250.84 284.88 246.29 293.56 237.67C302.34 228.96 306.98 216.32 306.98 201.12C306.98 185.92 302.77 174.55 294.81 165.99C293.29 164.36 291.65 162.87 289.9 161.52C292.85 160.79 295.42 159.52 297.59 157.72C300.63 155.2 304.26 150.53 304.26 142.56V131.09C304.26 123.91 298.44 118.09 291.26 118.09V118.1Z" fill="#CD123A"/>
<path d="M95.95 243.37C92.36 243.37 89.45 240.46 89.45 236.87V219.46L88.01 223.22C85.57 229.78 79.68 233.74 72.28 233.74H59.09C56.38 233.74 53.95 232.06 53 229.52L48.86 218.44V228.34C48.86 236.77 41.23 243.38 31.48 243.38H14.75C11.16 243.38 8.25 240.47 8.25 236.88V131.23C8.25 127.64 11.16 124.73 14.75 124.73H45.35C48.02 124.73 50.43 126.37 51.4 128.86L69.13 174.12L86.76 128.87C87.73 126.37 90.14 124.73 92.82 124.73H123.56C127.15 124.73 130.06 127.64 130.06 131.23V228.34C130.06 236.77 122.43 243.38 112.68 243.38H95.95V243.37Z" fill="white"/>
<path d="M123.57 131.23V228.34C123.57 233.34 118.54 236.88 112.69 236.88H95.96V187.11C95.96 186.74 95.96 185.77 96.1 184.3C96.24 182.71 96.24 181.74 96.24 181.25L95.7 183.81C95.56 185.15 95.29 186.13 95.16 186.49L81.97 220.89C80.47 224.92 77.07 227.23 72.31 227.23H59.12L43.61 185.75C43.2 184.65 42.79 180.99 42.25 179.89C42.39 180.62 42.39 181.84 42.39 183.43V228.32C42.39 233.32 37.36 236.86 31.51 236.86H14.75V131.21H45.35L69.15 191.96L92.82 131.21H123.56M123.57 118.23H92.83C87.47 118.23 82.66 121.52 80.72 126.51L69.13 156.26L57.47 126.49C55.52 121.51 50.72 118.23 45.37 118.23H14.75C7.57 118.23 1.75 124.05 1.75 131.23V236.88C1.75 244.06 7.57 249.88 14.75 249.88H31.48C40.76 249.88 48.65 245.33 52.62 238.52C54.55 239.63 56.77 240.25 59.09 240.25H72.28C76.16 240.25 79.79 239.41 82.98 237.85C83.47 244.58 89.09 249.89 95.95 249.89H112.68C126.07 249.89 136.56 240.43 136.56 228.35V131.24C136.56 124.06 130.74 118.24 123.56 118.24L123.57 118.23Z" fill="#CD123A"/>
<path d="M150.76 270.33C142.58 270.33 136.64 264.77 136.64 257.12V245.9C136.64 242.31 139.55 239.4 143.14 239.4H150.63C150.81 238.93 151.05 238.26 151.34 237.31C151.37 237.2 151.41 237.09 151.45 236.98L154.03 229.84L127.94 160.35C127.19 158.35 127.47 156.12 128.68 154.36C129.89 152.6 131.89 151.56 134.02 151.56H162.31C165.1 151.56 167.58 153.34 168.47 155.99L174.51 173.95L180.19 156.09C181.05 153.39 183.55 151.56 186.38 151.56H214.81C216.94 151.56 218.94 152.6 220.15 154.36C221.36 156.11 221.64 158.35 220.9 160.34L187.35 250.01C186.51 252.54 185.65 254.51 184.7 256.03C184.11 256.99 182.89 258.69 179.21 262.39C176.9 264.81 173.47 266.66 168.45 268.21C164.08 269.61 159.48 270.33 154.83 270.33H150.75H150.76Z" fill="white"/>
<path d="M214.83 158.06L181.23 247.85C180.55 249.92 179.87 251.51 179.19 252.61C178.51 253.71 176.88 255.54 174.57 257.86C173.07 259.45 170.49 260.79 166.54 262.01C162.73 263.23 158.79 263.84 154.84 263.84H150.76C146.27 263.84 143.14 261.16 143.14 257.13V245.91H151.57C154.43 245.91 155.79 245.06 157.56 239.2L160.96 229.81L134.03 158.08H162.32L173.07 190.04C173.61 191.63 174.16 195.77 174.7 197.73C175.24 195.9 175.65 191.75 176.2 190.17L186.4 158.08H214.83M214.83 145.06H186.4C181.08 145.06 176.34 148.29 174.36 153.15C172.38 148.28 167.63 145.06 162.32 145.06H134.03C129.77 145.06 125.77 147.15 123.34 150.66C120.91 154.17 120.36 158.64 121.86 162.63L147.11 229.88L146.02 232.9H143.15C135.97 232.9 130.15 238.72 130.15 245.9V257.12C130.15 268.36 139.01 276.83 150.77 276.83H154.85C160.15 276.83 165.39 276.01 170.45 274.4C176.51 272.52 180.78 270.14 183.88 266.93C187.11 263.69 189.02 261.45 190.26 259.44C191.46 257.51 192.52 255.13 193.51 252.17L227.02 162.61C228.51 158.62 227.96 154.15 225.53 150.65C223.1 147.15 219.11 145.06 214.85 145.06H214.83Z" fill="#CD123A"/>
<path d="M374.23 243.37C372.07 243.37 370.05 242.29 368.84 240.5L345.64 206.06V228.33C345.64 236.76 338.01 243.37 328.26 243.37H311.53C307.94 243.37 305.03 240.46 305.03 236.87V131.22C305.03 127.63 307.94 124.72 311.53 124.72H339.14C342.73 124.72 345.64 127.63 345.64 131.22V156.25L365.34 127.54C366.55 125.77 368.56 124.72 370.7 124.72H401.71C404.16 124.72 406.4 126.1 407.51 128.28C408.62 130.46 408.4 133.09 406.95 135.06L373.38 180.85L409.77 233.16C411.15 235.15 411.32 237.74 410.19 239.88C409.07 242.03 406.85 243.37 404.43 243.37H374.23Z" fill="white"/>
<path d="M401.71 131.23L365.39 180.76L404.43 236.88H374.23L339.14 184.79V228.34C339.14 233.34 334.11 236.88 328.26 236.88H311.53V131.23H339.14V177.22L370.7 131.23H401.71ZM401.71 118.23H370.69C366.4 118.23 362.39 120.34 359.97 123.88L352.13 135.3V131.23C352.13 124.05 346.31 118.23 339.13 118.23H311.52C304.34 118.23 298.52 124.05 298.52 131.23V236.88C298.52 244.06 304.34 249.88 311.52 249.88H328.25C341.64 249.88 352.13 240.42 352.13 228.34V227.35L363.44 244.14C365.86 247.73 369.9 249.88 374.22 249.88H404.42C409.26 249.88 413.7 247.19 415.94 242.9C418.18 238.61 417.85 233.43 415.09 229.46L381.36 180.97L412.05 139.11C413.71 136.93 414.7 134.2 414.7 131.24C414.7 124.06 408.88 118.24 401.7 118.24L401.71 118.23Z" fill="#CD123A"/>
<path d="M123.56 132.25H103.06V214H123.56V132.25Z" fill="white"/>
<path d="M226.46 137.082L223.328 189.499L243.791 190.721L246.924 138.305L226.46 137.082Z" fill="white"/>
</g>
<defs>
<clipPath id="clip0_3_209">
<rect width="453" height="276.83" fill="white"/>
</clipPath>
</defs>
</svg>
