<svg width="40" height="40" viewBox="0 0 40 40" fill="none" xmlns="http://www.w3.org/2000/svg">
<circle cx="20" cy="20" r="20" fill="#1D9BF0"/>
<circle cx="20" cy="20" r="19.5" stroke="white" stroke-opacity="0.15"/>
<path d="M17.0292 28.563C24.2268 28.563 28.1632 22.6 28.1632 17.4291C28.1632 17.2594 28.1599 17.0906 28.1518 16.9234C28.9156 16.3707 29.5803 15.6816 30.1038 14.8976C29.4025 15.2093 28.6477 15.4187 27.8564 15.5136C28.664 15.0291 29.2849 14.2629 29.577 13.349C28.8206 13.797 27.9838 14.1233 27.0926 14.2986C26.3784 13.5381 25.3614 13.0625 24.2365 13.0625C22.0751 13.0625 20.3228 14.8148 20.3228 16.9754C20.3228 17.2822 20.3569 17.5809 20.4243 17.8674C17.1721 17.7042 14.2883 16.1467 12.3583 13.7792C12.0223 14.3571 11.8283 15.0291 11.8283 15.7458C11.8283 17.1036 12.519 18.3016 13.57 19.0028C12.928 18.9834 12.325 18.8064 11.7974 18.5134C11.7966 18.5297 11.7966 18.5459 11.7966 18.5629C11.7966 20.4581 13.1456 22.0408 14.936 22.3995C14.6073 22.4888 14.2615 22.5375 13.9044 22.5375C13.652 22.5375 13.4069 22.5123 13.1691 22.4669C13.6674 24.022 15.1121 25.1526 16.8247 25.185C15.4855 26.2345 13.7981 26.8602 11.9646 26.8602C11.6489 26.8602 11.3372 26.8424 11.0312 26.8059C12.7633 27.9154 14.8191 28.5639 17.03 28.5639" fill="white"/>
</svg>
