<svg width="40" height="40" viewBox="0 0 40 40" fill="none" xmlns="http://www.w3.org/2000/svg">
<circle cx="20" cy="20" r="20" fill="#FF0000"/>
<circle cx="20" cy="20" r="19.5" stroke="white" stroke-opacity="0.25"/>
<path d="M29.9844 15.1914C29.7443 14.2945 29.0395 13.5897 28.1426 13.3496C26.5169 12.9141 20.0021 12.9141 20.0021 12.9141C20.0021 12.9141 13.4873 12.9141 11.8633 13.3496C10.9664 13.5897 10.2616 14.2945 10.0215 15.1914C9.58594 16.8154 9.58594 20.2057 9.58594 20.2057C9.58594 20.2057 9.58594 23.596 10.0215 25.22C10.2616 26.1169 10.9664 26.8217 11.8633 27.0618C13.4873 27.4974 20.0021 27.4974 20.0021 27.4974C20.0021 27.4974 26.5169 27.4974 28.1409 27.0618C29.0378 26.8217 29.7426 26.1169 29.9827 25.22C30.4183 23.596 30.4183 20.2057 30.4183 20.2057C30.4183 20.2057 30.4183 16.8154 29.9827 15.1914H29.9844ZM17.9185 23.3302V17.0812L23.3307 20.2057L17.9185 23.3302V23.3302Z" fill="white"/>
</svg>
