<svg width="8" height="8" viewBox="0 0 8 8" fill="none" xmlns="http://www.w3.org/2000/svg">
<path d="M5.41511 4.00011L7.53511 1.88011C7.92511 1.49011 7.92511 0.855107 7.53511 0.465107C7.14511 0.0751074 6.51011 0.0751074 6.12011 0.465107L4.00011 2.58511L1.88011 0.465107C1.49011 0.0751074 0.855107 0.0751074 0.465107 0.465107C0.0751074 0.855107 0.0751074 1.49011 0.465107 1.88011L2.58511 4.00011L0.465107 6.12011C0.0751074 6.51011 0.0751074 7.14511 0.465107 7.53511C0.855107 7.92511 1.49011 7.92511 1.88011 7.53511L4.00011 5.41511L6.12011 7.53511C6.51011 7.92511 7.14511 7.92511 7.53511 7.53511C7.92511 7.14511 7.92511 6.51011 7.53511 6.12011L5.41511 4.00011Z" fill="white"/>
</svg>
