<svg width="36" height="23" viewBox="0 0 36 23" fill="none" xmlns="http://www.w3.org/2000/svg">
<mask id="mask0_5116_4051" style="mask-type:alpha" maskUnits="userSpaceOnUse" x="0" y="0" width="36" height="23">
<rect width="36" height="23" fill="#D9D9D9"/>
</mask>
<g mask="url(#mask0_5116_4051)">
<path d="M33.2642 7.31036C33.2462 5.3548 31.5852 3.72798 29.6071 3.72959C27.629 3.73119 25.9688 5.3548 25.9565 7.31278C25.9442 9.27075 27.6609 10.9506 29.6332 10.9145C31.635 10.8783 33.2813 9.24503 33.2642 7.31036ZM22.0984 17.3896C22.0976 17.0979 22.0378 16.8093 21.9225 16.5406C21.8072 16.2719 21.6388 16.0284 21.4269 15.8244C21.2151 15.6203 20.9641 15.4598 20.6886 15.352C20.4131 15.2443 20.1185 15.1916 19.8221 15.1969C19.2302 15.2087 18.6664 15.4479 18.2515 15.8634C17.8366 16.2789 17.6035 16.8377 17.6022 17.4201C17.613 18.0028 17.854 18.5583 18.2743 18.969C18.6945 19.3797 19.2608 19.6132 19.8531 19.62C20.1497 19.6195 20.4432 19.5613 20.7168 19.4488C20.9905 19.3362 21.2387 19.1716 21.4474 18.9643C21.6561 18.757 21.821 18.5111 21.9327 18.2409C22.0445 17.9706 22.1008 17.6813 22.0984 17.3896V17.3896ZM4.6405 12.4866C4.92611 12.4868 5.20894 12.4314 5.47268 12.3236C5.73643 12.2158 5.97587 12.0577 6.17722 11.8585C6.37857 11.6592 6.53783 11.4227 6.64584 11.1626C6.75384 10.9025 6.80844 10.6239 6.8065 10.343C6.80104 9.78223 6.57318 9.24575 6.17147 8.84788C5.76977 8.45 5.226 8.22219 4.65603 8.213C4.07891 8.21277 3.52512 8.4371 3.11551 8.83704C2.70589 9.23699 2.47371 9.78008 2.46961 10.3478C2.46755 10.6291 2.52225 10.908 2.63053 11.1684C2.73882 11.4288 2.89856 11.6655 3.10047 11.8647C3.30238 12.0639 3.54246 12.2217 3.80681 12.3291C4.07116 12.4364 4.35453 12.491 4.6405 12.4898V12.4866ZM29.6226 1C32.9031 1.05224 35.659 3.51498 35.9678 6.70674C36.2783 9.91296 34.078 12.8596 30.8694 13.4753C30.2648 13.5918 29.6259 13.5331 29.0033 13.5693C28.8529 13.5773 28.6765 13.5974 28.5629 13.6818C27.2485 14.6801 25.9413 15.6888 24.6411 16.708C24.5332 16.7932 24.467 16.9998 24.4776 17.1461C24.5593 18.9947 23.7864 20.411 22.1899 21.3353C20.5934 22.2596 18.9552 22.2194 17.3955 21.2549C16.1993 20.513 15.4648 19.4215 15.2916 18.0165C15.2532 17.7095 15.1281 17.5624 14.8397 17.441C12.4076 16.4047 9.9802 15.3571 7.55738 14.2983C7.32942 14.1994 7.15538 14.1802 6.92171 14.3128C6.08559 14.7889 5.11813 14.9934 4.157 14.8973C3.19586 14.8012 2.29003 14.4093 1.5684 13.7775C0.839093 13.1432 0.330781 12.2996 0.115266 11.3657C-0.100248 10.4318 -0.0120675 9.45497 0.367343 8.57308C0.752204 7.69322 1.40698 6.9537 2.24011 6.45794C3.07324 5.96219 4.04305 5.73499 5.0139 5.80813C6.1587 5.89926 7.228 6.40643 8.01343 7.2308C8.79887 8.05518 9.24417 9.1377 9.26256 10.2674C9.26256 10.5648 9.36795 10.6806 9.62287 10.7891C11.9427 11.7793 14.2577 12.7789 16.5678 13.7879C16.8129 13.8956 16.9763 13.8755 17.1879 13.7236C18.228 12.9753 19.3891 12.7189 20.6628 12.9199C20.7357 12.9215 20.808 12.9065 20.8739 12.8759C20.9399 12.8454 20.9977 12.8001 21.0428 12.7438C21.8206 11.565 22.5854 10.3781 23.337 9.18314C23.4145 9.0344 23.4348 8.86317 23.3942 8.70088C22.5559 5.35802 24.7906 1.90986 28.2524 1.18647C28.7018 1.09243 29.1651 1.06269 29.6226 1.00321V1Z" fill="white"/>
</g>
</svg>
