<svg width="20" height="23" viewBox="0 0 20 23" fill="none" xmlns="http://www.w3.org/2000/svg">
<mask id="mask0_5116_4049" style="mask-type:alpha" maskUnits="userSpaceOnUse" x="0" y="0" width="20" height="23">
<rect width="20" height="23" fill="#D9D9D9"/>
</mask>
<g mask="url(#mask0_5116_4049)">
<path d="M17.9787 7.40902C14.7239 10.0055 15.0364 14.228 18.5385 16.2891C17.9883 18.1027 17.0241 19.7547 15.7264 21.1073C14.6068 22.2449 13.7736 22.4055 12.322 21.7765C11.6417 21.4563 10.9024 21.2906 10.1543 21.2906C9.40615 21.2906 8.66686 21.4563 7.98664 21.7765C6.56106 22.4055 5.72129 22.2917 4.67978 21.1073C1.84165 17.9086 0.390098 14.1946 1.24284 9.83816C1.45022 8.54575 2.11128 7.37635 3.10096 6.55132C4.09064 5.72629 5.34024 5.3029 6.61315 5.3613C7.20796 5.39063 7.7916 5.53836 8.33166 5.79628C8.8255 6.03919 9.36596 6.16528 9.91342 6.16528C10.4609 6.16528 11.0014 6.03919 11.4953 5.79628C13.8191 4.77242 16.1039 5.23416 17.5881 6.92051C17.7183 7.06773 17.8289 7.22834 17.9787 7.40902Z" fill="white"/>
<path d="M13.9708 0.0141502C14.6217 2.18232 12.1482 5.18696 9.86986 4.95274C9.08872 2.99203 11.7966 -0.240141 13.9708 0.0141502Z" fill="white"/>
</g>
</svg>
