<svg width="27" height="23" viewBox="0 0 27 23" fill="none" xmlns="http://www.w3.org/2000/svg">
<path d="M0.55345 16.75C-0.469526 17.5 -0.128534 18.9062 2.03108 19.5625C4.24753 20.375 6.69131 20.5937 9.04984 20.1562C9.19192 20.1562 9.30558 20.0938 9.39083 20.0938V17.5625L7.08913 18.375C6.20824 18.6562 5.32734 18.75 4.44644 18.5312C3.76446 18.3125 3.90654 17.875 4.70219 17.5L9.39083 15.7187V12.9688L2.91198 15.4062C2.11633 15.7187 1.29227 16.1562 0.55345 16.75ZM16.2107 5.625V12.8125C18.967 14.2812 21.1266 12.8125 21.1266 8.96875C21.1266 5.03125 19.8479 3.25 16.1254 1.84375C14.1647 1.09375 12.1472 0.4375 10.1296 0V21.4375L14.8467 23V4.96875C14.8467 4.15625 14.8467 3.5625 15.3866 3.78125C16.1254 4 16.2107 4.8125 16.2107 5.625ZM24.9628 15.0625C23.0021 14.3125 20.9277 14.0312 18.8818 14.25C17.802 14.3125 16.779 14.625 15.8413 15L15.6424 15.0625V17.9688L20.0184 16.1875C20.8993 15.9062 21.7802 15.8125 22.6611 16.0312C23.3431 16.25 23.201 16.6875 22.4054 17.0625L15.6708 19.8125V22.625L24.9628 18.8437C25.6448 18.5625 26.2415 18.1875 26.7814 17.5937C27.2645 16.8437 27.0656 15.7813 24.9628 15.0625Z" fill="white"/>
</svg>
