<svg width="453" height="255" viewBox="0 0 453 255" fill="none" xmlns="http://www.w3.org/2000/svg">
<path d="M17.11 6.53925V0H35.49V6.53925H51.23V15.2486C51.23 18.7883 49.5 20.235 45.95 20.235H5.28C1.73 20.235 0 18.7883 0 15.2486V6.53925H17.11ZM1.82 33.6704C1.82 27.2276 5.82 22.2315 14.29 22.2315H38.13C46.59 22.2315 50.51 27.2276 50.51 33.6704V41.7528C50.51 48.0124 46.6 53.2785 38.13 53.2785H14.29C5.83 53.2785 1.82 48.0124 1.82 41.7528V33.6704ZM5.37 55.6318H71.35V83.2259C71.35 86.8524 69.17 88.9454 65.44 88.9454H11.28C7.55 88.9454 5.36 86.8621 5.36 83.2259V55.6318H5.37ZM28.94 36.3034H24.03C22.12 36.3034 20.3 36.3902 20.3 38.1167C20.3 39.8431 22.12 40.2 24.03 40.2H28.94C30.85 40.2 32.03 39.8335 32.03 38.1167C32.03 36.3999 30.85 36.3034 28.94 36.3034ZM52.87 74.7866V69.8002H23.75V74.7866H52.87ZM71.35 20.5147H83.36V30.8637C83.36 34.5866 80.99 36.2166 76.99 36.2166H71.35V46.9225C71.35 50.6454 68.62 53.0952 64.34 53.0952H52.87V5.53618H71.34V20.5147H71.35Z" fill="white"/>
<path d="M148.7 79.773C148.7 85.1259 144.97 88.8489 139.24 88.8489H133.51V48.6392H130.23C129.23 59.7984 125.22 68.7006 118.31 75.1434C110.21 82.9462 100.38 87.3925 89.0102 88.5788V73.88C96.0202 72.52 102.21 69.4337 107.39 64.6208C112.58 59.808 115.22 50.6454 115.22 37.1232V19.7913H112.85V35.0399C112.85 48.022 110.58 56.9146 106.02 61.7274C101.47 66.5402 95.7402 69.8098 88.9102 71.5266V56.0947C91.5502 55.0917 93.6402 53.1916 95.1902 50.3753C96.7402 47.559 97.4702 42.7558 97.4702 35.9465V19.7913H94.0102C91.1002 19.7913 89.0002 17.6984 89.0002 14.1683V5.71939H130.59V33.6703H133.5V5.53613H148.7V79.773ZM150.79 5.53613H166.35V78.2298C166.35 81.0461 165.35 83.4959 163.35 85.5792C161.35 87.759 158.8 88.8489 155.61 88.8489H150.79V5.53613Z" fill="white"/>
<path d="M275.46 39.8431C275.46 43.566 272.73 46.0158 268.45 46.0158H256.98V33.0338H248.43C247.7 33.0338 247.06 32.947 246.43 32.7637C244.88 34.8567 242.97 36.6699 240.88 38.2131C233.51 43.566 221.77 46.1991 205.66 46.1991V32.1271C222.68 32.1271 232.6 28.5875 232.6 20.5147V19.7913H211.31C208.4 19.7913 205.67 17.6984 205.67 14.1683V5.71939H251.9V14.4287C251.9 16.0587 251.81 17.6019 251.63 19.0583H257V5.53613H275.47V39.8431H275.46ZM270.36 74.2368H227.95V76.6866H276.18V83.8528C276.18 87.3925 274.36 88.9357 270.81 88.9357H214.84C211.29 88.9357 209.47 87.3925 209.47 83.8528V62.6147H256.88V60.2517H214.38C210.83 60.2517 209.28 58.9786 209.28 55.4389V48.0895H275.44V69.4144C275.44 72.954 273.89 74.2272 270.34 74.2272L270.36 74.2368Z" fill="white"/>
<path d="M362.179 77.1491C362.179 80.5056 360.999 83.2254 358.719 85.5016C356.439 87.7682 353.709 88.9545 350.349 88.9545H343.709V52.0145H337.979V74.3425C337.979 82.7818 332.609 88.588 324.149 88.588H306.949C298.489 88.588 293.119 82.7818 293.119 74.3425V19.5112C293.119 10.8886 298.489 5.26562 306.949 5.26562H324.149C332.609 5.26562 337.979 10.8886 337.979 19.5112V37.3928H343.709V5.53568H362.179V77.1491ZM314.859 74.4196H316.229C318.139 74.4196 319.509 73.5998 319.509 69.8769V23.9575C319.509 20.0513 318.139 19.4147 316.229 19.4147H314.859C312.949 19.4147 311.579 20.0513 311.579 23.9575V69.8865C311.579 73.6095 312.939 74.4293 314.859 74.4293V74.4196Z" fill="white"/>
<path d="M391.019 74.6033V58.9882H409.219V74.6033H418.679V58.9882H436.879V74.6033H452.989V81.9528C452.989 86.0326 450.079 88.6656 445.799 88.6656H382.639C378.539 88.6656 375.449 86.0326 375.449 81.9528V74.6033H391.009H391.019ZM444.169 52.1886C441.079 55.1881 437.249 56.6349 432.789 56.6349H395.119C390.659 56.6349 386.839 55.1881 383.649 52.1886C380.559 49.189 379.009 45.4757 379.009 41.0294V21.0644C379.009 16.6181 380.559 12.8952 383.649 9.90529C386.839 6.90572 390.659 5.45898 395.119 5.45898H432.789C437.249 5.45898 441.069 6.91537 444.169 9.90529C447.349 12.9049 448.899 16.6181 448.899 21.0644V41.0294C448.899 45.4757 447.349 49.1986 444.169 52.1886ZM403.129 42.3893H424.789C428.879 42.3893 430.159 40.4796 430.159 37.4897V24.6041C430.159 21.431 428.889 19.7045 424.789 19.7045H403.129C399.039 19.7045 397.759 21.431 397.759 24.6041V37.4897C397.759 40.4893 399.029 42.3893 403.129 42.3893Z" fill="white"/>
<path fill-rule="evenodd" clip-rule="evenodd" d="M200.072 152.467H171.649L161.449 183.417C161.161 184.215 160.911 185.694 160.661 187.174C160.434 188.52 160.206 189.868 159.949 190.709C159.701 189.839 159.45 188.525 159.2 187.21C158.905 185.666 158.611 184.12 158.319 183.292L147.569 152.467H119.279L146.209 221.65L142.809 230.706C141.039 236.358 139.679 237.178 136.819 237.178H128.389V248C128.389 251.887 131.519 254.471 136.009 254.471H140.089C144.039 254.471 147.979 253.883 151.789 252.706C155.739 251.53 158.319 250.237 159.819 248.704C162.129 246.466 163.759 244.701 164.439 243.64C165.119 242.579 165.799 241.046 166.479 239.049L200.072 152.467Z" fill="white"/>
<path fill-rule="evenodd" clip-rule="evenodd" d="M350.64 174.342L386.96 126.57H355.95L324.39 170.927V126.57H296.78V228.469H313.51C319.36 228.469 324.39 225.054 324.39 220.232V178.228L359.48 228.469H389.68L350.64 174.342Z" fill="white"/>
<path fill-rule="evenodd" clip-rule="evenodd" d="M108.82 220.232V126.57L108.81 126.551H78.07L54.4 185.144L30.6 126.551H0V228.449H16.76C22.61 228.449 27.64 225.035 27.64 220.212V176.916C27.64 175.383 27.64 174.206 27.5 173.502C27.8027 174.097 28.0645 175.467 28.3084 176.744C28.4997 177.745 28.6798 178.688 28.86 179.154L44.37 219.161H57.56C62.32 219.161 65.72 216.933 67.22 213.046L80.41 179.868C80.54 179.521 80.81 178.575 80.95 177.283L81.49 174.814C81.49 175.286 81.49 176.222 81.35 177.756C81.21 179.173 81.21 180.109 81.21 180.466V228.469H97.94C103.79 228.469 108.82 225.054 108.82 220.232Z" fill="white"/>
<path fill-rule="evenodd" clip-rule="evenodd" d="M276.511 137.508V126.445V126.436H212.041L208.091 184.44H233.531C235.031 178.672 239.241 176.203 243.051 176.203C245.091 176.203 247.271 177.853 249.311 181.267C251.481 184.681 252.571 188.915 252.571 193.979C252.571 205.861 248.621 211.861 242.641 211.861C239.241 211.861 234.071 206.922 233.121 199.274H206.601C207.011 208.928 210.551 216.336 217.211 221.515C224.011 226.81 232.441 229.395 242.641 229.395C265.901 229.395 279.231 217.04 279.231 193.979C279.231 172.21 267.121 159.624 246.041 159.624C239.921 159.624 235.701 161.273 233.391 163.038L235.161 143.98H268.621C273.931 143.98 276.511 142.099 276.511 137.508Z" fill="white"/>
</svg>
