<svg width="24" height="24" viewBox="0 0 24 24" fill="none" xmlns="http://www.w3.org/2000/svg">
<g id="chevron-down">
<path id="Vector" d="M12.0051 13.175L15.9051 9.275C16.0884 9.09167 16.3217 9 16.6051 9C16.8884 9 17.1217 9.09167 17.3051 9.275C17.4884 9.45833 17.5801 9.69167 17.5801 9.975C17.5801 10.2583 17.4884 10.4917 17.3051 10.675L12.7051 15.275C12.6051 15.375 12.4967 15.4458 12.3801 15.4875C12.2634 15.5292 12.1384 15.55 12.0051 15.55C11.8717 15.55 11.7467 15.5292 11.6301 15.4875C11.5134 15.4458 11.4051 15.375 11.3051 15.275L6.70508 10.675C6.52174 10.4917 6.43008 10.2583 6.43008 9.975C6.43008 9.69167 6.52174 9.45833 6.70508 9.275C6.88841 9.09167 7.12175 9 7.40508 9C7.68841 9 7.92174 9.09167 8.10508 9.275L12.0051 13.175Z" fill="#464646"/>
</g>
</svg>
