<svg width="24" height="24" viewBox="0 0 24 24" fill="none" xmlns="http://www.w3.org/2000/svg">
<path fill-rule="evenodd" clip-rule="evenodd" d="M16.2727 7.83623C15.1057 7.31178 13.8375 7.00794 12.5578 7.00015C10.9148 6.99024 9.28533 7.46882 7.86127 8.27803C6.43721 9.08865 5.21423 10.2221 4.22168 11.517C4.12007 11.6494 4.01702 11.7924 4.00199 11.958C3.98196 12.1754 4.11649 12.3743 4.24888 12.5492C4.98902 13.5238 5.86905 14.3856 6.84931 15.085L9.18062 13.2917C9.01315 12.8629 8.92493 12.3939 8.93397 11.9035C8.96975 9.98564 10.6207 8.44935 12.6093 8.48404C13.344 8.49687 14.0223 8.73733 14.5802 9.13815L16.2727 7.83623ZM18.1412 8.92217L15.8128 10.7133C15.988 11.15 16.0807 11.6293 16.0714 12.1308C16.0364 14.0416 14.3747 15.5885 12.3947 15.5517C11.6485 15.5378 10.9609 15.2899 10.3986 14.878L8.72703 16.1639C10.6089 17.0037 12.7195 17.2668 14.8528 16.6957C17.2672 16.0501 19.3776 14.4614 20.8066 12.4309C20.8703 12.3403 20.9347 12.2433 20.9705 12.14H20.9698C20.9913 12.0784 21.0027 12.0147 20.9984 11.9495C20.9884 11.7973 20.8939 11.6656 20.8009 11.5439C20.0443 10.5525 19.1538 9.65456 18.1412 8.92217Z" fill="#D1D1D1"/>
<path fill-rule="evenodd" clip-rule="evenodd" d="M13.1663 10.2261C12.9684 10.1544 12.7556 10.1148 12.5344 10.1138C11.4682 10.1088 10.5866 10.9605 10.5801 12.0019C10.5797 12.0714 10.5831 12.1401 10.59 12.2078L13.1663 10.2261ZM11.8088 13.7935C12.0185 13.8742 12.2458 13.9189 12.4829 13.9198C13.5456 13.9233 14.4208 13.0695 14.4279 12.0218V12.0225C14.4285 11.9435 14.424 11.8655 14.4149 11.7888L11.8088 13.7935Z" fill="#D1D1D1"/>
<path fill-rule="evenodd" clip-rule="evenodd" d="M19.7927 6.39034C20.1294 6.82809 20.0475 7.45594 19.6098 7.79267L6.60976 17.7927C6.17201 18.1294 5.54416 18.0475 5.20743 17.6098C4.87069 17.172 4.95258 16.5442 5.39034 16.2074L18.3903 6.20743C18.8281 5.87069 19.4559 5.95258 19.7927 6.39034Z" fill="#D1D1D1" stroke="#D1D1D1" stroke-linecap="round"/>
<path fill-rule="evenodd" clip-rule="evenodd" d="M20.189 6.08551C20.6941 6.74214 20.5713 7.68391 19.9146 8.18901L6.91464 18.189C6.25801 18.6941 5.31624 18.5713 4.81114 17.9146C4.30604 17.258 4.42888 16.3162 5.08551 15.8111L18.0855 5.81114C18.7421 5.30604 19.6839 5.42888 20.189 6.08551ZM19.6098 7.7927C20.0475 7.45596 20.1294 6.82812 19.7927 6.39036C19.456 5.95261 18.8281 5.87072 18.3904 6.20745L5.39036 16.2075C4.95261 16.5442 4.87072 17.172 5.20745 17.6098C5.54418 18.0475 6.17203 18.1294 6.60979 17.7927L19.6098 7.7927Z" fill="white"/>
</svg>
