<svg width="14" height="14" viewBox="0 0 14 14" fill="none" xmlns="http://www.w3.org/2000/svg">
<g id="warning-fill">
<path id="Vector" d="M6.33165 2.71981L1.85323 10.504C1.55704 11.0214 1.92727 11.6666 2.52262 11.6666H11.4765C12.0689 11.6666 12.4421 11.0214 12.1459 10.504L7.66747 2.71981C7.37128 2.20245 6.62784 2.20245 6.33165 2.71981Z" fill="#DA1E27"/>
<path id="Vector_2" d="M7.54932 6.60614C7.54932 7.02564 7.54932 7.44514 7.54932 7.86464C7.5458 8.38638 7.17708 8.66839 6.67842 8.52739C6.45719 8.46393 6.31672 8.31235 6.27107 8.08321C6.25702 8.00918 6.25 7.93162 6.25 7.85407C6.25 7.02564 6.25 6.19722 6.25 5.36879C6.25 5.19253 6.27107 5.0198 6.39398 4.87879C6.59766 4.64612 6.86454 4.63555 7.12792 4.70253C7.37725 4.76598 7.52825 4.95634 7.53527 5.21368C7.54932 5.67549 7.54932 6.18737 7.54932 6.64917L7.54229 6.60262L7.54932 6.60614Z" fill="white"/>
<path id="Vector_3" d="M6.89654 10.6988C6.54186 10.6988 6.25742 10.4133 6.25391 10.0572C6.25391 9.70823 6.54537 9.40858 6.89303 9.40506C7.2442 9.40153 7.5462 9.7047 7.54269 10.0607C7.54269 10.4168 7.25473 10.6953 6.89654 10.6953V10.6988Z" fill="white"/>
</g>
</svg>
