<svg width="25" height="25" viewBox="0 0 25 25" fill="none" xmlns="http://www.w3.org/2000/svg">
<path d="M18.2614 11.8448L15.1153 8.61324C14.9869 8.48134 14.9253 8.32745 14.9307 8.15159C14.936 7.97572 15.0029 7.82184 15.1313 7.68994C15.2597 7.56903 15.4096 7.50582 15.5808 7.50033C15.752 7.49483 15.9018 7.55804 16.0302 7.68994L20.2678 12.0426C20.332 12.1086 20.3775 12.18 20.4042 12.257C20.431 12.3339 20.4443 12.4164 20.4443 12.5043C20.4443 12.5922 20.431 12.6747 20.4042 12.7516C20.3775 12.8285 20.332 12.9 20.2678 12.9659L16.0302 17.3186C15.9125 17.4395 15.7654 17.5 15.5888 17.5C15.4122 17.5 15.2597 17.4395 15.1313 17.3186C15.0029 17.1867 14.9387 17.0301 14.9387 16.8487C14.9387 16.6674 15.0029 16.5107 15.1313 16.3788L18.2614 13.1638L5.08639 13.1638C4.90448 13.1638 4.75199 13.1006 4.62893 12.9742C4.50587 12.8478 4.44434 12.6911 4.44434 12.5043C4.44434 12.3174 4.50587 12.1608 4.62893 12.0344C4.75199 11.908 4.90448 11.8448 5.08639 11.8448L18.2614 11.8448Z" fill="#171717" stroke="#171717" stroke-width="0.5"/>
</svg>
