<svg width="93" height="43" viewBox="0 0 93 43" fill="none" xmlns="http://www.w3.org/2000/svg">
<path d="M18 32H8C11.0968 36.6444 9.29032 41.2685 8 43C13.9355 42.5111 17.1398 35.463 18 32Z" fill="#F70035"/>
<rect width="93" height="36" rx="10" fill="#F70035"/>
<path d="M21.6406 14.8438H23.6094V16.2969H21.6406V19.7812H19.9062V11.2656H21.6406V14.8438ZM10.5156 12.625H13.8438V11.1719H15.5781V12.625H18.8906V14.0156H10.5156V12.625ZM11.2344 17.0625C11.2344 16.5677 11.3802 16.1276 11.6719 15.7422C11.9635 15.3568 12.3698 15.0599 12.8906 14.8516C13.4167 14.638 14.0208 14.5312 14.7031 14.5312C15.3802 14.5312 15.9792 14.638 16.5 14.8516C17.0208 15.0599 17.4271 15.3568 17.7188 15.7422C18.0104 16.1276 18.1562 16.5677 18.1562 17.0625C18.1562 17.5625 18.0104 18.0052 17.7188 18.3906C17.4271 18.7708 17.0182 19.0677 16.4922 19.2812C15.9714 19.4896 15.375 19.5938 14.7031 19.5938C14.0208 19.5938 13.4167 19.4896 12.8906 19.2812C12.3698 19.0677 11.9635 18.7708 11.6719 18.3906C11.3802 18.0052 11.2344 17.5625 11.2344 17.0625ZM12.5156 20.4531H21.6406V25.2188H12.5156V20.4531ZM12.9219 17.0625C12.9167 17.4531 13.0755 17.7578 13.3984 17.9766C13.7214 18.1901 14.1562 18.2969 14.7031 18.2969C15.25 18.2969 15.6849 18.1901 16.0078 17.9766C16.3359 17.7578 16.5 17.4531 16.5 17.0625C16.5 16.6823 16.3359 16.3854 16.0078 16.1719C15.6797 15.9531 15.2448 15.8438 14.7031 15.8438C14.1615 15.8438 13.7266 15.9531 13.3984 16.1719C13.0755 16.3854 12.9167 16.6823 12.9219 17.0625ZM19.9219 23.8125V21.8281H14.2344V23.8125H19.9219ZM27.8125 12.9219C27.8073 14.1667 27.7422 15.3125 27.6172 16.3594C27.4974 17.401 27.2708 18.4245 26.9375 19.4297C26.6094 20.4297 26.1458 21.3698 25.5469 22.25L24.1875 21.5156C24.9219 20.4792 25.4427 19.388 25.75 18.2422C26.0625 17.0964 26.2474 15.7917 26.3047 14.3281H24.5938V12.9219H27.8125ZM27.375 22.2812C27.9115 21.5104 28.3281 20.6979 28.625 19.8438C28.9271 18.9844 29.1354 18.1146 29.25 17.2344C29.3698 16.3542 29.4427 15.3854 29.4688 14.3281H28.2344V12.9219H30.9688C30.9635 13.6562 30.9505 14.3177 30.9297 14.9062C30.9089 15.4948 30.8672 16.0729 30.8047 16.6406H32.2344V11.6094H33.875V24.7188H32.2344V18.0469H30.6172C30.2786 19.9792 29.6406 21.6406 28.7031 23.0312L27.375 22.2812ZM34.9375 11.2656H36.6094V25.3906H34.9375V11.2656ZM53.7812 18.4062H52.0469V15.8281H49.3125V14.4062H52.0469V11.2656H53.7812V18.4062ZM42.1406 17.3594C43.7083 17.0052 44.9245 16.474 45.7891 15.7656C46.6536 15.0573 47.1536 14.2188 47.2891 13.25H42.9219V11.8438H49.1562C49.1615 13.6302 48.6146 15.1016 47.5156 16.2578C46.4219 17.4141 44.8281 18.2448 42.7344 18.75L42.1406 17.3594ZM44.4844 18.9688H53.7812V22.6875H46.2344V23.8594H54.1562V25.25H44.5V21.3906H52.0469V20.3438H44.4844V18.9688ZM59.6406 12.2969C60.2708 12.2969 60.8411 12.4661 61.3516 12.8047C61.862 13.1432 62.2786 13.6276 62.6016 14.2578C62.9245 14.8828 63.1276 15.6198 63.2109 16.4688H65.9062V11.2656H67.625V25.4062H65.9062V17.875H63.2266C63.1641 18.7708 62.974 19.5521 62.6562 20.2188C62.3385 20.8802 61.9193 21.3906 61.3984 21.75C60.8776 22.1042 60.2917 22.2812 59.6406 22.2812C58.9323 22.2812 58.3021 22.0781 57.75 21.6719C57.2031 21.2604 56.776 20.6771 56.4688 19.9219C56.1667 19.1667 56.0156 18.2865 56.0156 17.2812C56.0156 16.2812 56.1667 15.4062 56.4688 14.6562C56.776 13.901 57.2057 13.3203 57.7578 12.9141C58.3099 12.5026 58.9375 12.2969 59.6406 12.2969ZM57.6875 17.2812C57.6875 17.9948 57.7682 18.6094 57.9297 19.125C58.0911 19.6406 58.3177 20.0339 58.6094 20.3047C58.9062 20.5755 59.25 20.7135 59.6406 20.7188C60.0312 20.7135 60.375 20.5755 60.6719 20.3047C60.9688 20.0339 61.1979 19.6406 61.3594 19.125C61.526 18.6094 61.6094 17.9948 61.6094 17.2812C61.6094 16.5729 61.526 15.9609 61.3594 15.4453C61.1979 14.9297 60.9688 14.5365 60.6719 14.2656C60.375 13.9948 60.0312 13.8594 59.6406 13.8594C59.25 13.8594 58.9062 13.9974 58.6094 14.2734C58.3177 14.5443 58.0911 14.9375 57.9297 15.4531C57.7682 15.9635 57.6875 16.5729 57.6875 17.2812ZM82.5156 23.6719H69.6094V22.25H72.5938V18.6797C72.0208 18.3516 71.5755 17.9375 71.2578 17.4375C70.9453 16.9375 70.7917 16.3802 70.7969 15.7656C70.7969 15.026 71.0182 14.375 71.4609 13.8125C71.9089 13.2448 72.5312 12.8073 73.3281 12.5C74.125 12.1875 75.026 12.0312 76.0312 12.0312C77.0417 12.0312 77.9453 12.1875 78.7422 12.5C79.5443 12.8073 80.1693 13.2448 80.6172 13.8125C81.0703 14.375 81.2969 15.026 81.2969 15.7656C81.3021 16.3698 81.151 16.9167 80.8438 17.4062C80.5365 17.8958 80.1042 18.3073 79.5469 18.6406V22.25H82.5156V23.6719ZM72.5 15.7656C72.5 16.2396 72.6458 16.6562 72.9375 17.0156C73.2344 17.3698 73.6484 17.6432 74.1797 17.8359C74.7161 18.0286 75.3333 18.125 76.0312 18.125C76.7292 18.125 77.3464 18.0286 77.8828 17.8359C78.4245 17.6432 78.8438 17.3698 79.1406 17.0156C79.4427 16.6562 79.5938 16.2396 79.5938 15.7656C79.5938 15.2865 79.4427 14.8672 79.1406 14.5078C78.8438 14.1484 78.4245 13.875 77.8828 13.6875C77.3464 13.5 76.7292 13.4062 76.0312 13.4062C75.3281 13.4062 74.7083 13.5 74.1719 13.6875C73.6406 13.875 73.2292 14.1484 72.9375 14.5078C72.6458 14.862 72.5 15.2812 72.5 15.7656ZM77.7812 22.25V19.3047C77.2292 19.4245 76.6458 19.4844 76.0312 19.4844C75.4427 19.4844 74.8698 19.4271 74.3125 19.3125V22.25H77.7812Z" fill="white"/>
</svg>
