<svg width="16" height="16" viewBox="0 0 16 16" fill="none" xmlns="http://www.w3.org/2000/svg">
<g id="check-circle-fill">
<path id="Vector (Stroke)" fill-rule="evenodd" clip-rule="evenodd" d="M13.3391 8.00279C13.3391 10.9498 10.95 13.3388 8.00303 13.3388C5.05602 13.3388 2.66699 10.9498 2.66699 8.00279C2.66699 5.05578 5.05602 2.66675 8.00303 2.66675C10.95 2.66675 13.3391 5.05578 13.3391 8.00279Z" fill="#5B9DFF"/>
<path id="Union" fill-rule="evenodd" clip-rule="evenodd" d="M10.6127 7.31722C10.8835 7.04643 10.8835 6.60741 10.6127 6.33663C10.3419 6.06585 9.90291 6.06585 9.63213 6.33663L7.63611 8.33264L6.51766 7.21419C6.24687 6.94341 5.80785 6.94341 5.53707 7.21419C5.26629 7.48497 5.26629 7.92399 5.53707 8.19477L7.13952 9.79722C7.40045 10.0581 7.81759 10.0676 8.08989 9.82571C8.12189 9.80313 8.1524 9.77753 8.18103 9.74889L10.6127 7.31722Z" fill="white"/>
</g>
</svg>
