<svg width="24" height="24" viewBox="0 0 24 24" fill="none" xmlns="http://www.w3.org/2000/svg">
<g id="icon-park-outline:copy">
<g id="Group">
<path id="Vector" d="M8 7.72507V6.03107C8.0001 5.75758 8.10881 5.49532 8.30223 5.30197C8.49565 5.10862 8.75794 5 9.03143 5H17.9686C18.2421 5 18.5045 5.10867 18.6979 5.3021C18.8913 5.49553 19 5.75788 19 6.03143V14.9689C18.9999 15.2424 18.8912 15.5046 18.6979 15.6979C18.5046 15.8912 18.2424 15.9999 17.9689 16H16.2559" stroke="#747474" stroke-width="2" stroke-linecap="round" stroke-linejoin="round"/>
<path id="Vector_2" d="M14.9689 8H6.0307C5.75727 8.00019 5.49511 8.10895 5.30184 8.30236C5.10857 8.49577 5 8.75801 5 9.03143V17.9686C5 18.2421 5.10867 18.5045 5.3021 18.6979C5.49553 18.8913 5.75788 19 6.03143 19H14.9689C15.2424 18.9999 15.5046 18.8912 15.6979 18.6979C15.8912 18.5046 15.9999 18.2424 16 17.9689V9.0307C15.9998 8.75734 15.8911 8.49523 15.6978 8.30197C15.5044 8.10871 15.2423 8.0001 14.9689 8Z" stroke="#747474" stroke-width="2" stroke-linejoin="round"/>
</g>
</g>
</svg>
