<svg width="803" height="258" viewBox="0 0 803 258" fill="none" xmlns="http://www.w3.org/2000/svg">
<path d="M5.95155 90.7522C5.02029 90.7522 4.37557 90.3582 4.01739 89.5702C2.15487 85.1288 0.972878 82.0843 0.471429 80.4366C0.256522 79.6487 0.149069 79.0039 0.149069 78.5025C0.149069 77.6429 0.399793 76.9623 0.901242 76.4609C1.47433 75.9594 2.29814 75.4938 3.37267 75.064C6.38137 73.9894 9.31843 72.306 12.1839 70.0137C15.0493 67.6497 18.058 64.7843 21.2099 61.4174C27.5855 54.612 32.7433 48.0932 36.6832 41.8609C39.1188 37.9925 40.8023 34.4824 41.7335 31.3304C41.8768 30.7573 41.9485 30.3992 41.9485 30.2559C41.9485 29.253 41.2679 28.7515 39.9068 28.7515C39.2621 28.7515 38.7607 28.7874 38.4025 28.859C35.9669 29.2888 32.6358 30.2559 28.4093 31.7602C24.2545 33.193 20.8876 34.4466 18.3087 35.5211C16.7327 36.1658 15.4433 36.4882 14.4404 36.4882C13.1509 36.4882 11.8973 35.8793 10.6795 34.6615C10.3213 34.3033 9.53333 33.5153 8.31553 32.2975C7.16936 31.0081 6.13064 29.7186 5.19938 28.4292C4.98447 28.071 4.8412 27.7128 4.76957 27.3547C4.76957 26.9965 4.91284 26.7458 5.19938 26.6025C11.7182 23.2356 17.6998 20.7284 23.1441 19.0807C28.5884 17.3615 33.8894 16.2869 39.0472 15.8571C39.7636 15.7855 40.8023 15.7497 42.1634 15.7497C45.387 15.7497 48.0017 16.3586 50.0075 17.5764C52.0849 18.7226 54.1265 20.6925 56.1323 23.4863C57.4217 25.2772 58.0665 26.9607 58.0665 28.5366C58.0665 29.5395 57.8516 30.6857 57.4217 31.9751C56.4188 35.5569 54.413 39.6402 51.4044 44.2248C48.4673 48.7379 45.0646 52.9644 41.1963 56.9043C33.0298 65.0708 26.511 70.6942 21.6398 73.7745C37.5429 72.2702 49.3269 71.0524 56.9919 70.1211C57.9232 70.0495 58.6754 70.336 59.2485 70.9807C59.8215 71.6255 60.1081 72.3776 60.1081 73.2373C60.1081 73.8104 59.9648 74.3476 59.6783 74.8491C59.4634 75.2789 59.1052 75.6012 58.6037 75.8161C51.9416 78.6099 43.8468 81.3679 34.3193 84.0901C24.8634 86.7406 15.4791 88.9613 6.16646 90.7522H5.95155ZM75.7342 83.7677C72.6538 81.547 70.4331 78.6458 69.072 75.064C67.711 71.4822 67.0304 67.6139 67.0304 63.459C67.0304 61.3816 67.1021 59.8414 67.2453 58.8385C67.8184 53.824 69.3586 48.7379 71.8658 43.5801C74.4447 38.3507 77.525 33.5511 81.1068 29.1814C84.6886 24.8116 88.342 21.1582 92.0671 18.2211C94.2878 16.5735 96.795 15.7497 99.5888 15.7497C103.529 15.7497 107.254 17.3615 110.764 20.5851C115.205 24.6683 118.322 29.3963 120.112 34.7689C121.903 40.07 122.799 45.8725 122.799 52.1764C122.799 58.6952 121.545 64.1395 119.038 68.5093C116.602 72.8075 112.698 76.819 107.325 80.5441C100.162 85.4153 93.6789 87.8509 87.8764 87.8509C83.5783 87.8509 79.5308 86.4899 75.7342 83.7677ZM77.346 65.823C77.2027 66.8259 77.1311 67.5781 77.1311 68.0795C77.1311 70.1569 77.7758 71.7687 79.0652 72.9149C80.4263 74.0611 82.4321 74.6342 85.0826 74.6342C88.0197 74.6342 91.3507 73.8462 95.0758 72.2702C98.8008 70.6226 101.774 68.6884 103.994 66.4677C105.929 64.4619 107.397 61.9905 108.4 59.0534C109.403 56.1164 109.904 53.036 109.904 49.8124C109.904 47.0186 109.546 44.3323 108.83 41.7534C108.185 39.1745 107.254 36.9538 106.036 35.0913C104.747 33.0855 102.992 32.0826 100.771 32.0826C98.9083 32.0826 97.0458 32.8348 95.1832 34.3391C90.8851 38.0642 87.0526 43.0429 83.6857 49.2752C80.3188 55.5074 78.2056 61.0234 77.346 65.823ZM134.287 90.7522C133.356 90.7522 132.711 90.3582 132.353 89.5702C130.49 85.1288 129.308 82.0843 128.807 80.4366C128.592 79.6487 128.485 79.0039 128.485 78.5025C128.485 77.6429 128.735 76.9623 129.237 76.4609C129.81 75.9594 130.634 75.4938 131.708 75.064C134.717 73.9894 137.654 72.306 140.519 70.0137C143.385 67.6497 146.393 64.7843 149.545 61.4174C155.921 54.612 161.079 48.0932 165.019 41.8609C167.454 37.9925 169.138 34.4824 170.069 31.3304C170.212 30.7573 170.284 30.3992 170.284 30.2559C170.284 29.253 169.603 28.7515 168.242 28.7515C167.598 28.7515 167.096 28.7874 166.738 28.859C164.302 29.2888 160.971 30.2559 156.745 31.7602C152.59 33.193 149.223 34.4466 146.644 35.5211C145.068 36.1658 143.779 36.4882 142.776 36.4882C141.486 36.4882 140.233 35.8793 139.015 34.6615C138.657 34.3033 137.869 33.5153 136.651 32.2975C135.505 31.0081 134.466 29.7186 133.535 28.4292C133.32 28.071 133.177 27.7128 133.105 27.3547C133.105 26.9965 133.248 26.7458 133.535 26.6025C140.054 23.2356 146.035 20.7284 151.48 19.0807C156.924 17.3615 162.225 16.2869 167.383 15.8571C168.099 15.7855 169.138 15.7497 170.499 15.7497C173.722 15.7497 176.337 16.3586 178.343 17.5764C180.42 18.7226 182.462 20.6925 184.468 23.4863C185.757 25.2772 186.402 26.9607 186.402 28.5366C186.402 29.5395 186.187 30.6857 185.757 31.9751C184.754 35.5569 182.749 39.6402 179.74 44.2248C176.803 48.7379 173.4 52.9644 169.532 56.9043C161.365 65.0708 154.846 70.6942 149.975 73.7745C165.878 72.2702 177.662 71.0524 185.327 70.1211C186.259 70.0495 187.011 70.336 187.584 70.9807C188.157 71.6255 188.444 72.3776 188.444 73.2373C188.444 73.8104 188.3 74.3476 188.014 74.8491C187.799 75.2789 187.441 75.6012 186.939 75.8161C180.277 78.6099 172.182 81.3679 162.655 84.0901C153.199 86.7406 143.815 88.9613 134.502 90.7522H134.287ZM222.122 71.9478C218.325 72.7358 214.851 73.1298 211.699 73.1298C206.541 73.1298 202.422 72.0911 199.342 70.0137C196.333 67.9362 194.721 64.7126 194.506 60.3429C194.22 54.3971 194.757 46.8037 196.118 37.5627C197.551 28.2501 199.163 20.9074 200.953 15.5348C201.312 14.4602 201.741 13.7439 202.243 13.3857C202.744 12.9559 203.461 12.741 204.392 12.741C204.822 12.741 206.398 12.9559 209.12 13.3857C211.699 13.8872 213.526 14.4602 214.6 15.105C215.746 15.7497 216.319 16.7168 216.319 18.0062C216.319 18.2927 216.248 18.7942 216.104 19.5106C214.457 25.1698 212.917 31.6528 211.484 38.9596C210.123 46.2665 209.442 51.7108 209.442 55.2925C209.442 57.4416 209.944 58.9818 210.947 59.913C212.021 60.7727 213.848 61.2025 216.427 61.2025C219.077 61.2025 221.728 61.0592 224.378 60.7727C224.665 58.3371 225.238 54.3971 226.098 48.9528L230.611 19.8329C230.754 18.9733 230.897 17.2182 231.04 14.5677C232.258 13.7797 233.404 13.3857 234.479 13.3857C235.625 13.3857 236.843 13.8155 238.132 14.6751C239.637 15.6064 240.64 16.7884 241.141 18.2211C241.714 19.5822 242.001 21.3014 242.001 23.3789C242.001 26.5308 241.678 30.8648 241.034 36.3807C240.461 41.825 239.816 46.5888 239.099 50.672L237.703 59.0534C242.431 58.3371 246.585 57.4774 250.167 56.4745L251.457 56.2596C252.03 56.2596 252.495 56.4029 252.853 56.6894C253.212 56.9043 253.391 57.1909 253.391 57.5491C253.391 58.2654 252.782 59.0176 251.564 59.8056C246.693 62.9576 241.607 65.6081 236.306 67.7571C234.443 78.2876 233.118 84.8422 232.33 87.4211C232.258 87.7077 232.187 88.1733 232.115 88.818C232.043 89.4627 231.936 89.9284 231.793 90.2149C230.503 91.2894 229.25 91.8267 228.032 91.8267C227.029 91.8267 226.098 91.4327 225.238 90.6447C224.45 89.9284 223.841 88.8896 223.411 87.5286C222.767 85.666 222.444 83.5886 222.444 81.2963C222.444 78.7174 222.659 75.5296 223.089 71.7329L222.122 71.9478ZM283.391 27.0323C283.105 26.5308 282.961 26.101 282.961 25.7428C282.961 25.1698 283.463 24.6683 284.466 24.2385C289.624 22.2327 295.641 20.406 302.518 18.7584C303.306 18.1853 303.807 17.1108 304.022 15.5348C304.595 12.4544 305.168 9.83974 305.742 7.69067C306.386 5.46997 307.174 3.42836 308.106 1.56583C308.607 0.562933 309.359 0.061484 310.362 0.061484C311.15 0.061484 312.153 0.312208 313.371 0.813655C314.66 1.24347 315.448 1.53001 315.735 1.67328C317.597 2.38964 318.958 3.07018 319.818 3.7149C320.678 4.28798 321.107 5.00434 321.107 5.86396C321.107 6.36542 320.893 7.01014 320.463 7.79813L319.281 9.83974C318.063 12.1321 316.917 14.2095 315.842 16.072L320.248 15.4273C323.758 14.9259 326.731 14.7826 329.166 14.9975C331.459 15.2124 333.393 15.6064 334.969 16.1795C336.545 16.7526 337.978 17.8629 339.267 19.5106C339.912 20.2269 340.234 20.9791 340.234 21.7671C340.234 22.9132 339.518 23.6654 338.085 24.0236C333.787 25.0265 329.31 26.9965 324.653 29.9335C319.997 32.799 316.272 36.1658 313.478 40.0342C317.203 40.3207 320.284 41.5385 322.719 43.6876C325.155 45.8366 326.373 48.5946 326.373 51.9615C326.373 58.1222 323.077 62.7785 316.487 65.9304C313.407 67.3631 310.255 68.0795 307.031 68.0795C304.667 68.0795 302.518 67.6497 300.584 66.7901C298.721 65.9304 297.36 64.6768 296.501 63.0292C295.426 60.7368 294.889 58.1938 294.889 55.4C294.889 53.036 295.211 50.7795 295.856 48.6304C296.93 45.0486 298.721 41.5385 301.229 38.1C303.807 34.6615 306.673 31.617 309.825 28.9665C306.315 29.8977 302.411 31.0439 298.112 32.405C293.886 33.766 291.486 34.554 290.913 34.7689C290.698 34.8406 290.412 34.948 290.053 35.0913C289.695 35.1629 289.373 35.1987 289.086 35.1987C288.585 35.1987 288.191 34.9838 287.904 34.554C286.257 32.0468 284.752 29.5395 283.391 27.0323ZM304.989 58.0863C304.989 60.0205 305.742 60.9876 307.246 60.9876C308.894 60.9876 310.577 60.2354 312.296 58.7311C314.087 57.2267 314.983 55.6507 314.983 54.0031C314.983 52.8569 314.624 51.854 313.908 50.9944C313.263 50.0631 312.475 49.3826 311.544 48.9528C310.684 48.523 309.932 48.3439 309.288 48.4155C308.5 48.5588 307.568 49.7766 306.494 52.0689C305.491 54.2896 304.989 56.2954 304.989 58.0863ZM316.487 85.487C317.633 77.5354 319.603 72.2344 322.397 69.5838C322.898 69.0824 323.722 68.8317 324.868 68.8317C325.298 68.8317 325.8 68.9033 326.373 69.0466C327.519 69.3331 328.701 69.8704 329.919 70.6584C332.999 69.3689 336.366 68.3302 340.019 67.5422C343.744 66.6826 347.505 66.2528 351.302 66.2528C349.869 65.823 348.866 65.3573 348.293 64.8559C347.792 64.3544 347.648 63.459 347.863 62.1696C349.224 53.8598 350.156 47.4484 350.657 42.9354C351.23 38.4224 351.839 32.4766 352.484 25.0981L353.129 17.254C353.2 16.466 353.236 15.3915 353.236 14.0304L353.129 9.83974C353.129 8.90848 353.308 8.29958 353.666 8.01304C354.096 7.72649 354.991 7.58322 356.352 7.58322C362.943 7.58322 366.739 9.37411 367.742 12.9559C368.1 14.1737 368.279 15.7855 368.279 17.7913C368.279 19.6538 367.921 23.7371 367.205 30.041L366.99 31.4379C366.99 31.7961 367.062 32.0468 367.205 32.1901C367.42 32.3333 367.742 32.405 368.172 32.405C368.745 32.405 369.247 32.3691 369.676 32.2975C372.972 31.8677 377.162 31.2946 382.248 30.5783C383.753 30.3633 384.505 31.223 384.505 33.1571C384.505 34.2317 384.218 35.342 383.645 36.4882C383.144 37.5627 382.499 38.2791 381.711 38.6373C379.419 39.7118 377.306 40.6431 375.371 41.4311C373.437 42.219 370.751 43.2219 367.312 44.4397C366.166 44.8696 365.378 45.3352 364.948 45.8366C364.59 46.3381 364.089 47.4126 363.444 49.0602C363.444 48.9886 362.835 50.9944 361.617 55.0776C360.686 58.5161 359.683 61.8114 358.609 64.9634C358.394 65.7513 357.319 66.2886 355.385 66.5752C356.746 66.9333 358.143 68.0079 359.576 69.7988C361.152 71.5896 362.298 73.2014 363.014 74.6342C363.731 75.9952 364.089 77.3205 364.089 78.6099C364.089 80.0426 363.695 81.5112 362.907 83.0155C362.119 84.5199 360.901 86.2033 359.253 88.0658C360.758 88.7106 361.725 89.1762 362.155 89.4627C363.086 89.8925 363.695 90.4298 363.981 91.0745C364.268 91.7909 364.375 93.1161 364.304 95.0503C364.232 96.3398 363.802 97.1994 363.014 97.6292C362.226 98.059 361.044 98.3455 359.468 98.4888C353.809 98.847 343.852 99.7783 329.596 101.283L328.199 101.39C326.623 101.39 325.191 101.032 323.901 100.316C322.683 99.6708 321.287 98.5963 319.711 97.0919C318.493 95.8741 317.597 94.6563 317.024 93.4385C316.523 92.2207 316.272 90.7164 316.272 88.9255C316.272 87.4928 316.344 86.3466 316.487 85.487ZM327.77 90C337.655 89.0687 345.07 88.1733 350.012 87.3137C350.442 86.2391 350.908 84.5915 351.409 82.3708C351.982 80.1501 352.448 78.1801 352.806 76.4609C344.353 77.2489 336.545 78.5741 329.381 80.4366L328.414 86.3466L327.77 90ZM416.2 32.7273C413.119 40.9654 410.397 48.7021 408.033 55.9373C406.027 62.1696 404.487 67.5422 403.413 72.0553C403.126 73.4164 402.875 74.3118 402.66 74.7416C402.445 75.0998 402.051 75.2789 401.478 75.2789C400.332 75.2789 399.401 74.7416 398.685 73.6671C397.968 72.5925 397.467 71.1598 397.18 69.3689C396.965 67.7213 396.858 66.0379 396.858 64.3186C396.858 60.7369 397.252 56.7611 398.04 52.3913C398.9 47.735 400.762 40.7863 403.627 31.5453C403.699 31.1872 403.986 30.1843 404.487 28.5366C403.842 28.8232 403.198 29.0739 402.553 29.2888C401.98 29.5037 401.371 29.7544 400.726 30.041C398.792 30.6857 397.395 31.223 396.536 31.6528C395.819 32.011 395.246 32.1901 394.816 32.1901C394.172 32.1901 393.563 31.9393 392.99 31.4379C392.488 30.9364 391.879 30.2559 391.163 29.3963C390.518 28.5366 389.981 27.8561 389.551 27.3547C388.763 26.2801 388.369 25.3847 388.369 24.6683C388.369 23.8087 388.835 23.0923 389.766 22.5192C393.204 20.3702 396.965 18.6867 401.049 17.4689C403.126 16.8242 404.917 16.5019 406.421 16.5019C410.075 16.5019 412.904 18.1137 414.91 21.3373C418.349 19.4031 421.357 17.9704 423.936 17.0391C425.226 16.6093 426.336 16.3944 427.267 16.3944C428.198 16.3944 428.951 16.5377 429.524 16.8242C431.1 17.3973 432.568 18.1495 433.929 19.0807C435.362 19.9404 436.974 21.0865 438.765 22.5192C441.2 24.3818 442.418 26.2085 442.418 27.9994C442.418 28.5008 442.311 29.0381 442.096 29.6112L437.798 41.2161C441.953 40.7147 444.639 40.2491 445.857 39.8193C447.289 39.3178 448.292 38.5656 448.865 37.5627L449.618 33.4795C449.761 32.7631 450.406 29.3604 451.552 23.2714C451.767 22.3402 452.125 20.5493 452.626 17.8988C452.698 17.1824 453.235 16.8242 454.238 16.8242C456.101 16.8242 457.927 17.1824 459.718 17.8988C461.509 18.6151 462.978 19.5464 464.124 20.6925C464.768 21.3373 465.091 22.1253 465.091 23.0565C465.091 23.4147 465.055 23.7012 464.983 23.9161C464.195 27.5696 463.264 31.8677 462.19 36.8106C461.187 41.7534 460.327 46.159 459.611 50.0273C458.465 56.4745 457.533 61.9905 456.817 66.5752C456.101 71.0882 455.492 75.9594 454.99 81.1888C455.277 81.1888 455.599 81.1172 455.957 80.9739C456.387 80.759 456.638 80.6516 456.709 80.6516C456.853 80.6516 456.781 80.8665 456.495 81.2963C455.205 83.1588 453.557 84.0901 451.552 84.0901C449.689 84.0901 447.97 83.1588 446.394 81.2963C444.746 79.3621 443.958 77.4996 444.03 75.7087C444.531 69.4048 445.534 60.6652 447.039 49.4901C444.102 50.9228 440.735 51.7824 436.938 52.0689H436.508C435.434 52.0689 434.717 51.6391 434.359 50.7795L432.21 56.6894C428.986 65.7155 426.694 72.5567 425.333 77.213C424.832 79.0756 424.402 80.3292 424.044 80.9739C423.757 81.547 423.327 81.8335 422.754 81.8335C420.82 81.8335 419.531 80.365 418.886 77.4279C418.528 75.4938 418.349 73.7029 418.349 72.0553C418.349 68.3302 418.957 63.6381 420.175 57.9789C421.966 49.3826 424.832 39.5685 428.772 28.5366C426.336 29.8977 424.079 30.7932 422.002 31.223C421.644 31.2946 421.071 31.3304 420.283 31.3304C418.993 31.3304 417.811 31.1872 416.737 30.9006C416.665 31.4737 416.486 32.0826 416.2 32.7273ZM463.264 85.9168C463.264 83.123 463.73 77.2847 464.661 68.4019C465.592 59.519 466.595 51.7466 467.67 45.0845C468.314 40.4282 469.496 33.5153 471.216 24.346L473.15 13.3857C473.365 12.5977 473.508 11.7023 473.58 10.6994C473.651 9.62484 473.723 8.80103 473.795 8.22794C475.084 7.43995 476.194 7.04596 477.126 7.04596C477.985 7.04596 479.131 7.43995 480.564 8.22794C483.071 9.66065 484.504 11.8455 484.862 14.7826C485.006 15.6422 485.077 16.9675 485.077 18.7584C485.077 21.1224 484.791 24.2385 484.218 28.1068C483.573 33.9093 482.498 41.5027 480.994 50.887C479.919 58.0505 478.594 66.0737 477.018 74.9565C475.514 83.8393 474.224 89.9284 473.15 93.2236L472.29 96.1248C471.072 97.0561 469.855 97.5217 468.637 97.5217C466.774 97.5217 465.27 96.1607 464.124 93.4385C463.551 91.7909 463.264 89.2836 463.264 85.9168ZM539.904 71.8404C538.829 71.912 537.898 71.4464 537.11 70.4435C536.322 69.3689 535.82 68.0795 535.605 66.5752C535.462 65.2857 535.391 64.2828 535.391 63.5665C535.391 58.6236 537.36 52.8569 541.3 46.2665C543.521 42.5414 546.637 37.9925 550.649 32.6199C551.294 31.6886 552.368 30.2201 553.872 28.2143C555.377 26.2085 556.738 24.2743 557.956 22.4118C556.523 22.2685 552.547 22.8058 546.028 24.0236C539.581 25.1698 535.283 26.1727 533.134 27.0323C531.415 27.677 530.161 27.9994 529.373 27.9994C528.8 27.9994 528.155 27.8203 527.439 27.4621C526.723 27.0323 525.935 26.5308 525.075 25.9578C523.571 24.8832 522.532 24.0952 521.959 23.5938C521.386 23.0207 521.099 22.4118 521.099 21.7671C521.099 20.9791 521.708 20.2269 522.926 19.5106C524.215 18.7226 526.114 17.8271 528.621 16.8242C531.128 15.8213 534.28 14.8542 538.077 13.923C541.874 12.9917 546.315 11.9888 551.401 10.9143C553.693 10.4128 555.807 10.1621 557.741 10.1621C560.033 10.1621 562.075 10.5919 563.866 11.4515C565.657 12.3112 567.698 13.7439 569.991 15.7497C570.993 16.6093 571.853 17.648 572.569 18.8658C573.357 20.0836 573.751 21.3014 573.751 22.5192C573.751 24.0952 573.357 25.6712 572.569 27.2472C571.996 28.1785 571.495 28.8948 571.065 29.3963C577.297 27.677 582.276 26.8174 586.001 26.8174C589.511 26.8174 592.448 27.4621 594.812 28.7515C595.385 24.7399 595.779 21.7313 595.994 19.7255C596.066 19.1524 596.102 18.042 596.102 16.3944C596.102 13.0992 596.03 10.8068 595.887 9.51739C595.815 9.23084 595.779 8.87266 595.779 8.44285C595.779 7.9414 595.887 7.61904 596.102 7.47577C596.388 7.3325 596.746 7.26086 597.176 7.26086C599.11 7.26086 601.08 7.43995 603.086 7.79813C605.164 8.08467 606.847 8.58612 608.136 9.30247C609.139 9.80393 609.748 10.377 609.963 11.0217C610.25 11.6665 610.393 12.8126 610.393 14.4602C610.393 19.7613 609.605 26.1368 608.029 33.5869C606.525 40.9654 604.591 47.4843 602.227 53.1435L601.689 54.218C602.692 54.7911 603.409 55.2925 603.838 55.7224C604.626 56.5103 605.02 57.3342 605.02 58.1938C605.02 59.0534 604.734 59.8772 604.161 60.6652C603.588 61.3816 602.764 62.277 601.689 63.3516C599.54 65.6439 597.319 67.6497 595.027 69.3689C592.735 71.0882 589.977 72.9507 586.753 74.9565C593.559 74.0253 598.788 73.5596 602.441 73.5596C603.229 73.5596 603.91 73.882 604.483 74.5267C605.128 75.1714 605.45 75.9594 605.45 76.8907C605.45 78.3234 604.698 79.6845 603.194 80.9739C601.761 82.1201 598.681 84.2692 593.953 87.4211C592.95 88.1375 591.911 88.8538 590.836 89.5702C589.762 90.2865 588.723 91.0029 587.72 91.7193C585.428 93.3669 584.282 94.7638 584.282 95.9099C584.282 97.1277 585.213 97.7366 587.076 97.7366C587.649 97.7366 588.437 97.665 589.44 97.5217C592.162 97.1636 595.314 96.6263 598.895 95.9099C602.477 95.2652 605.235 94.5847 607.169 93.8683L607.599 93.7609C608.172 93.7609 608.459 94.0832 608.459 94.728C608.459 95.5876 607.957 96.3039 606.954 96.877C604.805 98.3097 602.119 99.7066 598.895 101.068C595.744 102.429 592.627 103.467 589.547 104.184C587.398 104.757 585.213 105.043 582.992 105.043C578.408 105.043 575.292 103.861 573.644 101.498C572.641 100.208 572.14 98.7395 572.14 97.0919C572.14 94.5847 573.322 92.0416 575.686 89.4627C576.688 88.2449 578.658 86.2391 581.595 83.4453L571.495 86.1317C570.062 86.4899 569.095 86.6689 568.594 86.6689C567.949 86.6689 567.447 86.4899 567.089 86.1317C566.731 85.7019 566.409 85.0213 566.122 84.0901C566.051 83.7319 565.871 83.123 565.585 82.2634C565.37 81.3321 565.263 80.5441 565.263 79.8994C565.263 79.1114 565.477 78.4308 565.907 77.8578C566.337 77.213 567.125 76.64 568.271 76.1385C572.14 74.2043 575.471 72.3418 578.264 70.5509C581.13 68.76 583.386 66.8975 585.034 64.9634C584.318 65.3215 581.954 65.9304 577.942 66.7901C573.93 67.5781 571.137 67.972 569.561 67.972C569.059 67.972 568.737 67.9004 568.594 67.7571C568.164 66.8975 567.662 65.5364 567.089 63.6739C566.516 61.7397 566.158 60.5219 566.015 60.0205C565.943 59.8056 565.907 59.5549 565.907 59.2683C565.907 58.9101 566.015 58.6594 566.23 58.5161C566.445 58.3729 566.803 58.2296 567.304 58.0863C570.241 57.1551 577.584 55.7224 589.332 53.7882L593.093 53.1435C592.735 52.642 592.556 52.1048 592.556 51.5317C592.484 49.0961 592.735 45.2277 593.308 39.9267L593.63 36.918C591.051 37.1329 588.544 37.5627 586.109 38.2074C583.673 38.7805 580.521 39.6402 576.653 40.7863C575.65 41.1445 574.647 41.3236 573.644 41.3236C572.498 41.3236 571.674 41.0729 571.172 40.5714C570.671 39.9983 569.991 39.0313 569.131 37.6702C568.271 36.2375 567.662 35.0197 567.304 34.0168C563.149 38.888 559.532 43.2936 556.451 47.2335C553.371 51.1019 550.327 55.2925 547.318 59.8056C545.599 62.3845 543.987 65.035 542.482 67.7571C542.053 68.4735 541.515 69.3331 540.871 70.336C540.298 71.3389 539.975 71.8404 539.904 71.8404ZM628.114 64.8559C625.536 63.3515 623.637 61.3458 622.419 58.8385C621.202 56.2596 620.593 53.5733 620.593 50.7795C620.593 50.0631 620.664 49.1319 620.808 47.9857C621.596 42.6847 623.745 37.8493 627.255 33.4795C630.765 29.1097 635.385 24.9907 641.116 21.1224C642.549 20.1911 644.161 19.7255 645.952 19.7255C647.599 19.7255 649.319 20.0836 651.109 20.8C652.9 21.4447 654.62 22.376 656.267 23.5938C659.133 25.8145 661.497 28.3934 663.359 31.3304C665.222 34.2675 666.439 37.1687 667.013 40.0342C673.173 37.8135 678.188 36.7031 682.056 36.7031C685.423 36.7031 688.288 37.5627 690.652 39.282C691.154 34.4824 691.691 28.8948 692.264 22.5192C692.837 16.1437 693.16 11.7739 693.231 9.40993C693.303 8.26376 693.446 7.61904 693.661 7.47577C693.948 7.26086 694.449 7.15341 695.165 7.15341C696.885 7.29668 698.64 7.61904 700.431 8.12049C702.221 8.62194 703.726 9.19502 704.944 9.83974C705.803 10.3412 706.376 10.8785 706.663 11.4515C706.949 11.953 707.093 12.6694 707.093 13.6006C707.093 13.8872 707.021 14.9617 706.878 16.8242C706.591 21.3373 705.803 28.8948 704.514 39.4969C703.224 50.099 701.756 60.4145 700.108 70.4435C698.461 80.4725 696.885 87.5644 695.38 91.7193C694.736 93.5101 693.804 94.4056 692.586 94.4056C692.157 94.4056 691.619 94.2623 690.975 93.9758C690.33 93.7609 689.828 93.6176 689.47 93.546C686.032 92.6147 684.313 91.2536 684.313 89.4627C684.313 87.6002 685.172 80.5799 686.891 68.4019L689.685 47.7708C686.247 48.2006 683.453 48.6304 681.304 49.0602C679.155 49.4184 676.898 49.9915 674.534 50.7795C673.03 51.2809 671.812 51.5317 670.881 51.5317C670.021 51.5317 669.341 51.3168 668.839 50.887C668.409 50.4571 667.98 49.6691 667.55 48.523C667.478 48.3797 667.335 47.9857 667.12 47.341C666.619 50.7795 665.472 53.6449 663.681 55.9373C661.891 58.2296 659.061 60.4861 655.193 62.7068C649.533 66.0737 644.053 67.7571 638.752 67.7571C634.812 67.7571 631.266 66.7901 628.114 64.8559ZM631.875 52.1764C631.517 53.036 631.338 53.7882 631.338 54.4329C631.338 55.6507 631.732 56.6894 632.52 57.5491C633.308 58.4087 634.239 58.8385 635.314 58.8385C637.534 58.8385 639.612 58.4087 641.546 57.5491C643.48 56.6178 645.414 55.2209 647.349 53.3584C648.781 52.0689 649.892 50.4213 650.68 48.4155C651.539 46.4097 651.969 44.3681 651.969 42.2907C651.969 39.282 651.145 36.7389 649.498 34.6615C648.996 34.0884 648.495 33.8019 647.993 33.8019C647.707 33.8019 647.277 33.9093 646.704 34.1242C643.05 36.8464 640.113 39.6043 637.893 42.3981C635.744 45.1203 633.738 48.3797 631.875 52.1764ZM743.561 50.672C740.982 49.311 739.084 47.6275 737.866 45.6217C736.72 43.6159 736.147 41.3952 736.147 38.9596C736.147 33.7302 738.081 28.6083 741.95 23.5938C745.818 18.5077 750.725 14.3886 756.671 11.2366C758.462 10.2337 760.539 9.73229 762.903 9.73229C766.628 9.73229 770.317 10.9501 773.971 13.3857C777.481 15.678 780.203 18.5077 782.137 21.8745C784.143 25.1698 785.146 28.2859 785.146 31.223C785.146 35.2346 784.179 38.7089 782.245 41.646C780.382 44.5114 777.266 47.0186 772.896 49.1677C770.317 50.3855 767.488 51.3526 764.407 52.0689C761.327 52.7853 758.282 53.1435 755.274 53.1435C750.689 53.1435 746.785 52.3197 743.561 50.672ZM719.277 78.8248C722.572 78.2518 728.303 77.5712 736.469 76.7832C735.753 74.4193 735.395 71.7329 735.395 68.7242C735.395 65.2141 735.896 61.489 736.899 57.5491C737.186 56.188 737.616 55.2567 738.189 54.7553C738.762 54.1822 739.442 53.8956 740.23 53.8956C740.732 53.8956 741.126 53.9315 741.412 54.0031C742.845 54.2896 744.457 54.7553 746.248 55.4C747.322 55.7582 748.074 56.188 748.504 56.6894C748.934 57.1193 749.149 57.6923 749.149 58.4087C749.149 59.2683 748.898 60.307 748.397 61.5248C746.892 65.6081 745.639 70.4793 744.636 76.1385C751.585 75.6371 757.745 75.2431 763.118 74.9565C763.046 74.0253 763.01 72.7358 763.01 71.0882C763.01 68.5093 763.225 66.0379 763.655 63.6739C764.085 61.3099 764.766 58.6594 765.697 55.7224C766.27 54.0747 767.309 53.2509 768.813 53.2509C769.314 53.2509 770.21 53.3942 771.499 53.6807C773.935 54.3255 775.582 54.9344 776.442 55.5075C777.373 56.0805 777.839 56.8685 777.839 57.8714C777.839 58.5878 777.624 59.5549 777.194 60.7727C776.836 61.9188 776.621 62.6352 776.55 62.9217C775.762 65.2857 774.83 69.154 773.756 74.5267C779.272 74.3118 784.25 74.2043 788.692 74.2043C791.629 74.2043 793.706 74.2402 794.924 74.3118C797.933 74.3834 800.01 74.8132 801.156 75.6012C802.374 76.3176 802.983 77.4996 802.983 79.1472C802.983 80.2217 802.732 80.9739 802.231 81.4037C801.729 81.7619 801.049 81.9768 800.189 82.0484C789.516 82.7648 777.266 83.9468 763.44 85.5944C749.615 87.242 737.401 88.9971 726.799 90.8596C726.44 90.9313 725.867 91.0029 725.079 91.0745C724.363 91.2178 723.718 91.2894 723.145 91.2894C721.426 91.2894 720.244 90.7522 719.599 89.6776C717.307 85.9526 716.161 83.2663 716.161 81.6186C716.161 80.1859 717.199 79.2547 719.277 78.8248ZM747.645 39.282C747.286 40.2132 747.107 41.0371 747.107 41.7534C747.107 42.8279 747.466 43.6876 748.182 44.3323C748.898 44.9054 749.937 45.1919 751.298 45.1919C753.662 45.1919 756.098 44.7979 758.605 44.0099C761.112 43.2219 763.261 42.0041 765.052 40.3565C766.485 39.1387 767.631 37.5985 768.491 35.736C769.422 33.8735 769.887 31.9751 769.887 30.041C769.887 27.3905 768.992 25.1698 767.201 23.3789C766.556 22.7342 765.661 22.4118 764.515 22.4118C763.87 22.4118 763.118 22.5909 762.258 22.9491C758.963 24.8116 756.026 27.1756 753.447 30.041C750.868 32.9064 748.934 35.9867 747.645 39.282ZM3.74219 149.156H31.5156L51.6719 198.492H52.7266L72.8828 149.156H100.656V234H78.8594V184.078H78.1562L58.8203 233.414H45.4609L26.2422 183.727H25.5391V234H3.74219V149.156ZM125.031 257.906C120.871 257.848 117.004 257.789 114.133 257.555V241.031C117.121 241.266 119.992 241.266 122.453 241.266C125.617 241.266 127.902 240.914 129.133 237.867L129.602 236.695L107.219 170.367H130.305L140.969 214.781H141.672L152.57 170.367H175.773L152.336 239.508C148.879 249.996 141.438 257.848 125.031 257.906ZM215.969 235.172C196.691 235.172 182.805 224.098 182.688 208.453H204.367C204.543 214.371 209.699 218.238 215.969 218.18C223.234 218.238 228.332 213.199 228.273 205.641C228.332 197.965 223.234 192.926 215.969 192.984C210.168 192.926 206.418 195.387 204.367 199.664H184.562L188.195 149.156H244.562V166.969H206.594L204.836 186.07H205.305C208.059 181.09 214.914 177.398 223.352 177.398C238.586 177.398 249.895 188.824 249.836 204.938C249.895 222.633 236.418 235.172 215.969 235.172ZM260.031 234V149.156H282.297V183.844H283.469L309.719 149.156H335.852L306.789 187.008L336.438 234H309.719L290.148 201.773L282.297 211.852V234H260.031Z" fill="#F70035"/>
</svg>
