<svg width="408" height="397" viewBox="0 0 408 397" fill="none" xmlns="http://www.w3.org/2000/svg">
<g opacity="0.5">
<g filter="url(#filter0_f_1093_22773)">
<path d="M73.0557 289.936C72.3259 277.013 82.2106 265.946 95.1337 265.216L479.009 243.539C491.932 242.81 503 252.694 503.729 265.618L507.353 329.782C508.082 342.705 498.198 353.773 485.274 354.502L101.399 376.179C88.4764 376.908 77.4086 367.024 76.6788 354.101L73.0557 289.936Z" fill="url(#paint0_radial_1093_22773)"/>
</g>
<rect x="9.34375" y="114.797" width="428.1" height="276.838" rx="22.832" transform="rotate(-15 9.34375 114.797)" fill="#DE1A44"/>
<rect y="110.801" width="428.1" height="276.838" rx="22.832" transform="rotate(-15 0 110.801)" fill="#FA7F99"/>
<path d="M78.0794 152.373L79.7313 158.538L83.1234 157.629L83.7943 160.133L80.4022 161.042L82.0108 167.045L79.0225 167.846L75.0911 153.174L78.0794 152.373ZM82.321 168.203L84.5211 176.414L68.799 180.627L66.5989 172.416L82.321 168.203ZM70.195 173.991L71.1112 177.41L80.9105 174.784L79.9944 171.365L70.195 173.991ZM73.9688 155.985L74.6108 158.381L60.181 162.247L59.5389 159.851L65.2732 158.315L64.6023 155.811L67.5906 155.01L68.2615 157.514L73.9688 155.985ZM67.6339 161.202C71.1606 160.257 74.0327 161.392 74.7522 163.969C75.425 166.588 73.4978 168.98 69.9711 169.925C66.4175 170.877 63.5257 169.776 62.826 167.165C62.1335 164.581 64.0803 162.155 67.6339 161.202ZM68.2399 163.464C66.3823 163.962 65.38 165.067 65.7335 166.386C66.0942 167.732 67.5148 168.188 69.3724 167.69C71.23 167.193 72.2592 166.08 71.8985 164.734C71.545 163.415 70.0975 162.966 68.2399 163.464ZM89.478 152.377C90.9876 158.119 91.8275 163.838 89.8809 169.495L87.1997 168.858C88.8783 164.354 88.6023 160.201 87.5428 155.493L84.5814 156.286L83.9322 153.863L89.478 152.377ZM94.9161 150.92C95.4617 153.01 96.002 155.188 96.3637 157.4L98.8136 156.743L96.4908 148.074L99.3176 147.317L105.37 169.904L102.543 170.662L99.4628 159.166L96.6899 159.909C96.9594 163.069 96.763 166.266 95.6797 169.384L93.0451 168.705C94.8444 163.736 94.1546 158.9 92.9809 154.036L90.8541 154.605L90.2049 152.183L94.9161 150.92ZM103.87 145.462L110.391 169.799L107.511 170.571L100.99 146.234L103.87 145.462ZM133.457 137.535L136.753 149.838L133.765 150.638L132.575 146.196L127.864 147.459L127.207 145.009L131.918 143.747L130.468 138.335L133.457 137.535ZM125.755 140.666C127.455 146.905 124.524 151.903 117.879 155.53L116.214 153.408C121.384 150.681 123.606 147.345 123.2 143.947L115.662 145.967L115.013 143.544L125.755 140.666ZM137.013 150.807L138.73 157.214L125.727 160.698L126.268 162.718L139.917 159.06L140.559 161.456L123.922 165.914L122.14 159.265L135.143 155.78L134.66 153.977L121.63 157.468L120.995 155.099L137.013 150.807ZM144.028 136.606C147.326 135.723 150.498 137.816 152.119 142.143L156.75 140.902L154.348 131.937L157.309 131.143L163.837 155.507L160.876 156.301L157.399 143.325L152.796 144.558C153.731 149.343 152.03 152.9 148.638 153.809C144.977 154.79 141.505 152.171 140.084 146.868C138.677 141.618 140.367 137.587 144.028 136.606ZM144.75 139.299C142.731 139.84 141.942 142.388 142.964 146.096C143.94 149.845 145.897 151.658 147.916 151.117C149.936 150.576 150.697 148.035 149.722 144.285C148.699 140.577 146.769 138.758 144.75 139.299ZM188.036 143.195L188.693 145.645L166.456 151.603L165.799 149.153L170.941 147.775L169.289 141.61C167.055 141.026 165.419 139.603 164.852 137.432C163.786 133.563 166.924 129.981 172.146 128.582C177.396 127.175 181.904 128.708 182.943 132.585C183.513 134.712 182.84 136.724 181.255 138.346L182.921 144.565L188.036 143.195ZM172.781 130.951C169.147 131.925 167.081 134.123 167.786 136.646C168.43 139.157 171.325 140.055 174.96 139.081C178.594 138.107 180.679 135.875 180.008 133.371C179.33 130.841 176.415 129.977 172.781 130.951ZM173.903 146.982L179.879 145.38L178.516 140.292C177.645 140.756 176.664 141.135 175.587 141.423C174.537 141.705 173.512 141.864 172.546 141.921L173.903 146.982Z" fill="white"/>
<path d="M104.284 219.306L131.886 255.642L132.759 255.408L138.495 210.139L161.465 203.985L180.266 274.153L162.24 278.983L151.177 237.696L150.595 237.852L145.537 282.939L134.488 285.9L107.583 249.066L107.002 249.221L118.142 290.799L100.116 295.629L81.3144 225.461L104.284 219.306ZM188.505 196.74L210.147 221.687L210.729 221.532L217.095 189.079L237.739 183.547L224.735 238.138L230.76 260.623L212.443 265.531L206.418 243.046L167.861 202.271L188.505 196.74ZM291.011 245.517C285.746 246.928 280.778 247.255 276.108 246.498C271.43 245.709 267.462 243.95 264.203 241.222C260.945 238.495 258.732 235.019 257.566 230.796L275.496 225.991C275.993 227.589 276.842 228.885 278.044 229.879C279.236 230.841 280.634 231.47 282.237 231.768C283.864 232.024 285.534 231.923 287.246 231.464C289.249 230.928 290.909 230.016 292.226 228.728C293.543 227.44 294.413 225.908 294.838 224.133C295.286 222.316 295.221 220.394 294.644 218.368C294.113 216.259 293.2 214.53 291.903 213.181C290.639 211.823 289.119 210.932 287.344 210.507C285.559 210.051 283.666 210.091 281.663 210.627C277.114 211.742 274.409 214.441 273.548 218.723L257.169 223.111L248.981 180.535L295.598 168.044L299.545 182.775L268.144 191.189L270.923 207.376L271.311 207.272C271.87 204.837 273.313 202.598 275.64 200.555C277.999 198.503 280.89 197.019 284.315 196.101C288.482 194.985 292.489 194.95 296.336 195.996C300.183 197.043 303.506 199.044 306.306 201.999C309.138 204.945 311.143 208.614 312.32 213.008C313.619 217.854 313.616 222.494 312.311 226.93C311.03 231.324 308.543 235.159 304.85 238.433C301.181 241.667 296.568 244.029 291.011 245.517ZM308.391 164.616L326.805 159.682L334.492 188.369L335.461 188.11L349.484 153.605L371.096 147.814L355.449 185.559L390.382 217.852L368.285 223.773L344.959 201.458L340.699 211.533L345.607 229.85L327.193 234.784L308.391 164.616Z" fill="white"/>
</g>
<defs>
<filter id="filter0_f_1093_22773" x="53.0178" y="223.502" width="474.373" height="172.715" filterUnits="userSpaceOnUse" color-interpolation-filters="sRGB">
<feFlood flood-opacity="0" result="BackgroundImageFix"/>
<feBlend mode="normal" in="SourceGraphic" in2="BackgroundImageFix" result="shape"/>
<feGaussianBlur stdDeviation="10" result="effect1_foregroundBlur_1093_22773"/>
</filter>
<radialGradient id="paint0_radial_1093_22773" cx="0" cy="0" r="1" gradientUnits="userSpaceOnUse" gradientTransform="translate(124 362) rotate(-9.41828) scale(213.883 38.6601)">
<stop stop-color="#930F0F"/>
<stop offset="1" stop-color="#DDDDDD"/>
</radialGradient>
</defs>
</svg>
