<svg width="20" height="21" viewBox="0 0 20 21" fill="none" xmlns="http://www.w3.org/2000/svg">
<g id="Checkbox">
<path id="Rectangle 28" d="M0.5 4.5C0.5 2.567 2.067 1 4 1H16C17.933 1 19.5 2.567 19.5 4.5V16.5C19.5 18.433 17.933 20 16 20H4C2.067 20 0.5 18.433 0.5 16.5V4.5Z" fill="white" stroke="#D1D1D1"/>
<g id="check">
<path id="Vector" d="M7.95842 13.125L15.0209 6.0625C15.1876 5.89583 15.3855 5.8125 15.6147 5.8125C15.8438 5.8125 16.0418 5.89583 16.2084 6.0625C16.3751 6.22917 16.4584 6.42708 16.4584 6.65625C16.4584 6.88542 16.3751 7.08333 16.2084 7.25L8.54176 14.9167C8.37509 15.0833 8.18065 15.1667 7.95842 15.1667C7.7362 15.1667 7.54176 15.0833 7.37509 14.9167L3.79176 11.3333C3.62509 11.1667 3.54523 10.9688 3.55217 10.7396C3.55912 10.5104 3.64592 10.3125 3.81259 10.1458C3.97926 9.97917 4.17717 9.89583 4.40634 9.89583C4.63551 9.89583 4.83342 9.97917 5.00009 10.1458L7.95842 13.125Z" fill="#F70035"/>
</g>
</g>
</svg>
