<svg width="811" height="255" viewBox="0 0 811 255" fill="none" xmlns="http://www.w3.org/2000/svg">
<path d="M58.81 98.58C58.81 100.707 58.26 102.247 57.16 103.2C56.1333 104.227 54.5567 104.74 52.43 104.74H0.29C0.216667 97.4067 1.06 91.7967 2.82 87.91C4.58 83.95 7.88 78.9633 12.72 72.95L33.07 47.54C34.5367 45.6333 35.5633 43.6533 36.15 41.6C36.81 39.5467 37.14 37.7867 37.14 36.32C37.14 32.8 36.37 30.1233 34.83 28.29C33.3633 26.3833 31.6033 25.43 29.55 25.43C27.2767 25.43 25.4067 26.5667 23.94 28.84C22.4733 31.1133 21.74 34.78 21.74 39.84H0.29C0.29 30.4533 2.78333 22.9 7.77 17.18C12.7567 11.3867 19.98 8.48999 29.44 8.48999C38.3867 8.48999 45.4633 11.0567 50.67 16.19C55.8767 21.25 58.48 27.9967 58.48 36.43C58.48 40.9033 57.5267 44.8267 55.62 48.2C53.7133 51.5733 51.3667 54.9833 48.58 58.43L24.49 88.35H58.81V98.58ZM123.782 77.24C123.782 85.82 121.069 92.75 115.642 98.03C110.216 103.31 103.249 105.95 94.7422 105.95C86.3089 105.95 79.3055 103.273 73.7322 97.92C68.2322 92.64 65.4822 85.7467 65.4822 77.24V36.76C65.4822 28.9133 68.2322 22.2033 73.7322 16.63C79.2322 10.9833 86.2355 8.16 94.7422 8.16C103.249 8.16 110.216 10.9467 115.642 16.52C121.069 22.02 123.782 28.7667 123.782 36.76V77.24ZM102.332 37.09C102.332 32.9833 101.636 29.8667 100.242 27.74C98.8489 25.6133 97.0155 24.55 94.7422 24.55C92.4689 24.55 90.5989 25.65 89.1322 27.85C87.7389 29.9767 87.0422 33.0567 87.0422 37.09V77.13C87.0422 81.09 87.7389 84.1333 89.1322 86.26C90.5989 88.3867 92.4689 89.45 94.7422 89.45C97.0889 89.45 98.9222 88.4233 100.242 86.37C101.636 84.2433 102.332 81.1633 102.332 77.13V37.09ZM190.294 98.58C190.294 100.707 189.744 102.247 188.644 103.2C187.618 104.227 186.041 104.74 183.914 104.74H131.774C131.701 97.4067 132.544 91.7967 134.304 87.91C136.064 83.95 139.364 78.9633 144.204 72.95L164.554 47.54C166.021 45.6333 167.048 43.6533 167.634 41.6C168.294 39.5467 168.624 37.7867 168.624 36.32C168.624 32.8 167.854 30.1233 166.314 28.29C164.848 26.3833 163.088 25.43 161.034 25.43C158.761 25.43 156.891 26.5667 155.424 28.84C153.958 31.1133 153.224 34.78 153.224 39.84H131.774C131.774 30.4533 134.268 22.9 139.254 17.18C144.241 11.3867 151.464 8.48999 160.924 8.48999C169.871 8.48999 176.948 11.0567 182.154 16.19C187.361 21.25 189.964 27.9967 189.964 36.43C189.964 40.9033 189.011 44.8267 187.104 48.2C185.198 51.5733 182.851 54.9833 180.064 58.43L155.974 88.35H190.294V98.58ZM229.967 104.74V91.32H194.107V75.04L223.807 9.26H246.247L217.097 74.05H229.967V48.2H250.317V74.05H258.127V85.27C258.127 87.3967 257.577 88.9367 256.477 89.89C255.45 90.8433 253.873 91.32 251.747 91.32H250.317V98.47C250.317 100.597 249.693 102.173 248.447 103.2C247.273 104.227 245.623 104.74 243.497 104.74H229.967ZM289.423 41.27C289.423 37.3833 290.633 34.12 293.053 31.48C295.547 28.7667 299.36 27.41 304.493 27.41H333.313C338.447 27.41 342.223 28.7667 344.643 31.48C347.063 34.12 348.273 37.3833 348.273 41.27V51.06C348.273 54.8733 347.063 58.1733 344.643 60.96C342.223 63.6733 338.447 65.03 333.313 65.03H304.493C299.36 65.03 295.547 63.6733 293.053 60.96C290.633 58.1733 289.423 54.8733 289.423 51.06V41.27ZM307.903 8.38V0.459999H330.123V8.38H349.153V18.94C349.153 21.0667 348.603 22.6067 347.503 23.56C346.477 24.5133 344.9 24.99 342.773 24.99H293.603C291.477 24.99 289.863 24.5133 288.763 23.56C287.737 22.6067 287.223 21.0667 287.223 18.94V8.38H307.903ZM325.943 46.66C325.943 45.6333 325.613 45.01 324.953 44.79C324.293 44.57 323.377 44.46 322.203 44.46H316.263C315.09 44.46 314.027 44.57 313.073 44.79C312.193 45.01 311.753 45.6333 311.753 46.66C311.753 47.6867 312.193 48.3833 313.073 48.75C314.027 49.0433 315.09 49.19 316.263 49.19H322.203C323.377 49.19 324.293 49.0433 324.953 48.75C325.613 48.3833 325.943 47.6867 325.943 46.66ZM373.463 25.32H387.983V37.86C387.983 40.1333 387.287 41.7833 385.893 42.81C384.573 43.8367 382.703 44.35 380.283 44.35H373.463V57.33C373.463 59.6033 372.693 61.4367 371.153 62.83C369.613 64.15 367.56 64.81 364.993 64.81H351.133V7.17H373.463V25.32ZM293.713 67.89H373.463V101.33C373.463 103.53 372.84 105.217 371.593 106.39C370.347 107.637 368.587 108.26 366.313 108.26H300.863C298.59 108.26 296.83 107.637 295.583 106.39C294.337 105.217 293.713 103.53 293.713 101.33V67.89ZM351.133 91.1V85.05H315.933V91.1H351.133ZM462.151 97.15C462.151 100.377 461.087 103.017 458.961 105.07C456.907 107.123 454.157 108.15 450.711 108.15H443.781V59.42H439.821C438.574 72.9867 433.771 83.6933 425.411 91.54C415.584 101 403.777 106.427 389.991 107.82V90C398.497 88.3133 405.904 84.5733 412.211 78.78C418.517 72.9867 421.671 61.8767 421.671 45.45V24.44H418.811V42.92C418.811 58.6867 416.061 69.4667 410.561 75.26C405.061 81.0533 398.167 85.0133 389.881 87.14V68.44C393.107 67.1933 395.637 64.8833 397.471 61.51C399.304 58.0633 400.221 52.2333 400.221 44.02V24.44H396.041C394.281 24.44 392.814 23.8533 391.641 22.68C390.541 21.4333 389.991 19.7467 389.991 17.62V7.38999H440.261V41.27H443.781V7.17H462.151V97.15ZM464.681 7.17H483.491V95.28C483.491 98.6533 482.281 101.623 479.861 104.19C477.441 106.83 474.324 108.15 470.511 108.15H464.681V7.17ZM605.713 84.61C605.713 86.7367 605.199 88.24 604.173 89.12C603.219 90 601.679 90.44 599.553 90.44H548.293V93.41H606.593V102.1C606.593 104.227 606.043 105.767 604.943 106.72C603.843 107.747 602.229 108.26 600.103 108.26H532.453C530.326 108.26 528.713 107.747 527.613 106.72C526.513 105.767 525.963 104.227 525.963 102.1V76.36H583.273V73.5H531.903C529.776 73.5 528.199 73.06 527.173 72.18C526.219 71.3 525.743 69.7967 525.743 67.67V58.76H605.713V84.61ZM605.713 48.75C605.713 51.0233 604.943 52.8567 603.403 54.25C601.863 55.57 599.809 56.23 597.243 56.23H583.383V40.5H573.043C572.163 40.5 571.356 40.39 570.623 40.17C568.716 42.6633 566.479 44.8633 563.913 46.77C555.039 53.2233 540.849 56.45 521.343 56.45V39.4C531.609 39.4 539.603 38.3 545.323 36.1C551.043 33.8267 553.903 30.2333 553.903 25.32V24.44H528.163C526.403 24.44 524.826 23.8533 523.433 22.68C522.039 21.4333 521.343 19.7467 521.343 17.62V7.38999H577.223V17.95C577.223 19.93 577.113 21.8 576.893 23.56H583.383V7.17H605.713V48.75ZM705.73 93.96C705.73 97.9933 704.337 101.367 701.55 104.08C698.837 106.867 695.464 108.26 691.43 108.26H683.4V63.49H676.47V90.55C676.47 95.6833 674.967 99.8267 671.96 102.98C668.954 106.207 664.884 107.82 659.75 107.82H638.96C633.827 107.82 629.757 106.207 626.75 102.98C623.744 99.8267 622.24 95.6833 622.24 90.55V24.11C622.24 18.9033 623.744 14.7233 626.75 11.57C629.757 8.41666 633.827 6.84 638.96 6.84H659.75C664.884 6.84 668.954 8.41666 671.96 11.57C674.967 14.7233 676.47 18.9033 676.47 24.11V45.78H683.4V7.17H705.73V93.96ZM644.57 85.16C644.57 87.4333 644.937 88.9367 645.67 89.67C646.404 90.33 647.357 90.66 648.53 90.66H650.18C651.354 90.66 652.307 90.33 653.04 89.67C653.774 88.9367 654.14 87.4333 654.14 85.16V29.5C654.14 27.1533 653.774 25.65 653.04 24.99C652.307 24.33 651.354 24 650.18 24H648.53C647.357 24 646.404 24.33 645.67 24.99C644.937 25.65 644.57 27.1533 644.57 29.5V85.16ZM805.748 50.18C805.748 55.5333 803.841 60.0433 800.028 63.71C796.288 67.3033 791.704 69.1 786.278 69.1H740.738C735.311 69.1 730.691 67.3033 726.878 63.71C723.138 60.0433 721.268 55.5333 721.268 50.18V25.98C721.268 20.5533 723.138 16.0433 726.878 12.45C730.691 8.85666 735.311 7.06 740.738 7.06H786.278C791.704 7.06 796.288 8.85666 800.028 12.45C803.841 16.0433 805.748 20.5533 805.748 25.98V50.18ZM743.928 45.89C743.928 47.7233 744.368 49.19 745.248 50.29C746.201 51.3167 747.924 51.83 750.418 51.83H776.598C779.091 51.83 780.778 51.3167 781.658 50.29C782.611 49.19 783.088 47.7233 783.088 45.89V30.27C783.088 28.3633 782.611 26.8967 781.658 25.87C780.778 24.8433 779.091 24.33 776.598 24.33H750.418C747.924 24.33 746.201 24.8433 745.248 25.87C744.368 26.8967 743.928 28.3633 743.928 30.27V45.89ZM735.788 90.88V71.96H757.788V90.88H769.228V71.96H791.228V90.88H810.698V99.79C810.698 102.283 809.891 104.263 808.278 105.73C806.664 107.197 804.574 107.93 802.008 107.93H725.668C723.174 107.93 721.084 107.197 719.398 105.73C717.784 104.263 716.978 102.283 716.978 99.79V90.88H735.788ZM26.7227 155.227L45.1992 200.451H46.166L64.6426 155.227H90.1016V233H70.1211V187.238H69.4766L51.752 232.463H39.5059L21.8887 186.916H21.2441V233H1.26367V155.227H26.7227ZM112.445 254.914C108.471 254.914 105.141 254.807 102.455 254.592V239.445C104.317 239.589 106.859 239.66 110.082 239.66C111.729 239.66 113.018 239.463 113.949 239.069C114.916 238.675 115.668 237.834 116.205 236.545L116.635 235.471L96.1172 174.67H117.279L127.055 215.383H127.699L137.689 174.67H158.959L137.475 238.049C135.72 243.348 132.873 247.484 128.935 250.456C124.996 253.428 119.499 254.914 112.445 254.914ZM195.805 234.074C189.968 234.074 184.74 233.036 180.121 230.959C175.502 228.846 171.885 225.928 169.271 222.204C166.658 218.48 165.333 214.273 165.297 209.582H185.17C185.242 211.372 185.761 212.948 186.728 214.309C187.694 215.633 188.965 216.672 190.541 217.424C192.152 218.14 193.907 218.498 195.805 218.498C198.025 218.498 199.994 218.015 201.713 217.048C203.432 216.081 204.757 214.738 205.688 213.02C206.654 211.265 207.12 209.26 207.084 207.004C207.12 204.676 206.654 202.635 205.688 200.881C204.757 199.126 203.432 197.784 201.713 196.853C199.994 195.886 198.025 195.402 195.805 195.402C190.792 195.295 187.247 197.336 185.17 201.525H167.016L170.346 155.227H222.016V171.555H187.211L185.6 189.064H186.029C187.283 186.701 189.395 184.785 192.367 183.317C195.375 181.849 198.777 181.115 202.572 181.115C207.191 181.115 211.345 182.189 215.033 184.338C218.721 186.486 221.604 189.476 223.681 193.308C225.793 197.139 226.85 201.49 226.85 206.359C226.85 211.73 225.561 216.529 222.982 220.754C220.44 224.943 216.806 228.22 212.079 230.583C207.388 232.91 201.964 234.074 195.805 234.074ZM236.195 155.227H256.605V187.023H257.68L281.742 155.227H305.697L279.057 189.924L306.234 233H281.742L263.803 203.459L256.605 212.697V233H236.195V155.227Z" fill="#F70035"/>
</svg>
