<svg width="70" height="40" viewBox="0 0 70 40" fill="none" xmlns="http://www.w3.org/2000/svg">
<path d="M2.64399 1.0105V0H5.48424V1.0105H7.91652V2.35635C7.91652 2.90334 7.64919 3.1269 7.10061 3.1269H0.815913C0.267335 3.1269 0 2.90334 0 2.35635V1.0105H2.64399ZM0.281243 5.20305C0.281243 4.20745 0.899359 3.43542 2.20822 3.43542H5.89219C7.19951 3.43542 7.80526 4.20745 7.80526 5.20305V6.45202C7.80526 7.41931 7.20105 8.23307 5.89219 8.23307H2.20822C0.900904 8.23307 0.281243 7.41931 0.281243 6.45202V5.20305ZM0.829821 8.59674H11.0256V12.8608C11.0256 13.4212 10.6888 13.7446 10.1124 13.7446H1.74309C1.16669 13.7446 0.828276 13.4227 0.828276 12.8608V8.59674H0.829821ZM4.47207 5.60994H3.71333C3.41818 5.60994 3.13694 5.62335 3.13694 5.89014C3.13694 6.15692 3.41818 6.21207 3.71333 6.21207H4.47207C4.76722 6.21207 4.94957 6.15543 4.94957 5.89014C4.94957 5.62484 4.76722 5.60994 4.47207 5.60994ZM8.16995 11.5567V10.7862H3.67006V11.5567H8.16995ZM11.0256 3.17012H12.8815V4.76934C12.8815 5.34464 12.5153 5.59652 11.8972 5.59652H11.0256V7.25089C11.0256 7.82619 10.6038 8.20476 9.9424 8.20476H8.16995V0.8555H11.0241V3.17012H11.0256Z" fill="white"/>
<path d="M22.9786 12.3272C22.9786 13.1544 22.4022 13.7297 21.5167 13.7297H20.6313V7.51615H20.1244C19.9699 9.24057 19.3502 10.6162 18.2824 11.6118C17.0307 12.8176 15.5117 13.5047 13.7547 13.688V11.4166C14.838 11.2064 15.7945 10.7295 16.595 9.98577C17.397 9.24206 17.8049 7.82616 17.8049 5.73659V3.05831H17.4387V5.41466C17.4387 7.42076 17.0879 8.79493 16.3832 9.53865C15.6801 10.2824 14.7947 10.7876 13.7393 11.0529V8.66824C14.1472 8.51324 14.4702 8.21963 14.7097 7.78443C14.9492 7.34922 15.062 6.60699 15.062 5.55476V3.05831H14.5274C14.0777 3.05831 13.7532 2.73489 13.7532 2.18939V0.883787H20.18V5.20302H20.6297V0.855469H22.9786V12.3272ZM23.3015 0.855469H25.706V12.0888C25.706 12.524 25.5515 12.9025 25.2424 13.2245C24.9333 13.5613 24.5393 13.7297 24.0463 13.7297H23.3015V0.855469Z" fill="white"/>
<path d="M42.5664 6.15689C42.5664 6.73219 42.1445 7.11076 41.4832 7.11076H39.7107V5.10465H38.3895C38.2767 5.10465 38.1778 5.09124 38.0804 5.06292C37.8409 5.38634 37.5458 5.66654 37.2228 5.90501C36.0839 6.73219 34.2697 7.13907 31.7803 7.13907V4.96455C34.4104 4.96455 35.9433 4.41757 35.9433 3.17009V3.05831H32.6534C32.2037 3.05831 31.7818 2.73489 31.7818 2.18939V0.883787H38.9257V2.22963C38.9257 2.48152 38.9118 2.71998 38.884 2.94504H39.7138V0.855469H42.5679V6.15689H42.5664ZM41.7783 11.4717H35.2247V11.8503H42.6777V12.9577C42.6777 13.5047 42.3964 13.7431 41.8478 13.7431H33.1988C32.6503 13.7431 32.369 13.5047 32.369 12.9577V9.67577H39.6953V9.31061H33.1278C32.5792 9.31061 32.3397 9.11388 32.3397 8.5669V7.4312H42.5633V10.7265C42.5633 11.2735 42.3238 11.4702 41.7752 11.4702L41.7783 11.4717Z" fill="white"/>
<path d="M55.9672 11.9216C55.9672 12.4402 55.7848 12.8605 55.4325 13.2123C55.0802 13.5625 54.6583 13.7458 54.1391 13.7458H53.113V8.03754H52.2276V11.4879C52.2276 12.792 51.3978 13.6892 50.0904 13.6892H47.4325C46.1252 13.6892 45.2954 12.792 45.2954 11.4879V3.01483C45.2954 1.68239 46.1252 0.813477 47.4325 0.813477H50.0904C51.3978 0.813477 52.2276 1.68239 52.2276 3.01483V5.77806H53.113V0.855208H55.9672V11.9216ZM48.6549 11.4998H48.8666C49.1617 11.4998 49.3734 11.3731 49.3734 10.7978V3.70191C49.3734 3.09829 49.1617 2.99992 48.8666 2.99992H48.6549C48.3597 2.99992 48.148 3.09829 48.148 3.70191V10.7993C48.148 11.3746 48.3582 11.5013 48.6549 11.5013V11.4998Z" fill="white"/>
<path d="M60.4241 11.5286V9.11557H63.2365V11.5286H64.6984V9.11557H67.5108V11.5286H70.0002V12.6643C70.0002 13.2947 69.5506 13.7016 68.8892 13.7016H59.1291C58.4956 13.7016 58.0181 13.2947 58.0181 12.6643V11.5286H60.4225H60.4241ZM68.6373 8.06483C68.1598 8.52835 67.568 8.75191 66.8788 8.75191H61.0577C60.3685 8.75191 59.7781 8.52835 59.2852 8.06483C58.8077 7.60131 58.5682 7.0275 58.5682 6.34041V3.25525C58.5682 2.56816 58.8077 1.99286 59.2852 1.53083C59.7781 1.06731 60.3685 0.84375 61.0577 0.84375H66.8788C67.568 0.84375 68.1583 1.0688 68.6373 1.53083C69.1287 1.99435 69.3682 2.56816 69.3682 3.25525V6.34041C69.3682 7.0275 69.1287 7.6028 68.6373 8.06483ZM62.2954 6.55056H65.6425C66.2746 6.55056 66.4724 6.25546 66.4724 5.79343V3.80223C66.4724 3.31188 66.2761 3.0451 65.6425 3.0451H62.2954C61.6634 3.0451 61.4656 3.31188 61.4656 3.80223V5.79343C61.4656 6.25695 61.6619 6.55056 62.2954 6.55056Z" fill="white"/>
<path fill-rule="evenodd" clip-rule="evenodd" d="M30.9169 23.5605H26.5248L24.9486 28.3433C24.9041 28.4666 24.8655 28.6951 24.8269 28.9239C24.7917 29.1319 24.7566 29.3402 24.7168 29.4701C24.6784 29.3357 24.6397 29.1326 24.601 28.9293C24.5555 28.6907 24.51 28.4519 24.4649 28.3239L22.8038 23.5605H18.4321L22.5936 34.2513L22.0682 35.6508C21.7947 36.5242 21.5845 36.6509 21.1426 36.6509H19.8399V38.3231C19.8399 38.9238 20.3236 39.3232 21.0174 39.3232H21.6479C22.2583 39.3232 22.8671 39.2323 23.4559 39.0505C24.0663 38.8686 24.4649 38.6689 24.6967 38.4319C25.0537 38.0862 25.3056 37.8134 25.4107 37.6495C25.5157 37.4855 25.6208 37.2486 25.7259 36.94L30.9169 23.5605Z" fill="white"/>
<path fill-rule="evenodd" clip-rule="evenodd" d="M54.1838 26.9416L59.7963 19.5596H55.0043L50.1274 26.414V19.5596H45.8608V35.3058H48.4461C49.3501 35.3058 50.1274 34.7782 50.1274 34.033V27.5423L55.5498 35.3058H60.2166L54.1838 26.9416Z" fill="white"/>
<path fill-rule="evenodd" clip-rule="evenodd" d="M16.8159 19.5577V34.0311C16.8159 34.7763 16.0386 35.3039 15.1346 35.3039H12.5493V27.8861C12.5493 27.831 12.5493 27.6864 12.5709 27.4673C12.5926 27.2303 12.5926 27.0858 12.5926 27.0127L12.5091 27.3943C12.4875 27.594 12.4458 27.7401 12.4257 27.7937L10.3874 32.9208C10.1556 33.5214 9.63025 33.8657 8.89469 33.8657H6.85645L4.45971 27.6834C4.43187 27.6114 4.40403 27.4657 4.37448 27.311L4.37448 27.311C4.33679 27.1137 4.29632 26.9019 4.24955 26.81C4.27118 26.9188 4.27118 27.1007 4.27118 27.3376V27.3377V34.0281C4.27118 34.7734 3.4939 35.301 2.58991 35.301H0V19.5547H4.72859L8.40638 28.609L12.0641 19.5547H16.8143L16.8159 19.5577Z" fill="white"/>
<path fill-rule="evenodd" clip-rule="evenodd" d="M42.7289 19.5425V21.252C42.7289 21.9615 42.3302 22.2521 41.5097 22.2521H36.3391L36.0656 25.1972C36.4226 24.9244 37.0747 24.6695 38.0204 24.6695C41.2779 24.6695 43.1492 26.6145 43.1492 29.9784C43.1492 33.542 41.0894 35.4512 37.495 35.4512C35.9188 35.4512 34.6161 35.0518 33.5653 34.2336C32.5362 33.4332 31.9891 32.2886 31.9258 30.7967H36.0239C36.1707 31.9786 36.9696 32.7417 37.495 32.7417C38.4191 32.7417 39.0295 31.8146 39.0295 29.9784C39.0295 29.1959 38.861 28.5417 38.5257 28.014C38.2105 27.4864 37.8736 27.2316 37.5584 27.2316C36.9696 27.2316 36.319 27.6131 36.0872 28.5044H32.156L32.7664 19.541H42.7289V19.5425Z" fill="white"/>
</svg>
