<svg width="70" height="40" viewBox="0 0 70 40" fill="none" xmlns="http://www.w3.org/2000/svg">
<path d="M2.64399 1.0105V0H5.48424V1.0105H7.91652V2.35635C7.91652 2.90334 7.64919 3.1269 7.10061 3.1269H0.815913C0.267335 3.1269 0 2.90334 0 2.35635V1.0105H2.64399ZM0.281243 5.20305C0.281243 4.20745 0.899359 3.43542 2.20822 3.43542H5.89219C7.19951 3.43542 7.80526 4.20745 7.80526 5.20305V6.45202C7.80526 7.41931 7.20105 8.23307 5.89219 8.23307H2.20822C0.900904 8.23307 0.281243 7.41931 0.281243 6.45202V5.20305ZM0.829821 8.59674H11.0256V12.8608C11.0256 13.4212 10.6888 13.7446 10.1124 13.7446H1.74309C1.16669 13.7446 0.828276 13.4227 0.828276 12.8608V8.59674H0.829821ZM4.47207 5.60994H3.71333C3.41818 5.60994 3.13694 5.62335 3.13694 5.89014C3.13694 6.15692 3.41818 6.21207 3.71333 6.21207H4.47207C4.76722 6.21207 4.94957 6.15543 4.94957 5.89014C4.94957 5.62484 4.76722 5.60994 4.47207 5.60994ZM8.16995 11.5567V10.7862H3.67006V11.5567H8.16995ZM11.0256 3.17012H12.8815V4.76934C12.8815 5.34464 12.5153 5.59652 11.8972 5.59652H11.0256V7.25089C11.0256 7.82619 10.6038 8.20476 9.9424 8.20476H8.16995V0.8555H11.0241V3.17012H11.0256Z" fill="white"/>
<path d="M22.9786 12.3272C22.9786 13.1544 22.4022 13.7297 21.5167 13.7297H20.6313V7.51615H20.1244C19.9699 9.24057 19.3502 10.6162 18.2824 11.6118C17.0307 12.8176 15.5117 13.5047 13.7547 13.688V11.4166C14.838 11.2064 15.7945 10.7295 16.595 9.98577C17.397 9.24206 17.8049 7.82616 17.8049 5.73659V3.05831H17.4387V5.41466C17.4387 7.42076 17.0879 8.79493 16.3832 9.53865C15.6801 10.2824 14.7947 10.7876 13.7393 11.0529V8.66824C14.1472 8.51324 14.4702 8.21963 14.7097 7.78443C14.9492 7.34922 15.062 6.60699 15.062 5.55476V3.05831H14.5274C14.0777 3.05831 13.7532 2.73489 13.7532 2.18939V0.883787H20.18V5.20302H20.6297V0.855469H22.9786V12.3272ZM23.3015 0.855469H25.706V12.0888C25.706 12.524 25.5515 12.9025 25.2424 13.2245C24.9333 13.5613 24.5393 13.7297 24.0463 13.7297H23.3015V0.855469Z" fill="white"/>
<path d="M42.5666 6.15689C42.5666 6.73219 42.1448 7.11076 41.4834 7.11076H39.711V5.10465H38.3897C38.2769 5.10465 38.178 5.09124 38.0807 5.06292C37.8411 5.38634 37.546 5.66654 37.223 5.90501C36.0842 6.73219 34.27 7.13907 31.7805 7.13907V4.96455C34.4106 4.96455 35.9435 4.41757 35.9435 3.17009V3.05831H32.6536C32.2039 3.05831 31.7821 2.73489 31.7821 2.18939V0.883787H38.9259V2.22963C38.9259 2.48152 38.912 2.71998 38.8842 2.94504H39.714V0.855469H42.5682V6.15689H42.5666ZM41.7785 11.4717H35.225V11.8503H42.6779V12.9577C42.6779 13.5047 42.3967 13.7431 41.8481 13.7431H33.1991C32.6505 13.7431 32.3693 13.5047 32.3693 12.9577V9.67577H39.6955V9.31061H33.128C32.5794 9.31061 32.3399 9.11388 32.3399 8.5669V7.4312H42.5636V10.7265C42.5636 11.2735 42.324 11.4702 41.7755 11.4702L41.7785 11.4717Z" fill="white"/>
<path d="M55.9672 11.9216C55.9672 12.4402 55.7848 12.8605 55.4325 13.2123C55.0802 13.5625 54.6583 13.7458 54.1391 13.7458H53.113V8.03754H52.2276V11.4879C52.2276 12.792 51.3978 13.6892 50.0904 13.6892H47.4325C46.1252 13.6892 45.2954 12.792 45.2954 11.4879V3.01483C45.2954 1.68239 46.1252 0.813477 47.4325 0.813477H50.0904C51.3978 0.813477 52.2276 1.68239 52.2276 3.01483V5.77806H53.113V0.855208H55.9672V11.9216ZM48.6549 11.4998H48.8666C49.1617 11.4998 49.3734 11.3731 49.3734 10.7978V3.70191C49.3734 3.09829 49.1617 2.99992 48.8666 2.99992H48.6549C48.3597 2.99992 48.148 3.09829 48.148 3.70191V10.7993C48.148 11.3746 48.3582 11.5013 48.6549 11.5013V11.4998Z" fill="white"/>
<path d="M60.4238 11.5286V9.11557H63.2363V11.5286H64.6981V9.11557H67.5105V11.5286H70V12.6643C70 13.2947 69.5503 13.7016 68.8889 13.7016H59.1289C58.4953 13.7016 58.0178 13.2947 58.0178 12.6643V11.5286H60.4223H60.4238ZM68.6371 8.06483C68.1596 8.52835 67.5677 8.75191 66.8785 8.75191H61.0574C60.3682 8.75191 59.7779 8.52835 59.285 8.06483C58.8075 7.60131 58.5679 7.0275 58.5679 6.34041V3.25525C58.5679 2.56816 58.8075 1.99286 59.285 1.53083C59.7779 1.06731 60.3682 0.84375 61.0574 0.84375H66.8785C67.5677 0.84375 68.158 1.0688 68.6371 1.53083C69.1285 1.99435 69.368 2.56816 69.368 3.25525V6.34041C69.368 7.0275 69.1285 7.6028 68.6371 8.06483ZM62.2952 6.55056H65.6423C66.2743 6.55056 66.4721 6.25546 66.4721 5.79343V3.80223C66.4721 3.31188 66.2759 3.0451 65.6423 3.0451H62.2952C61.6632 3.0451 61.4654 3.31188 61.4654 3.80223V5.79343C61.4654 6.25695 61.6616 6.55056 62.2952 6.55056Z" fill="white"/>
<path fill-rule="evenodd" clip-rule="evenodd" d="M35.8617 23.5605H31.4696L29.8934 28.3433C29.8489 28.4666 29.8103 28.6951 29.7717 28.9239C29.7366 29.1319 29.7014 29.3402 29.6616 29.4701C29.6233 29.3357 29.5846 29.1326 29.5458 28.9293C29.5003 28.6907 29.4548 28.4519 29.4098 28.3239L27.7486 23.5605H23.377L27.5384 34.2513L27.013 35.6508C26.7395 36.5242 26.5293 36.6509 26.0874 36.6509H24.7847V38.3231C24.7847 38.9238 25.2684 39.3232 25.9622 39.3232H26.5927C27.2031 39.3232 27.8119 39.2323 28.4007 39.0505C29.0111 38.8686 29.4098 38.6689 29.6416 38.4319C29.9985 38.0862 30.2504 37.8134 30.3555 37.6495C30.4606 37.4855 30.5656 37.2486 30.6707 36.94L35.8617 23.5605Z" fill="white"/>
<path fill-rule="evenodd" clip-rule="evenodd" d="M59.1288 26.9406L64.7413 19.5586H59.9494L55.0725 26.413V19.5586H50.8059V35.3049H53.3912C54.2952 35.3049 55.0725 34.7773 55.0725 34.032V27.5413L60.4949 35.3049H65.1617L59.1288 26.9406Z" fill="white"/>
<path fill-rule="evenodd" clip-rule="evenodd" d="M21.7604 19.5586V34.0321C21.7604 34.7773 20.9832 35.3049 20.0792 35.3049H17.4939V27.8871C17.4939 27.832 17.4939 27.6874 17.5155 27.4683C17.5372 27.2313 17.5372 27.0867 17.5372 27.0137L17.4537 27.3953C17.4321 27.595 17.3904 27.741 17.3703 27.7947L15.332 32.9217C15.1002 33.5224 14.5748 33.8667 13.8393 33.8667H11.801L9.40429 27.6844C9.37645 27.6124 9.3486 27.4666 9.31906 27.312C9.28137 27.1147 9.2409 26.9029 9.19413 26.811C9.21576 26.9198 9.21576 27.1017 9.21576 27.3386V34.0291C9.21576 34.7743 8.43848 35.3019 7.53449 35.3019H4.94458V19.5557H9.67317L13.351 28.61L17.0087 19.5557H21.7589L21.7604 19.5586Z" fill="white"/>
<path fill-rule="evenodd" clip-rule="evenodd" d="M47.674 19.5396V21.2491C47.674 21.9585 47.2753 22.2492 46.4547 22.2492H41.2842L41.0107 25.1942C41.3676 24.9215 42.0198 24.6666 42.9655 24.6666C46.223 24.6666 48.0943 26.6116 48.0943 29.9755C48.0943 33.5391 46.0344 35.4483 42.4401 35.4483C40.8639 35.4483 39.5612 35.0489 38.5104 34.2306C37.4812 33.4303 36.9342 32.2856 36.8708 30.7937H40.969C41.1158 31.9756 41.9147 32.7387 42.4401 32.7387C43.3642 32.7387 43.9746 31.8117 43.9746 29.9755C43.9746 29.193 43.8061 28.5387 43.4708 28.0111C43.1555 27.4835 42.8187 27.2286 42.5034 27.2286C41.9147 27.2286 41.2641 27.6102 41.0323 28.5015H37.1011L37.7115 19.5381H47.674V19.5396Z" fill="white"/>
</svg>
