<svg width="96" height="96" viewBox="0 0 96 96" fill="none" xmlns="http://www.w3.org/2000/svg">
<rect width="96" height="96" fill="white"/>
<path fill-rule="evenodd" clip-rule="evenodd" d="M50.1045 39.7002H44.1246L41.9787 46.4657C41.918 46.6402 41.8655 46.9633 41.8129 47.287C41.7651 47.5812 41.7172 47.8759 41.6631 48.0596C41.6108 47.8695 41.5581 47.5822 41.5054 47.2947C41.4435 46.9572 41.3815 46.6194 41.3201 46.4383L39.0584 39.7002H33.1064L38.7723 54.823L38.057 56.8027C37.6846 58.0382 37.3984 58.2174 36.7967 58.2174H35.0231V60.5829C35.0231 61.4326 35.6816 61.9976 36.6263 61.9976H37.4847C38.3157 61.9976 39.1447 61.869 39.9463 61.6118C40.7773 61.3546 41.3201 61.072 41.6357 60.7368C42.1217 60.2477 42.4647 59.8619 42.6077 59.63C42.7508 59.398 42.8939 59.0628 43.0369 58.6264L50.1045 39.7002Z" fill="#F70035"/>
<path fill-rule="evenodd" clip-rule="evenodd" d="M81.7702 44.4698L89.4116 34.0273H82.8873L76.2474 43.7234V34.0273H70.4385V56.3015H73.9583C75.1891 56.3015 76.2474 55.5552 76.2474 54.5011V45.3194L83.63 56.3015H89.9838L81.7702 44.4698Z" fill="#F70035"/>
<path fill-rule="evenodd" clip-rule="evenodd" d="M30.8811 34.0325V54.5062C30.8811 55.5604 29.8229 56.3067 28.5921 56.3067H25.0722V45.8137C25.0722 45.7357 25.0722 45.5312 25.1017 45.2213C25.1311 44.8861 25.1311 44.6816 25.1311 44.5783L25.0175 45.118C24.9881 45.4005 24.9313 45.6071 24.9039 45.683L22.1288 52.9356C21.8133 53.7852 21.0979 54.2722 20.0965 54.2722H17.3214L14.0582 45.527C14.0203 45.4251 13.9824 45.2189 13.9422 45.0002C13.8909 44.7211 13.8358 44.4215 13.7721 44.2915C13.8015 44.4454 13.8015 44.7026 13.8015 45.0379V54.502C13.8015 55.5562 12.7433 56.3025 11.5125 56.3025H7.98633V34.0283H14.4243L19.4316 46.8362L24.4116 34.0283H30.879L30.8811 34.0325Z" fill="#F70035"/>
<path fill-rule="evenodd" clip-rule="evenodd" d="M66.1958 33.9992V36.4174C66.1958 37.421 65.653 37.8321 64.5358 37.8321H57.4961L57.1237 41.9981C57.6097 41.6123 58.4975 41.2517 59.7851 41.2517C64.2202 41.2517 66.768 44.0031 66.768 48.7615C66.768 53.8024 63.9635 56.5032 59.0698 56.5032C56.9238 56.5032 55.1502 55.9382 53.7196 54.7807C52.3184 53.6485 51.5736 52.0294 51.4873 49.919H57.0669C57.2668 51.5908 58.3545 52.6703 59.0698 52.6703C60.328 52.6703 61.159 51.3589 61.159 48.7615C61.159 47.6546 60.9297 46.7291 60.4731 45.9828C60.0439 45.2364 59.5853 44.8759 59.1561 44.8759C58.3545 44.8759 57.4687 45.4156 57.1531 46.6764H51.8008L52.6318 33.9971H66.1958V33.9992Z" fill="#F70035"/>
</svg>
