<svg width="144" height="144" viewBox="0 0 144 144" fill="none" xmlns="http://www.w3.org/2000/svg">
<rect width="144" height="144" fill="white"/>
<path fill-rule="evenodd" clip-rule="evenodd" d="M75.1563 59.5508H66.1865L62.9675 69.6991C62.8766 69.9608 62.7978 70.4455 62.7189 70.9309C62.6471 71.3723 62.5753 71.8143 62.4941 72.0899C62.4157 71.8048 62.3367 71.3738 62.2576 70.9426C62.1647 70.4362 62.0717 69.9295 61.9797 69.658L58.5871 59.5508H49.6592L58.1579 82.235L57.0849 85.2046C56.5264 87.0578 56.0972 87.3266 55.1946 87.3266H52.5342V90.8749C52.5342 92.1493 53.522 92.9969 54.939 92.9969H56.2265C57.4731 92.9969 58.7165 92.804 59.9189 92.4181C61.1655 92.0323 61.9797 91.6085 62.4531 91.1057C63.1821 90.372 63.6965 89.7933 63.9111 89.4454C64.1257 89.0976 64.3403 88.5947 64.5549 87.9401L75.1563 59.5508Z" fill="#F70035"/>
<path fill-rule="evenodd" clip-rule="evenodd" d="M122.656 66.7046L134.118 51.041H124.332L114.372 65.5851V51.041H105.658V84.4523H110.938C112.784 84.4523 114.372 83.3328 114.372 81.7516V67.9791L125.446 84.4523H134.976L122.656 66.7046Z" fill="#F70035"/>
<path fill-rule="evenodd" clip-rule="evenodd" d="M46.3217 51.0473V81.7579C46.3217 83.3391 44.7343 84.4586 42.8881 84.4586H37.6083V68.7191C37.6083 68.6021 37.6083 68.2953 37.6525 67.8305C37.6967 67.3276 37.6967 67.0209 37.6967 66.8659L37.5263 67.6755C37.4821 68.0993 37.3969 68.4092 37.3559 68.523L33.1933 79.4019C32.7199 80.6763 31.6469 81.4069 30.1447 81.4069H25.9821L21.0873 68.289C21.0305 68.1362 20.9736 67.827 20.9133 67.4988L20.9133 67.4988C20.8363 67.0802 20.7537 66.6308 20.6581 66.4358C20.7023 66.6667 20.7023 67.0525 20.7023 67.5553V81.7516C20.7023 83.3328 19.1149 84.4523 17.2687 84.4523H11.9795V51.041H21.6365L29.1474 70.2529L36.6174 51.041H46.3185L46.3217 51.0473Z" fill="#F70035"/>
<path fill-rule="evenodd" clip-rule="evenodd" d="M99.2951 50.9973V54.6246C99.2951 56.13 98.4809 56.7466 96.8051 56.7466H86.2456L85.687 62.9956C86.416 62.4169 87.7478 61.8761 89.6792 61.8761C96.3318 61.8761 100.154 66.0031 100.154 73.1408C100.154 80.7022 95.9467 84.7533 88.6062 84.7533C85.3872 84.7533 82.7268 83.9058 80.5808 82.1696C78.479 80.4713 77.3618 78.0426 77.2324 74.877H85.6018C85.9016 77.3848 87.5332 79.004 88.6062 79.004C90.4934 79.004 91.74 77.0369 91.74 73.1408C91.74 71.4805 91.396 70.0922 90.7111 68.9727C90.0674 67.8532 89.3794 67.3124 88.7356 67.3124C87.5332 67.3124 86.2046 68.122 85.7312 70.0131H77.7026L78.9492 50.9941H99.2951V50.9973Z" fill="#F70035"/>
</svg>
